<?xml version="1.0" standalone="no"?>
<!DOCTYPE svg PUBLIC "-//W3C//DTD SVG 1.1//EN" "http://www.w3.org/Graphics/SVG/1.1/DTD/svg11.dtd" >
<svg xmlns="http://www.w3.org/2000/svg">
    <metadata>
        Generated by SVGconv.
        Copyright : Copyright 1990-2003 Bitstream Inc. All rights reserved. Partial Copyright 2005, ParaType Inc,
        ParaType Ltd. All rights reserved.
        Designer : Morris F. Benton, Dmitry Kirsanov
        Foundry : ParaType Ltd
        Foundry URL : http://www.paratype.com
    </metadata>
    <defs>
        <font id="NewsGothicBTWeb-Demi" horiz-adv-x="556">
            <font-face units-per-em="1000" ascent="1017" descent="369"/>
            <missing-glyph horiz-adv-x="500"/>
            <glyph unicode="&#13;" horiz-adv-x="301"/>
            <glyph unicode="&#32;" horiz-adv-x="301"/>
            <glyph unicode="&#33;" horiz-adv-x="316" d="M214 725l-24 -487h-68l-24 487zM213 127v-127h-114l0 127z"/>
            <glyph unicode="&#34;" horiz-adv-x="300" d="M112 430h-68v271h68zM256 430h-68v271l68 0z"/>
            <glyph unicode="&#35;" horiz-adv-x="604"
                   d="M292 490h115l80 222h80l-78 -222h118l-25 -71h-119l-45 -129h118l-25 -71h-118l-79 -221h-81l79 221h-116l-79 -221h-81l78 221h-118l26 71h118l45 129h-117l25 71h118l79 222h81zM266 419l-45 -129h117l45 129z"/>
            <glyph unicode="&#36;" horiz-adv-x="604"
                   d="M331 790v-67q64 -5 112.5 -32.5q48.5 -27.5 87.5 -81.5l-66 -59q-27 45 -59.5 67.5q-32.5 22.5 -74.5 25.5l0 -232q114 -28 167 -78.5q53 -50.5 53 -135.5q0 -86 -58 -139.5q-58 -53.5 -162 -58.5l0 -97h-59v97q-142 11 -220 128l67 59q61 -96 153 -106l0 253q-106 29 -157 75.5q-51 46.5 -51 122.5q0 85 54 135q54 50 154 57l0 67zM331 79q62 2 95.5 31.5q33.5 29.5 33.5 80.5q0 92 -129 125zM272 646q-58 -3 -89 -30.5q-31 -27.5 -31 -74.5q0 -42 29 -68.5q29 -26.5 91 -43.5z"/>
            <glyph unicode="&#37;" horiz-adv-x="863"
                   d="M214 391q-35 0 -66 13.5q-31 13.5 -54.5 37q-23.5 23.5 -37 54.5q-13.5 31 -13.5 66q0 35 13.5 66.5q13.5 31.5 36.5 55q23 23.5 54 37q31 13.5 67 13.5q36 0 67.5 -13.5q31.5 -13.5 54.5 -36.5q23 -23 36.5 -54.5q13.5 -31.5 13.5 -67.5q0 -36 -13.5 -67q-13.5 -31 -37 -54q-23.5 -23 -55 -36.5q-31.5 -13.5 -66.5 -13.5zt0 0zM215 469q19 0 36 7.5q17 7.5 29.5 20.5q12.5 13 20 30q7.5 17 7.5 36q0 39 -27 66q-27 27 -66 27q-19 0 -36 -7.5q-17 -7.5 -30 -20q-13 -12.5 -20.5 -29.5q-7.5 -17 -7.5 -36q0 -19 7.5 -36q7.5 -17 20.5 -30q13 -13 30 -20.5q17 -7.5 36 -7.5zt0 0zM675 735l-421 -747h-68l421 747zM647 -12q-35 0 -66 14q-31 14 -54.5 37.5q-23.5 23.5 -37.5 54.5q-14 31 -14 66q0 35 13.5 66.5q13.5 31.5 37 55q23.5 23.5 54.5 37q31 13.5 67 13.5q36 0 67 -13.5q31 -13.5 54.5 -36.5q23.5 -23 36.5 -54.5q13 -31.5 13 -67.5q0 -36 -13.5 -67q-13.5 -31 -37 -54.5q-23.5 -23.5 -54.5 -37q-31 -13.5 -66 -13.5zt0 0zM647 67q19 0 36 7.5q17 7.5 30 20q13 12.5 20.5 29.5q7.5 17 7.5 36q0 19 -7.5 36.5q-7.5 17.5 -20 30q-12.5 12.5 -30 20q-17.5 7.5 -36.5 7.5q-19 0 -36 -7.5q-17 -7.5 -30 -20.5q-13 -13 -20.5 -30q-7.5 -17 -7.5 -36q0 -19 7.5 -36q7.5 -17 20.5 -29.5q13 -12.5 30 -20t36 -7.5z"/>
            <glyph unicode="&#38;" horiz-adv-x="648"
                   d="M256 451q48 29 72 64.5q24 35.5 24 74.5q0 36 -18.5 56q-18.5 20 -50.5 20q-32 0 -51 -22.5q-19 -22.5 -19 -61.5q0 -56 43 -131zt0 0zM305 384q61 -96 144 -179q26 43 40 83q14 40 22 75l88 -20q-11 -54 -31.5 -103.5q-20.5 -49.5 -53.5 -95.5q26 -23 53 -35.5q27 -12.5 54 -16.5l0 -101q-48 2 -88 20.5q-40 18.5 -80 55.5q-93 -81 -200 -81q-50 0 -90 15.5q-40 15.5 -67.5 43q-27.5 27.5 -42.5 66q-15 38.5 -15 85.5q0 65 34 115q34 50 106 95q-56 82 -56 163q0 78 43 122q43 44 116 44q76 0 118 -40q42 -40 42 -109q0 -57 -33.5 -106q-33.5 -49 -102.5 -96zt0 0zM225 333q-88 -56 -88 -133q0 -26 9.5 -48q9.5 -22 26.5 -39q17 -17 40.5 -26.5q23.5 -9.5 51.5 -9.5q66 0 120 54q-44 43 -83.5 93.5t-76.5 108.5z"/>
            <glyph unicode="&#39;" horiz-adv-x="155" d="M112 430h-68v271l68 0z"/>
            <glyph unicode="&#40;" horiz-adv-x="326"
                   d="M285 735q-71 -100 -106 -199q-35 -99 -35 -210q0 -112 34.5 -211q34.5 -99 106.5 -199l-94 0q-70 98 -104 198q-34 100 -34 212q0 112 34 211.5q34 99.5 104 197.5z"/>
            <glyph unicode="&#41;" horiz-adv-x="326"
                   d="M133 735q70 -98 104 -197.5q34 -99.5 34 -211.5q0 -111 -34 -211.5q-34 -100.5 -104 -198.5l-93 0q72 100 106.5 199.5q34.5 99.5 34.5 210.5q0 111 -35 210q-35 99 -106 199z"/>
            <glyph unicode="&#42;" horiz-adv-x="500"
                   d="M290 725l-17 -171l154 73l26 -83l-166 -33l117 -124l-71 -53l-83 150l-83 -150l-71 53l117 124l-166 33l26 83l154 -73l-17 171z"/>
            <glyph unicode="&#43;" horiz-adv-x="833" d="M451 332h258v-68h-258v-264h-69v264h-258v68h258v264l69 0z"/>
            <glyph unicode="&#44;" horiz-adv-x="302" d="M212 126v-132l-64 -144l-55 1l52 154h-48l0 121z"/>
            <glyph unicode="&#45;" horiz-adv-x="330" d="M280 304v-85h-235l0 85z"/>
            <glyph unicode="&#46;" horiz-adv-x="302" d="M208 125v-125h-114l0 125z"/>
            <glyph unicode="&#47;" horiz-adv-x="272" d="M290 735l-269 -828h-66l269 828z"/>
            <glyph unicode="&#48;" horiz-adv-x="604"
                   d="M302 735q125 0 190 -93.5q65 -93.5 65 -279.5q0 -186 -65 -280q-65 -94 -190 -94q-125 0 -190.5 94q-65.5 94 -65.5 280q0 186 65.5 279.5q65.5 93.5 190.5 93.5zt0 0zM302 650q-76 0 -116 -72q-40 -72 -40 -216q0 -144 39.5 -216q39.5 -72 116.5 -72q155 0 155 288q0 288 -155 288z"/>
            <glyph unicode="&#49;" horiz-adv-x="604"
                   d="M354 735v-654h116v-81h-330v81h118v546l-130 -11v65q45 10 83.5 23.5q38.5 13.5 73.5 30.5z"/>
            <glyph unicode="&#50;" horiz-adv-x="604"
                   d="M524 88v-88h-472v95q28 54 69 101.5q41 47.5 93 88.5q46 36 84 66q38 30 66 58.5q28 28.5 43.5 58q15.5 29.5 15.5 65.5q0 53 -33 85.5q-33 32.5 -87 32.5q-60 0 -100 -35.5q-40 -35.5 -51 -101.5l-94 19q20 97 83.5 149.5q63.5 52.5 157.5 52.5q106 0 165.5 -56q59.5 -56 59.5 -150q0 -41 -13 -74.5q-13 -33.5 -37 -64.5q-24 -31 -59.5 -61q-35.5 -30 -80.5 -64q-70 -53 -117 -94q-47 -41 -66 -83z"/>
            <glyph unicode="&#51;" horiz-adv-x="604"
                   d="M396 391q131 -45 131 -188q0 -48 -16.5 -87.5q-16.5 -39.5 -48 -68q-31.5 -28.5 -76 -44q-44.5 -15.5 -100.5 -15.5q-175 0 -258 143l81 53q65 -110 172 -110q67 0 106 35q39 35 39 98q0 72 -52 104q-52 32 -160 32q-7 0 -14.5 0q-7.5 0 -15.5 -1l0 87q14 -1 22.5 -1.5q8.5 -0.5 12.5 -0.5q187 0 187 122q0 48 -33 75.5q-33 27.5 -94 27.5q-87 0 -147 -87l-71 55q42 57 99.5 86q57.5 29 129.5 29q101 0 157.5 -49.5q56.5 -49.5 56.5 -133.5q0 -56 -27.5 -97t-80.5 -64z"/>
            <glyph unicode="&#52;" horiz-adv-x="604"
                   d="M449 724v-474h113v-81h-113v-178h-93v178h-324v85l300 470zM120 249h237l0 376z"/>
            <glyph unicode="&#53;" horiz-adv-x="604"
                   d="M500 724v-89h-300l-15 -199q29 29 62 41q33 12 77 12q49 0 90.5 -17q41.5 -17 71.5 -49q30 -32 46.5 -77q16.5 -45 16.5 -102q0 -57 -18 -104q-18 -47 -51 -81q-33 -34 -79 -52.5q-46 -18.5 -103 -18.5q-84 0 -144 35q-60 35 -94 104l87 45q52 -100 149 -100q68 0 110 48q42 48 42 130q0 36 -10.5 65q-10.5 29 -29 49.5q-18.5 20.5 -44.5 31.5q-26 11 -56 11q-96 0 -135 -91l-81 19l30 389z"/>
            <glyph unicode="&#54;" horiz-adv-x="604"
                   d="M482 609q-31 20 -64 30q-33 10 -65 10q-42 0 -77 -18q-35 -18 -61 -52q-26 -34 -41 -83.5q-15 -49.5 -16 -112.5q76 76 174 76q48 0 88 -17q40 -17 69.5 -47.5q29.5 -30.5 46 -73q16.5 -42.5 16.5 -93.5q0 -54 -17.5 -98q-17.5 -44 -49 -75.5q-31.5 -31.5 -76 -48.5q-44.5 -17 -98.5 -17q-125 0 -190 85q-65 85 -65 250q0 97 21 173q21 76 60 128.5q39 52.5 93.5 80.5q54.5 28 121.5 28q94 0 172 -47zM156 262q3 -90 46 -139.5q43 -49.5 110 -49.5q30 0 56 11q26 11 45 31.5q19 20.5 30 48.5q11 28 11 62q0 34 -10.5 62.5q-10.5 28.5 -29 48q-18.5 19.5 -44.5 30.5q-26 11 -57 11q-50 0 -92 -30.5t-65 -85.5z"/>
            <glyph unicode="&#55;" horiz-adv-x="604" d="M535 724v-63l-299 -670h-108l294 643h-356l0 90z"/>
            <glyph unicode="&#56;" horiz-adv-x="604"
                   d="M413 386q75 -35 111 -81q36 -46 36 -112q0 -98 -67.5 -151.5q-67.5 -53.5 -195.5 -53.5q-60 0 -107 14q-47 14 -79.5 39.5q-32.5 25.5 -49.5 61.5q-17 36 -17 80q0 136 150 201q-122 55 -122 169q0 40 16 73.5q16 33.5 45.5 57.5q29.5 24 72 37.5q42.5 13.5 96.5 13.5q55 0 98 -13q43 -13 73 -37q30 -24 45.5 -57.5q15.5 -33.5 15.5 -73.5q0 -117 -121 -168zt0 0zM291 341q-147 -53 -147 -150q0 -53 40.5 -86q40.5 -33 111.5 -33q79 0 122 32q43 32 43 83q0 54 -41.5 89q-41.5 35 -128.5 65zt0 0zM308 429q67 21 98 50q31 29 31 76q0 46 -35 73.5q-35 27.5 -95 27.5q-68 0 -103.5 -27q-35.5 -27 -35.5 -73q0 -86 140 -127z"/>
            <glyph unicode="&#57;" horiz-adv-x="604"
                   d="M446 461q-4 91 -46.5 140q-42.5 49 -109.5 49q-30 0 -56 -11q-26 -11 -45 -31.5q-19 -20.5 -30 -48.5q-11 -28 -11 -62q0 -35 10.5 -63q10.5 -28 29 -47.5q18.5 -19.5 44.5 -30.5q26 -11 57 -11q50 0 92 30.5q42 30.5 65 85.5zt0 0zM120 114q61 -40 128 -40q42 0 77.5 18q35.5 18 61.5 52q26 34 40.5 83.5q14.5 49.5 16.5 112.5q-77 -76 -174 -76q-48 0 -88.5 17q-40.5 17 -70 47.5q-29.5 30.5 -46 73.5q-16.5 43 -16.5 94q0 54 17.5 97.5q17.5 43.5 49.5 75q32 31.5 76.5 48.5q44.5 17 97.5 17q125 0 190.5 -85q65.5 -85 65.5 -251q0 -97 -21.5 -173q-21.5 -76 -60.5 -128.5q-39 -52.5 -94 -80.5q-55 -28 -122 -28q-51 0 -94.5 12.5q-43.5 12.5 -75.5 35.5z"/>
            <glyph unicode="&#58;" horiz-adv-x="317" d="M210 418v-123h-114v123zM210 123v-123h-114l0 123z"/>
            <glyph unicode="&#59;" horiz-adv-x="317"
                   d="M214 418v-123h-114v123zM214 126v-132l-64 -144l-55 1l52 154h-48l0 121z"/>
            <glyph unicode="&#60;" horiz-adv-x="833" d="M231 298l473 -192v-75l-575 236v63l575 236l0 -75z"/>
            <glyph unicode="&#61;" horiz-adv-x="833" d="M709 361h-585v68h585zM709 167h-585v68l585 0z"/>
            <glyph unicode="&#62;" horiz-adv-x="833" d="M129 491v75l575 -236v-63l-575 -236v75l473 192z"/>
            <glyph unicode="&#63;" horiz-adv-x="439"
                   d="M147 236q0 9 -0.5 17q-0.5 8 -0.5 16q0 41 7.5 72.5q7.5 31.5 30.5 63.5q19 27 37.5 49.5q18.5 22.5 32.5 43q14 20.5 23 40.5q9 20 9 42q0 33 -20.5 54q-20.5 21 -52.5 21q-61 0 -91 -86l-86 35q23 64 68.5 97.5q45.5 33.5 110.5 33.5q38 0 69.5 -11.5q31.5 -11.5 54 -32.5q22.5 -21 35 -50q12.5 -29 12.5 -63q0 -34 -11 -61q-11 -27 -28 -54q-16 -26 -40 -49.5q-24 -23.5 -44 -53.5q-16 -25 -21.5 -48.5q-5.5 -23.5 -5.5 -54.5v-21zM247 125v-125h-115l0 125z"/>
            <glyph unicode="&#64;" horiz-adv-x="1000"
                   d="M610 347q-8 44 -33.5 67q-25.5 23 -63.5 23q-34 0 -63 -17q-29 -17 -50.5 -46.5q-21.5 -29.5 -33.5 -69.5q-12 -40 -12 -86q0 -52 23.5 -79.5q23.5 -27.5 67.5 -27.5q47 0 84.5 33q37.5 33 51.5 88zM655 473h64l-71 -281q-4 -16 -4 -29q0 -46 49 -46q23 0 49.5 12.5q26.5 12.5 52.5 37.5q38 36 60.5 89.5q22.5 53.5 22.5 115.5q0 62 -24 114.5q-24 52.5 -68 90q-44 37.5 -106 58.5q-62 21 -139 21q-129 0 -223 -56q-94 -56 -145 -146q-51 -90 -51 -200q0 -87 30 -150.5q30 -63.5 94 -112.5q48 -36 113.5 -57q65.5 -21 142.5 -21q83 0 160.5 24q77.5 24 142.5 69l27 -40q-145 -109 -324 -109q-187 0 -307 91q-149 115 -149 307q0 81 25 152.5q25 71.5 74 131.5q71 87 170.5 132q99.5 45 223.5 45q84 0 154.5 -23q70.5 -23 120.5 -61q63 -49 96 -112.5q33 -63.5 33 -138.5q0 -86 -30.5 -154q-30.5 -68 -90.5 -115q-34 -27 -73.5 -41q-39.5 -14 -80.5 -14q-98 0 -98 77v9q-53 -85 -147 -85q-75 0 -114 41.5q-39 41.5 -39 120.5q0 58 18 107.5q18 49.5 49.5 85.5q31.5 36 74 56.5q42.5 20.5 91.5 20.5q83 0 118 -73z"/>
            <glyph unicode="&#65;" horiz-adv-x="609"
                   d="M376 725l221 -725h-107l-57 196h-261l-56 -196h-105l222 725zM197 284h209l-99 354l-8 0z"/>
            <glyph unicode="&#66;" horiz-adv-x="650"
                   d="M314 725q264 0 264 -183q0 -59 -27.5 -98.5q-27.5 -39.5 -85.5 -62.5q132 -49 132 -182q0 -199 -273 -199h-236v725zM191 423h136q72 0 109 28.5q37 28.5 37 82.5q0 57 -40 81q-40 24 -122 24h-120zM191 88h133q87 0 127 29q40 29 40 96q0 61 -42 93q-42 32 -123 32l-135 0z"/>
            <glyph unicode="&#67;" horiz-adv-x="610"
                   d="M474 507q-32 140 -154 140q-81 0 -126.5 -72.5q-45.5 -72.5 -45.5 -214.5q0 -140 46 -210q46 -70 133 -70q62 0 104.5 37.5q42.5 37.5 56.5 108.5l96 -24q-56 -214 -260 -214q-137 0 -209.5 94.5q-72.5 94.5 -72.5 278.5q0 90 19.5 159.5q19.5 69.5 56 117q36.5 47.5 89 72.5q52.5 25 117.5 25q100 0 162 -51.5q62 -51.5 85 -152.5z"/>
            <glyph unicode="&#68;" horiz-adv-x="682"
                   d="M284 725q348 0 348 -362q0 -363 -360 -363h-181v725zM195 93h69q68 0 117.5 15q49.5 15 82 47.5q32.5 32.5 48 84q15.5 51.5 15.5 123.5q0 143 -62.5 207q-62.5 64 -195.5 64l-74 0z"/>
            <glyph unicode="&#69;" horiz-adv-x="584" d="M538 725v-90h-342v-211h245v-89h-245v-242h358v-93h-462l0 725z"/>
            <glyph unicode="&#70;" horiz-adv-x="549" d="M530 725v-90h-336v-210h251v-91h-251v-334h-104l0 725z"/>
            <glyph unicode="&#71;" horiz-adv-x="664"
                   d="M487 513q-20 64 -59.5 98.5q-39.5 34.5 -95.5 34.5q-90 0 -137 -72q-47 -72 -47 -216q0 -135 50.5 -206.5q50.5 -71.5 136.5 -71.5q75 0 116.5 48.5q41.5 48.5 42.5 141.5l-154 0v89h260v-359h-82l-5 78q-68 -90 -189 -90q-66 0 -118 25q-52 25 -88.5 73q-36.5 48 -56 117q-19.5 69 -19.5 157q0 183 77 279q77 96 217 96q94 0 158.5 -51q64.5 -51 92.5 -148z"/>
            <glyph unicode="&#72;" horiz-adv-x="714" d="M194 725v-300h326v300h104v-725h-104v331h-326v-331h-104l0 725z"/>
            <glyph unicode="&#73;" horiz-adv-x="304" d="M203 725v-725h-104l0 725z"/>
            <glyph unicode="&#74;" horiz-adv-x="439"
                   d="M351 725v-525q0 -212 -187 -212q-107 0 -166 97l80 58q18 -32 37 -47.5q19 -15.5 47 -15.5q50 0 67.5 29.5q17.5 29.5 17.5 92.5l0 523z"/>
            <glyph unicode="&#75;" horiz-adv-x="639"
                   d="M195 725v-362l278 362h118l-217 -272l250 -453h-121l-198 366l-110 -137v-229h-104l0 725z"/>
            <glyph unicode="&#76;" horiz-adv-x="533" d="M196 725v-632h319v-93h-423l0 725z"/>
            <glyph unicode="&#77;" horiz-adv-x="841"
                   d="M245 725l131 -412q23 -73 46 -165q10 37 22 77.5q12 40.5 27 86.5l133 413h147v-725h-95v625q-21 -69 -33 -109q-12 -40 -16 -51l-150 -465h-74l-149 465q-8 27 -20.5 66.5q-12.5 39.5 -28.5 93.5l0 -625h-95l0 725z"/>
            <glyph unicode="&#78;" horiz-adv-x="714"
                   d="M217 725l231 -398q21 -37 42 -75.5q21 -38.5 41 -80.5q-2 32 -3 68q-1 36 -1 77v409h98v-725h-91l-261 434q-20 32 -42 73.5q-22 41.5 -48 92.5q2 -35 3 -73.5q1 -38.5 1 -80.5v-446h-98l0 725z"/>
            <glyph unicode="&#79;" horiz-adv-x="670"
                   d="M335 735q67 0 121 -25.5q54 -25.5 92 -73.5q38 -48 59 -117q21 -69 21 -157q0 -87 -21 -156.5q-21 -69.5 -59 -118q-38 -48.5 -92.5 -74q-54.5 -25.5 -120.5 -25.5q-67 0 -121 25.5q-54 25.5 -92.5 74q-38.5 48.5 -59 118q-20.5 69.5 -20.5 156.5q0 88 20.5 157q20.5 69 59 117q38.5 48 92.5 73.5q54 25.5 121 25.5zt0 0zM335 643q-88 0 -137 -71.5q-49 -71.5 -49 -209.5q0 -137 49 -209q49 -72 137 -72q88 0 137 72q49 72 49 209q0 137 -49 209t-137 72z"/>
            <glyph unicode="&#80;" horiz-adv-x="616"
                   d="M322 725q128 0 190.5 -50q62.5 -50 62.5 -156q0 -101 -60 -155q-60 -54 -175 -54h-146v-310h-104v725zM194 399h114q84 0 122.5 26q38.5 26 38.5 95q0 66 -39.5 91.5q-39.5 25.5 -124.5 25.5l-111 0z"/>
            <glyph unicode="&#81;" horiz-adv-x="670"
                   d="M489 190q32 63 32 172q0 137 -49.5 209q-49.5 72 -134.5 72q-89 0 -138.5 -72q-49.5 -72 -49.5 -210q0 -137 48.5 -208.5q48.5 -71.5 139.5 -71.5q56 0 98 32q-36 55 -86 61l0 98q41 -2 74.5 -21q33.5 -19 65.5 -61zt0 0zM553 96q40 -52 94 -55l0 -98h-6q-48 0 -86 21.5q-38 21.5 -70 66.5q-70 -43 -153 -43q-65 0 -118.5 25.5q-53.5 25.5 -91.5 74q-38 48.5 -59 118q-21 69.5 -21 156.5q0 87 21 156.5q21 69.5 58.5 117.5q37.5 48 90.5 73.5q53 25.5 116 25.5q69 0 124.5 -25q55.5 -25 94.5 -72.5q39 -47.5 60 -115q21 -67.5 21 -151.5q0 -86 -18 -153.5t-57 -121.5z"/>
            <glyph unicode="&#82;" horiz-adv-x="659"
                   d="M312 725q143 0 212.5 -48q69.5 -48 69.5 -155q0 -144 -143 -185l166 -337h-114l-151 313h-159v-313h-103v725zM193 402h120q89 0 132 27.5q43 27.5 43 89.5q0 66 -41.5 92q-41.5 26 -131.5 26l-122 0z"/>
            <glyph unicode="&#83;" horiz-adv-x="571"
                   d="M416 535q-20 57 -57.5 84.5q-37.5 27.5 -90.5 27.5q-48 0 -76 -25.5q-28 -25.5 -28 -64.5q0 -24 8.5 -43q8.5 -19 25.5 -34.5q17 -15.5 42.5 -29q25.5 -13.5 59.5 -27.5q43 -18 83 -35q40 -17 72 -44q71 -59 71 -149q0 -45 -16.5 -83q-16.5 -38 -47 -65.5q-30.5 -27.5 -73.5 -42.5q-43 -15 -96 -15q-97 0 -164 47q-67 47 -98 138l97 38q23 -65 66.5 -99q43.5 -34 101.5 -34q58 0 92 32q34 32 34 81q0 27 -11 46.5q-11 19.5 -32 35q-21 15.5 -52.5 29.5q-31.5 14 -71.5 31q-49 20 -86.5 40.5q-37.5 20.5 -62.5 44.5q-25 24 -37.5 54q-12.5 30 -12.5 69q0 41 16 76q16 35 45 61q29 26 69.5 41q40.5 15 90.5 15q88 0 148 -43.5q60 -43.5 85 -125.5z"/>
            <glyph unicode="&#84;" horiz-adv-x="554" d="M532 725v-92h-202v-633h-107v633h-202l0 92z"/>
            <glyph unicode="&#85;" horiz-adv-x="712"
                   d="M193 725v-459q0 -96 36.5 -141.5q36.5 -45.5 127.5 -45.5q92 0 127.5 46q35.5 46 35.5 141v459h103v-481q0 -127 -69 -191.5q-69 -64.5 -203 -64.5q-130 0 -196 67q-66 67 -66 200l0 470z"/>
            <glyph unicode="&#86;" horiz-adv-x="602" d="M117 725l182 -589h4l182 589h106l-233 -725h-115l-232 725z"/>
            <glyph unicode="&#87;" horiz-adv-x="926"
                   d="M123 725l110 -412q9 -35 17.5 -71.5q8.5 -36.5 15.5 -75.5l4 -1q8 45 17.5 81q9.5 36 17.5 65l112 414h93l111 -412q10 -36 17.5 -72.5q7.5 -36.5 14.5 -74.5l5 -1q7 35 15 71.5q8 36.5 19 74.5l111 414h104l-200 -725h-95l-112 407q-11 41 -20 79q-9 38 -17 74q-14 -61 -22.5 -98.5q-8.5 -37.5 -13.5 -53.5l-113 -408h-95l-200 725z"/>
            <glyph unicode="&#88;" horiz-adv-x="557"
                   d="M142 725l139 -253l136 253h111l-193 -342l216 -383h-119l-154 292l-158 -292h-111l214 378l-198 347z"/>
            <glyph unicode="&#89;" horiz-adv-x="554"
                   d="M121 725l158 -320l158 320h107l-214 -427v-298h-105v297l-216 428z"/>
            <glyph unicode="&#90;" horiz-adv-x="546" d="M508 725v-79l-361 -554h362v-92h-481v82l360 553h-330l0 90z"/>
            <glyph unicode="&#91;" horiz-adv-x="326" d="M296 725v-52h-126v-695h126v-52h-214l0 799z"/>
            <glyph unicode="&#92;" horiz-adv-x="272" d="M48 735l269 -828h-66l-269 828z"/>
            <glyph unicode="&#93;" horiz-adv-x="326" d="M244 725v-799h-214v52h126v695h-126l0 52z"/>
            <glyph unicode="&#94;" horiz-adv-x="1000" d="M794 440h-88l-206 205l-207 -205h-88l249 272l91 0z"/>
            <glyph unicode="&#95;" horiz-adv-x="500" d="M500 -236h-500v70l500 0z"/>
            <glyph unicode="&#96;" horiz-adv-x="500" d="M223 759l99 -175h-59l-145 175z"/>
            <glyph unicode="&#97;" horiz-adv-x="508"
                   d="M341 60q-73 -67 -161 -67q-66 0 -104.5 38.5q-38.5 38.5 -38.5 103.5q0 87 75.5 135q75.5 48 231.5 74l0 40q0 32 -25 51.5q-25 19.5 -68 19.5q-79 0 -121 -71l-73 42q32 56 81.5 81.5q49.5 25.5 120.5 25.5q83 0 130.5 -41q47.5 -41 47.5 -114v-299q0 -18 2.5 -36.5q2.5 -18.5 7.5 -36.5l0 -6h-96zM342 269q-107 -19 -159 -48.5q-52 -29.5 -52 -80.5q0 -32 19.5 -51q19.5 -19 54.5 -19q59 0 137 70z"/>
            <glyph unicode="&#98;" horiz-adv-x="542"
                   d="M169 725v-258q48 65 128 65q47 0 86 -18q39 -18 66.5 -52.5q27.5 -34.5 42.5 -84q15 -49.5 15 -112.5q0 -131 -55.5 -202.5q-55.5 -71.5 -153.5 -71.5q-87 0 -140 69l-15 -60h-74q4 39 5 75.5q1 36.5 1 71.5v578zM169 135q51 -65 114 -65q60 0 93.5 47.5q33.5 47.5 33.5 140.5q0 97 -33.5 146q-33.5 49 -96.5 49q-60 0 -111 -63z"/>
            <glyph unicode="&#99;" horiz-adv-x="476"
                   d="M359 362q-29 91 -109 91q-58 0 -89.5 -48.5q-31.5 -48.5 -31.5 -142.5q0 -191 122 -191q39 0 71.5 24q32.5 24 53.5 70l76 -40q-61 -134 -205 -134q-103 0 -158.5 68q-55.5 68 -55.5 197q0 66 15 117.5q15 51.5 43 87q28 35.5 67 54q39 18.5 87 18.5q75 0 125 -35.5q50 -35.5 74 -103.5z"/>
            <glyph unicode="&#100;" horiz-adv-x="542"
                   d="M467 725v-580q0 -45 2 -80.5q2 -35.5 5 -64.5l-74 0l-16 62q-55 -71 -143 -71q-47 0 -85 18.5q-38 18.5 -65 53.5q-27 35 -41.5 85.5q-14.5 50.5 -14.5 114.5q0 129 56 199q56 70 152 70q84 0 130 -64l0 257zM373 390q-52 64 -114 64q-60 0 -93.5 -48q-33.5 -48 -33.5 -141q0 -97 33 -145.5q33 -48.5 96 -48.5q63 0 112 64z"/>
            <glyph unicode="&#101;" horiz-adv-x="487"
                   d="M130 245v-10q0 -80 34 -122.5q34 -42.5 97 -42.5q82 0 127 82l70 -43q-66 -119 -202 -119q-108 0 -165 67.5q-57 67.5 -57 198.5q0 135 56.5 206q56.5 71 159.5 71q94 0 149.5 -68q55.5 -68 55.5 -193q0 -7 -0.5 -13.5q-0.5 -6.5 -0.5 -13.5zM358 318q-2 67 -31.5 103q-29.5 36 -79.5 36q-52 0 -82.5 -35.5q-30.5 -35.5 -33.5 -103.5z"/>
            <glyph unicode="&#102;" horiz-adv-x="288"
                   d="M287 648q-14 2 -26.5 3.5q-12.5 1.5 -21.5 1.5q-33 0 -47 -15.5q-14 -15.5 -14 -50.5v-63h105v-80h-105v-444h-94v444h-82v80h82v76q0 66 34.5 100.5q34.5 34.5 100.5 34.5q28 0 68 -8z"/>
            <glyph unicode="&#103;" horiz-adv-x="491"
                   d="M117 212q-70 49 -70 139q0 83 53 133q53 50 147 50q69 0 122 -41q46 48 96 48q4 0 7.5 -0.5q3.5 -0.5 8.5 -0.5l0 -78h-24q-33 0 -49 -15q14 -22 20 -45q6 -23 6 -50q0 -83 -51 -130.5q-51 -47.5 -141 -47.5q-35 0 -69 9q-38 -15 -38 -41q0 -25 27.5 -31.5q27.5 -6.5 83.5 -9.5q58 -3 101.5 -10q43.5 -7 72.5 -21.5q29 -14.5 43.5 -39.5q14.5 -25 14.5 -65q0 -76 -62 -115.5q-62 -39.5 -186 -39.5q-104 0 -157 33.5q-53 33.5 -53 95.5q0 38 21.5 61q21.5 23 67.5 40q-33 14 -49 32.5q-16 18.5 -16 45.5q0 55 73 94zt0 0zM187 23q-39 -15 -57.5 -32q-18.5 -17 -18.5 -41q0 -68 132 -68q68 0 104 21q36 21 36 54q0 32 -24.5 43.5q-24.5 11.5 -75.5 15.5zM137 355q0 -51 27.5 -79q27.5 -28 78.5 -28q49 0 76.5 28.5q27.5 28.5 27.5 76.5q0 48 -28.5 77q-28.5 29 -76.5 29q-49 0 -77 -28t-28 -76z"/>
            <glyph unicode="&#104;" horiz-adv-x="551"
                   d="M169 725v-270q83 76 163 76q71 0 109.5 -39.5q38.5 -39.5 38.5 -114.5v-377h-94v351q0 101 -81 101q-64 0 -136 -69l0 -383h-94l0 725z"/>
            <glyph unicode="&#105;" horiz-adv-x="251" d="M177 725v-101h-103v101zM173 524v-524h-94l0 524z"/>
            <glyph unicode="&#106;" horiz-adv-x="259"
                   d="M184 725v-101h-102v101zM180 524v-560q0 -78 -27 -116q-27 -38 -100 -38q-16 0 -29.5 2q-13.5 2 -27.5 6l0 81q15 -4 32 -4q35 0 46.5 15q11.5 15 11.5 52l0 562z"/>
            <glyph unicode="&#107;" horiz-adv-x="495"
                   d="M169 725v-444l201 243h105l-162 -189l178 -335h-104l-138 260l-80 -89v-171h-94l0 725z"/>
            <glyph unicode="&#108;" horiz-adv-x="251" d="M172 725v-725h-94l0 725z"/>
            <glyph unicode="&#109;" horiz-adv-x="829"
                   d="M452 450q42 43 81 63q39 20 90 20q63 0 99 -37q36 -37 36 -103v-393h-94v363q0 90 -73 90q-66 0 -128 -68l0 -385h-94v355q0 51 -16.5 74.5q-16.5 23.5 -55.5 23.5q-68 0 -129 -69l0 -384h-94v524h87v-71q38 42 77.5 61q39.5 19 88.5 19q45 0 76.5 -20.5t48.5 -62.5z"/>
            <glyph unicode="&#110;" horiz-adv-x="543"
                   d="M472 0h-95v351q0 101 -77 101q-62 0 -131 -69l0 -383h-94v524h87v-72q44 39 83 59q39 20 84 20q68 0 105.5 -39.5q37.5 -39.5 37.5 -114.5z"/>
            <glyph unicode="&#111;" horiz-adv-x="504"
                   d="M252 533q104 0 162 -70q58 -70 58 -201q0 -131 -58 -201.5q-58 -70.5 -162 -70.5q-104 0 -162.5 70.5q-58.5 70.5 -58.5 201.5q0 131 58.5 201q58.5 70 162.5 70zt0 0zM252 451q-124 0 -124 -189q0 -190 124 -190q60 0 92 47.5q32 47.5 32 141.5q0 190 -124 190z"/>
            <glyph unicode="&#112;" horiz-adv-x="543"
                   d="M168 133q54 -64 117 -64q61 0 95 48q34 48 34 141q0 97 -34 145.5q-34 48.5 -98 48.5q-63 0 -114 -64zM169 -190h-94v714h71l13 -62q28 34 61 52.5q33 18.5 78 18.5q98 0 155.5 -71.5q57.5 -71.5 57.5 -201.5q0 -130 -57 -199.5q-57 -69.5 -157 -69.5q-79 0 -128 62z"/>
            <glyph unicode="&#113;" horiz-adv-x="542"
                   d="M398 524h74q-6 -74 -6 -148v-566h-94v246q-23 -32 -56 -48.5q-33 -16.5 -72 -16.5q-47 0 -86 18q-39 18 -66.5 52.5q-27.5 34.5 -42.5 83.5q-15 49 -15 112q0 131 55.5 203.5q55.5 72.5 151.5 72.5q88 0 142 -70zM372 388q-51 65 -114 65q-60 0 -93.5 -47.5q-33.5 -47.5 -33.5 -140.5q0 -97 33.5 -146q33.5 -49 96.5 -49q61 0 111 63z"/>
            <glyph unicode="&#114;" horiz-adv-x="333"
                   d="M326 432h-8q-46 0 -84 -32.5q-38 -32.5 -62 -95.5l0 -304h-97v524h93v-105q52 112 142 112q4 0 7.5 0q3.5 0 8.5 -1z"/>
            <glyph unicode="&#115;" horiz-adv-x="437"
                   d="M328 392q-55 64 -117 64q-35 0 -55.5 -17q-20.5 -17 -20.5 -44q0 -31 24.5 -47q24.5 -16 71.5 -33q42 -16 74.5 -31.5q32.5 -15.5 54.5 -35q22 -19.5 33.5 -44q11.5 -24.5 11.5 -57.5q0 -35 -13 -64q-13 -29 -37.5 -49.5q-24.5 -20.5 -58.5 -32q-34 -11.5 -76 -11.5q-62 0 -113.5 26q-51.5 26 -86.5 76l69 55q31 -40 64 -60q33 -20 72 -20q40 0 63.5 20.5q23.5 20.5 23.5 51.5q0 22 -9.5 36q-9.5 14 -26 24q-16.5 10 -40.5 18.5q-24 8.5 -52 19.5q-72 28 -107.5 60.5q-35.5 32.5 -35.5 90.5q0 31 12 57.5q12 26.5 34 46q22 19.5 53 30.5q31 11 69 11q108 0 180 -84z"/>
            <glyph unicode="&#116;" horiz-adv-x="314"
                   d="M182 692v-168h115v-80h-115v-304q0 -35 11 -51q11 -16 48 -16q14 0 28 1q14 1 28 5l0 -79q-33 -10 -87 -10q-63 0 -92.5 27q-29.5 27 -29.5 84v343h-74v80h74l0 168z"/>
            <glyph unicode="&#117;" horiz-adv-x="543"
                   d="M166 524v-352q0 -52 17.5 -76.5q17.5 -24.5 59.5 -24.5q62 0 130 69l0 384h95v-524h-88v71q-44 -39 -83.5 -59q-39.5 -20 -84.5 -20q-67 0 -104 39.5q-37 39.5 -37 114.5l0 378z"/>
            <glyph unicode="&#118;" horiz-adv-x="467"
                   d="M103 524l98 -313q5 -14 12.5 -41.5q7.5 -27.5 18.5 -68.5q8 34 16 61q8 27 15 49l99 313h95l-171 -524h-107l-171 524z"/>
            <glyph unicode="&#119;" horiz-adv-x="735"
                   d="M112 524l81 -296q2 -7 7.5 -35q5.5 -28 16.5 -76q5 32 12 57q7 25 12 45l83 305h86l81 -296q2 -8 8.5 -35.5q6.5 -27.5 16.5 -75.5q9 48 24 102l82 305h93l-149 -524h-98l-74 265q-7 25 -14 51.5q-7 26.5 -13 56.5q-10 -43 -16.5 -69q-6.5 -26 -9.5 -37l-76 -267h-97l-149 524z"/>
            <glyph unicode="&#120;" horiz-adv-x="443"
                   d="M124 524l96 -174l97 174h99l-145 -249l164 -275h-106l-111 204l-112 -204h-100l163 275l-150 249z"/>
            <glyph unicode="&#121;" horiz-adv-x="467"
                   d="M103 524l136 -386l124 386h94l-173 -516q-16 -49 -32.5 -86q-16.5 -37 -38.5 -62q-22 -25 -51 -37.5q-29 -12.5 -71 -12.5q-15 0 -28.5 1q-13.5 1 -27.5 5l0 83q11 -3 22.5 -4q11.5 -1 23.5 -1q49 0 74 27.5q25 27.5 39 89.5l-186 513z"/>
            <glyph unicode="&#122;" horiz-adv-x="441" d="M413 524v-69l-274 -374h274v-81h-391v69l275 376h-249l0 79z"/>
            <glyph unicode="&#123;" horiz-adv-x="500"
                   d="M403 648q-31 0 -50.5 -5.5q-19.5 -5.5 -30 -18.5q-10.5 -13 -14.5 -34.5q-4 -21.5 -4 -53.5v-118q0 -35 -4 -61q-4 -26 -14.5 -45.5q-10.5 -19.5 -30 -32q-19.5 -12.5 -49.5 -20.5q31 -8 50 -20.5q19 -12.5 29.5 -32q10.5 -19.5 14.5 -45.5q4 -26 4 -61v-118q0 -32 3.5 -53.5q3.5 -21.5 14.5 -34.5q11 -13 30.5 -18.5q19.5 -5.5 51.5 -5.5h19v-72h-21q-44 0 -76.5 4.5q-32.5 4.5 -56.5 19.5q-33 20 -41 56.5q-8 36.5 -8 93.5v120q0 71 -26 101.5q-26 30.5 -91 30.5q-5 0 -10.5 -0.5q-5.5 -0.5 -10.5 -0.5l0 73q6 0 11.5 -0.5q5.5 -0.5 10.5 -0.5q64 0 90 30q26 30 26 101v120q0 57 8 93.5q8 36.5 41 56.5q25 15 58 20q33 5 78 5h18l0 -73z"/>
            <glyph unicode="&#124;" horiz-adv-x="500" d="M287 -236h-73v1000l73 0z"/>
            <glyph unicode="&#125;" horiz-adv-x="500"
                   d="M281 426q0 -36 6 -60.5q6 -24.5 19.5 -40.5q13.5 -16 36 -23q22.5 -7 54.5 -7q5 0 10.5 0.5q5.5 0.5 11.5 0.5l0 -73q-5 0 -10.5 0.5q-5.5 0.5 -10.5 0.5q-66 0 -91.5 -30.5q-25.5 -30.5 -25.5 -101.5v-120q0 -57 -8 -93.5q-8 -36.5 -41 -56.5q-24 -15 -56.5 -19.5q-32.5 -4.5 -76.5 -4.5h-21v72h19q31 0 51 5.5q20 5.5 30.5 18.5q10.5 13 14.5 35q4 22 4 54v117q0 35 4 61q4 26 14.5 45.5q10.5 19.5 30 32q19.5 12.5 49.5 20.5q-30 8 -49.5 20.5q-19.5 12.5 -30 32q-10.5 19.5 -14.5 45.5q-4 26 -4 61v118q0 32 -4 53.5q-4 21.5 -14.5 34.5q-10.5 13 -30.5 18.5q-20 5.5 -51 5.5h-19v73h18q45 0 78.5 -5q33.5 -5 57.5 -20q33 -20 41 -56.5q8 -36.5 8 -93.5z"/>
            <glyph unicode="&#126;" horiz-adv-x="833"
                   d="M747 300q-50 -35 -96 -52q-46 -17 -94 -17q-38 0 -72 11q-34 11 -69 23q-35 12 -69 22q-34 10 -72 10q-45 0 -89.5 -19.5q-44.5 -19.5 -98.5 -57.5l0 76q103 70 189 70q39 0 73.5 -9q34.5 -9 68.5 -21q37 -13 71 -24.5q34 -11.5 69 -11.5q47 0 92 19.5q45 19.5 97 56.5l0 -76z"/>
            <glyph unicode="&#160;" horiz-adv-x="301"/>
            <glyph unicode="&#161;" horiz-adv-x="316" d="M213 725v-127h-114v127zM190 487l24 -487h-116l24 487z"/>
            <glyph unicode="&#162;" horiz-adv-x="604"
                   d="M469 640l-46 -128q53 -36 83 -109l-85 -34q-12 37 -32 55l-122 -337q19 -6 41 -6q86 0 127 92l79 -40q-59 -134 -210 -134q-18 0 -33.5 2.5q-15.5 2.5 -30.5 7.5l-42 -119h-63l53 147q-47 30 -73 89q-26 59 -26 141q0 131 60 203.5q60 72.5 165 72.5q12 0 25.5 -2q13.5 -2 29.5 -6l37 105zM341 456q-24 8 -38 8q-54 0 -86 -50.5q-32 -50.5 -32 -146.5q0 -90 36 -142z"/>
            <glyph unicode="&#163;" horiz-adv-x="604"
                   d="M460 527q-6 58 -41 91q-35 33 -87 33q-55 0 -85.5 -33q-30.5 -33 -30.5 -96q0 -35 12 -125l142 0v-74h-133v-31q0 -44 -6.5 -81q-6.5 -37 -21.5 -70q42 -31 81.5 -46q39.5 -15 72.5 -15q105 0 116 119l93 -8q-6 -99 -56.5 -151q-50.5 -52 -136.5 -52q-53 0 -106 18q-53 18 -106 56q-49 -61 -134 -73l0 100q105 31 105 174q0 14 -0.5 28.5q-0.5 14.5 -1.5 31.5l-104 0v74h98q-13 77 -13 123q0 49 15 89q15 40 42.5 68q27.5 28 67 43q39.5 15 87.5 15q97 0 154.5 -51.5q57.5 -51.5 70.5 -148.5z"/>
            <glyph unicode="&#164;" horiz-adv-x="604"
                   d="M112 578l86 -86q46 31 104 31q59 0 105 -31l86 86l55 -53l-87 -88q30 -47 30 -103q0 -28 -8 -54.5q-8 -26.5 -22 -48.5l86 -86l-54 -55l-86 86q-23 -15 -47.5 -23q-24.5 -8 -56.5 -8q-59 0 -105 31l-86 -86l-55 55l87 86q-13 19 -21.5 45q-8.5 26 -8.5 58q0 58 30 103l-88 88zM413 335q0 22 -9 42q-9 20 -24 35q-15 15 -35 24q-20 9 -42 9q-23 0 -43 -9q-20 -9 -35 -24q-15 -15 -24 -35q-9 -20 -9 -42q0 -23 9 -43.5q9 -20.5 24 -35.5q15 -15 35 -24q20 -9 43 -9q22 0 42 9q20 9 35 24q15 15 24 35.5t9 43.5z"/>
            <glyph unicode="&#165;" horiz-adv-x="604"
                   d="M143 723l161 -333l161 333h98l-112 -222h118v-55h-146l-45 -90h191v-55h-221v-301h-93v301h-222v55h193l-45 90h-148v55h120l-113 222z"/>
            <glyph unicode="&#166;" horiz-adv-x="500" d="M287 329h-73v370h73zM287 -171h-73v370l73 0z"/>
            <glyph unicode="&#167;" horiz-adv-x="500"
                   d="M338 611q-41 57 -84 57q-24 0 -39 -14q-15 -14 -15 -38q0 -28 22.5 -54q22.5 -26 58.5 -63l74 -74q42 -42 63.5 -79q21.5 -37 21.5 -81q0 -44 -29.5 -72q-29.5 -28 -81.5 -33q56 -59 56 -126q0 -57 -38 -91.5q-38 -34.5 -98 -34.5q-46 0 -86 22.5q-40 22.5 -69 65.5l58 43q23 -30 46.5 -45q23.5 -15 45.5 -15q27 0 42.5 14.5q15.5 14.5 15.5 43.5q0 32 -28 65.5q-28 33.5 -74 82.5l-74 79q-32 34 -47.5 65q-15.5 31 -15.5 65q0 46 29 75.5q29 29.5 80 33.5q-27 30 -40.5 57q-13.5 27 -13.5 56q0 53 36.5 86q36.5 33 98.5 33q42 0 79.5 -20.5q37.5 -20.5 63.5 -61.5zM187 449q-20 0 -34 -14.5q-14 -14.5 -14 -35.5q0 -20 15.5 -43q15.5 -23 44.5 -55q38 -42 65.5 -63.5q27.5 -21.5 49.5 -21.5q20 0 34 13.5q14 13.5 14 34.5q0 19 -12 38.5q-12 19.5 -34 44.5q-44 51 -74 76.5t-55 25.5z"/>
            <glyph unicode="&#168;" horiz-adv-x="500" d="M215 725v-101h-93v101zM378 725v-101h-93l0 101z"/>
            <glyph unicode="&#169;" horiz-adv-x="833"
                   d="M416 715q74 0 139 -26.5q65 -26.5 117 -78.5q51 -51 78 -116.5q27 -65.5 27 -138.5q0 -74 -26.5 -138q-26.5 -64 -77.5 -114q-54 -52 -119.5 -80q-65.5 -28 -137.5 -28q-72 0 -136.5 27.5q-64.5 27.5 -116.5 79.5q-52 52 -79 116.5q-27 64.5 -27 136.5q0 72 27 137q27 65 80 119q51 51 115 77.5q64 26.5 137 26.5zt0 0zM729 355q0 64 -23 120.5q-23 56.5 -67 100.5q-92 92 -222 92q-64 0 -119.5 -23q-55.5 -23 -99.5 -67q-46 -46 -70 -103.5q-24 -57.5 -24 -119.5q0 -62 24 -118.5q24 -56.5 69 -101.5q45 -45 101 -68.5q56 -23.5 119 -23.5q62 0 118.5 24q56.5 24 103.5 69q44 43 67 98.5q23 55.5 23 120.5zt0 0zM514 443q-6 38 -32 58q-26 20 -68 20q-50 0 -80 -42.5q-30 -42.5 -30 -123.5q0 -78 30.5 -120q30.5 -42 84.5 -42q40 0 66.5 22.5q26.5 22.5 33.5 63.5l71 0q-5 -64 -52.5 -103.5q-47.5 -39.5 -121.5 -39.5q-88 0 -139 58q-51 58 -51 164q0 49 14 89.5q14 40.5 39.5 68.5q25.5 28 61 43.5q35.5 15.5 78.5 15.5q35 0 64.5 -9.5q29.5 -9.5 51.5 -27q22 -17.5 35 -42q13 -24.5 16 -53.5z"/>
            <glyph unicode="&#170;" horiz-adv-x="381"
                   d="M256 401q-55 -47 -121 -47q-50 0 -78.5 27q-28.5 27 -28.5 72q0 61 56.5 95q56.5 34 173.5 52l0 28q0 23 -19 36q-19 13 -51 13q-59 0 -90 -49l-55 29q24 39 61 57q37 18 90 18q63 0 98.5 -28.5q35.5 -28.5 35.5 -79.5v-210q0 -13 2 -25.5q2 -12.5 5 -25.5l0 -4h-72zM257 547q-81 -13 -120 -34q-39 -21 -39 -56q0 -23 15 -36q15 -13 41 -13q43 0 103 49z"/>
            <glyph unicode="&#171;" horiz-adv-x="520"
                   d="M274 418l-123 -156l122 -157h-94l-120 157l124 156zM447 418l-122 -156l121 -157h-93l-121 157l124 156z"/>
            <glyph unicode="&#172;" horiz-adv-x="833" d="M709 175h-67v177h-518v68l585 0z"/>
            <glyph unicode="&#173;" horiz-adv-x="330" d="M280 304v-85h-235l0 85z"/>
            <glyph unicode="&#174;" horiz-adv-x="833"
                   d="M416 715q74 0 139.5 -27q65.5 -27 117.5 -80q50 -51 77 -116q27 -65 27 -137q0 -75 -27 -139q-27 -64 -78 -114q-54 -52 -119.5 -79.5q-65.5 -27.5 -136.5 -27.5q-72 0 -137 27.5q-65 27.5 -117 80.5q-51 52 -78 116q-27 64 -27 136q0 72 28 138q28 66 81 120q50 51 113.5 76.5q63.5 25.5 136.5 25.5zt0 0zM729 352q0 66 -22.5 122.5q-22.5 56.5 -66.5 100.5q-45 46 -101.5 69.5q-56.5 23.5 -121.5 23.5q-63 0 -119 -22.5q-56 -22.5 -99 -66.5q-46 -47 -70.5 -104.5q-24.5 -57.5 -24.5 -119.5q0 -62 23.5 -118q23.5 -56 68.5 -101q45 -45 101.5 -69q56.5 -24 116.5 -24q64 0 120.5 23.5q56.5 23.5 103.5 68.5q45 43 68 98.5q23 55.5 23 118.5zt0 0zM426 566q170 0 170 -112q0 -44 -24 -72.5q-24 -28.5 -69 -37.5l91 -186h-86l-83 174h-76v-174h-77v408zM349 516v-135h65q53 0 78 14.5q25 14.5 25 50.5q0 38 -25.5 54q-25.5 16 -79.5 16z"/>
            <glyph unicode="&#175;" horiz-adv-x="500" d="M382 708v-68h-264l0 68z"/>
            <glyph unicode="&#176;" horiz-adv-x="329"
                   d="M165 711q29 0 54.5 -11q25.5 -11 44.5 -30q19 -19 30 -45q11 -26 11 -55q0 -29 -11 -54q-11 -25 -29.5 -44.5q-18.5 -19.5 -44.5 -30.5q-26 -11 -56 -11q-30 0 -55.5 11q-25.5 11 -44 30q-18.5 19 -29.5 44.5q-11 25.5 -11 54.5q0 30 11 55.5q11 25.5 30.5 44.5q19.5 19 45 30q25.5 11 54.5 11zt0 0zM259 571q0 39 -27 66.5q-27 27.5 -67 27.5q-20 0 -37 -7q-17 -7 -30 -20q-13 -13 -20.5 -30q-7.5 -17 -7.5 -37q0 -40 27.5 -68q27.5 -28 67.5 -28q20 0 37.5 7.5q17.5 7.5 30 21q12.5 13.5 19.5 30.5t7 37z"/>
            <glyph unicode="&#177;" horiz-adv-x="833"
                   d="M451 416h258v-68h-258v-166h-69v166h-258v68h258v166h69zM709 14h-585v69l585 0z"/>
            <glyph unicode="&#178;" horiz-adv-x="399"
                   d="M346 342v-53h-312v57q38 65 107 114q31 22 56.5 40q25.5 18 43.5 35q18 17 28 35q10 18 10 39q0 32 -21.5 51.5q-21.5 19.5 -57.5 19.5q-40 0 -66 -21.5q-26 -21.5 -34 -61.5l-62 12q13 58 55 89.5q42 31.5 104 31.5q70 0 109.5 -33.5q39.5 -33.5 39.5 -90.5q0 -48 -33 -83q-33 -35 -93 -75q-46 -32 -77 -56.5q-31 -24.5 -43 -49.5z"/>
            <glyph unicode="&#179;" horiz-adv-x="399"
                   d="M261 524q87 -27 87 -113q0 -58 -42.5 -93.5q-42.5 -35.5 -116.5 -35.5q-116 0 -171 86l54 31q43 -66 113 -66q45 0 70.5 21q25.5 21 25.5 59q0 43 -34 62.5q-34 19.5 -106 19.5q-5 0 -9.5 0q-4.5 0 -10.5 -1l0 52q9 0 15 -0.5q6 -0.5 9 -0.5q123 0 123 73q0 29 -21.5 45.5q-21.5 16.5 -62.5 16.5q-57 0 -97 -52l-47 33q57 69 151 69q67 0 104.5 -29.5q37.5 -29.5 37.5 -80.5q0 -68 -72 -96z"/>
            <glyph unicode="&#180;" horiz-adv-x="500" d="M382 759l-145 -175h-59l99 175z"/>
            <glyph unicode="&#181;" horiz-adv-x="562"
                   d="M125 230q-7 -31 -7 -65q0 -49 25.5 -75q25.5 -26 72.5 -26q67 0 103.5 48q36.5 48 58.5 149l56 262h87l-76 -357q-5 -22 -8 -38q-3 -16 -3 -27q0 -18 8 -25.5q8 -7.5 27 -7.5q4 0 7.5 0q3.5 0 8.5 1l-15 -70q-14 -3 -27 -4q-13 -1 -26 -1q-32 0 -48 14.5q-16 14.5 -25 48.5q-43 -64 -132 -64q-40 0 -69.5 13.5q-29.5 13.5 -55.5 43.5l-54 -259h-88l155 732l88 0z"/>
            <glyph unicode="&#182;" horiz-adv-x="500"
                   d="M409 680v-680h-54v680h-87v-680h-54v382q-85 4 -133.5 50.5q-48.5 46.5 -48.5 119.5q0 37 13.5 68.5q13.5 31.5 38.5 54q25 22.5 60.5 35q35.5 12.5 79.5 12.5h244l0 -42z"/>
            <glyph unicode="&#183;" horiz-adv-x="302"
                   d="M151 428q29 0 49.5 -20q20.5 -20 20.5 -49q0 -29 -20.5 -49.5q-20.5 -20.5 -49.5 -20.5q-29 0 -49.5 20q-20.5 20 -20.5 50q0 29 20.5 49t49.5 20z"/>
            <glyph unicode="&#184;" horiz-adv-x="500"
                   d="M271 0v-48h10q55 0 83.5 -22q28.5 -22 28.5 -64q0 -96 -125 -96q-22 0 -53.5 4.5q-31.5 4.5 -72.5 15.5l0 52q80 -19 123 -19q54 0 54 38q0 23 -15.5 32.5q-15.5 9.5 -49.5 9.5q-6 0 -12 0q-6 0 -13 -1l0 98z"/>
            <glyph unicode="&#185;" horiz-adv-x="398"
                   d="M233 730v-392h77v-49h-218v49h78v327l-86 -6v39q29 5 55 13.5q26 8.5 49 18.5z"/>
            <glyph unicode="&#186;" horiz-adv-x="378"
                   d="M189 732q78 0 121.5 -49.5q43.5 -49.5 43.5 -140.5q0 -91 -43.5 -140.5q-43.5 -49.5 -121.5 -49.5q-78 0 -122 49.5q-44 49.5 -44 140.5q0 91 44 140.5q44 49.5 122 49.5zt0 0zM189 675q-93 0 -93 -133q0 -133 93 -133q45 0 69 33.5q24 33.5 24 99.5q0 133 -93 133z"/>
            <glyph unicode="&#187;" horiz-adv-x="520"
                   d="M165 418l121 -157l-124 -157h-92l123 157l-121 157zM340 418l120 -157l-124 -157h-91l123 157l-122 157z"/>
            <glyph unicode="&#188;" horiz-adv-x="928"
                   d="M223 730v-367h73v-45h-208v45h74v306l-81 -6v36q56 12 98 31zM713 735l-439 -747h-61l439 747zM830 405v-265h71v-45h-71v-100h-59v100h-204v47l189 263zM623 139h149l0 211z"/>
            <glyph unicode="&#189;" horiz-adv-x="928"
                   d="M223 730v-367h73v-45h-208v45h74v306l-81 -6v36q56 12 98 31zM713 735l-439 -747h-61l439 747zM877 49v-49h-297v53q35 62 102 107q30 20 54 36.5q24 16.5 41 32.5q17 16 26.5 32.5q9.5 16.5 9.5 36.5q0 30 -20.5 48.5q-20.5 18.5 -54.5 18.5q-38 0 -63 -20q-25 -20 -32 -57l-59 10q12 54 52 84q40 30 99 30q67 0 104.5 -31.5q37.5 -31.5 37.5 -84.5q0 -45 -31.5 -77.5q-31.5 -32.5 -88.5 -70.5q-44 -29 -73.5 -52.5q-29.5 -23.5 -41.5 -46.5z"/>
            <glyph unicode="&#190;" horiz-adv-x="928"
                   d="M249 537q83 -26 83 -105q0 -54 -40.5 -87.5q-40.5 -33.5 -111.5 -33.5q-109 0 -162 80l51 30q41 -62 108 -62q42 0 66.5 20q24.5 20 24.5 55q0 40 -32.5 58q-32.5 18 -100.5 18h-19v48q8 0 14 -0.5q6 -0.5 8 -0.5q118 0 118 68q0 27 -21 42.5q-21 15.5 -59 15.5q-56 0 -93 -49l-45 31q54 65 145 65q63 0 99 -28q36 -28 36 -75q0 -64 -69 -90zt0 0zM714 735l-439 -747h-61l439 747zM831 405v-265h71v-45h-71v-100h-59v100h-204v47l189 263zM624 139h149l0 211z"/>
            <glyph unicode="&#191;" horiz-adv-x="439"
                   d="M300 725v-125h-115v125zM285 487q1 -9 1 -17.5q0 -8.5 0 -16.5q0 -40 -7.5 -71q-7.5 -31 -29.5 -62q-20 -27 -38.5 -50q-18.5 -23 -32.5 -44q-14 -21 -23 -41q-9 -20 -9 -42q0 -33 20.5 -53.5q20.5 -20.5 52.5 -20.5q62 0 92 85l86 -34q-23 -64 -69 -97.5q-46 -33.5 -111 -33.5q-38 0 -69 11.5q-31 11.5 -53.5 32.5q-22.5 21 -35 49.5q-12.5 28.5 -12.5 63.5q0 35 11 61.5q11 26.5 28 53.5q16 26 40 49.5q24 23.5 43 52.5q17 25 22.5 49.5q5.5 24.5 5.5 55.5l0 19z"/>
            <glyph unicode="&#192;" horiz-adv-x="609"
                   d="M376 725l221 -725h-107l-57 196h-261l-56 -196h-105l222 725zM197 284h209l-99 354h-8zM278 962l99 -175h-59l-145 175z"/>
            <glyph unicode="&#193;" horiz-adv-x="609"
                   d="M376 725l221 -725h-107l-57 196h-261l-56 -196h-105l222 725zM197 284h209l-99 354h-8zM437 962l-145 -175h-59l99 175z"/>
            <glyph unicode="&#194;" horiz-adv-x="609"
                   d="M376 725l221 -725h-107l-57 196h-261l-56 -196h-105l222 725zM197 284h209l-99 354h-8zM355 962l96 -175h-60l-86 113l-87 -113h-59l96 175z"/>
            <glyph unicode="&#195;" horiz-adv-x="609"
                   d="M376 725l221 -725h-107l-57 196h-261l-56 -196h-105l222 725zM197 284h209l-99 354h-8zM452 926q-26 -105 -99 -105q-19 0 -33 5l-41 13q-8 3 -15.5 4q-7.5 1 -11.5 1q-34 0 -47 -35l-48 0q22 102 98 102q9 0 17.5 -1q8.5 -1 17.5 -4l41 -13q17 -5 28 -5q34 0 46 38z"/>
            <glyph unicode="&#196;" horiz-adv-x="609"
                   d="M376 725l221 -725h-107l-57 196h-261l-56 -196h-105l222 725zM197 284h209l-99 354h-8zM250 820h-101v101h101zM456 820h-101v101l101 0z"/>
            <glyph unicode="&#197;" horiz-adv-x="609"
                   d="M269 718q-87 36 -87 120q0 26 9.5 49q9.5 23 26.5 40q17 17 40 26.5q23 9.5 49 9.5q26 0 49 -9.5q23 -9.5 40 -26.5q17 -17 26.5 -40q9.5 -23 9.5 -49q0 -84 -88 -120l34 0l219 -718h-107l-57 196h-261l-56 -196h-105l220 718zM197 284h209l-99 354h-8zM307 903q-28 0 -46.5 -18.5q-18.5 -18.5 -18.5 -46.5q0 -28 18.5 -46.5q18.5 -18.5 46.5 -18.5q28 0 46.5 18.5q18.5 18.5 18.5 46.5q0 27 -19 46t-46 19z"/>
            <glyph unicode="&#198;" horiz-adv-x="882"
                   d="M825 725v-90h-319v-211h227v-89h-227v-242h335v-93h-435v196h-237l-88 -196h-107l331 725zM207 284h199v351l-44 0z"/>
            <glyph unicode="&#199;" horiz-adv-x="610"
                   d="M474 507q-32 140 -154 140q-81 0 -126.5 -72.5q-45.5 -72.5 -45.5 -214.5q0 -140 46 -210q46 -70 133 -70q62 0 104.5 37.5q42.5 37.5 56.5 108.5l96 -24q-56 -211 -254 -214l0 -36h10q55 0 83.5 -22q28.5 -22 28.5 -64q0 -96 -125 -96q-22 0 -53.5 4.5q-31.5 4.5 -72.5 15.5l0 52q80 -19 123 -19q54 0 54 38q0 23 -15.5 32.5q-15.5 9.5 -49.5 9.5q-6 0 -12 0q-6 0 -13 -1l0 88q-120 12 -183 105.5q-63 93.5 -63 265.5q0 90 19.5 159.5q19.5 69.5 56 117q36.5 47.5 89 72.5q52.5 25 117.5 25q100 0 162 -51.5q62 -51.5 85 -152.5z"/>
            <glyph unicode="&#200;" horiz-adv-x="584"
                   d="M538 725v-90h-342v-211h245v-89h-245v-242h358v-93h-462v725zM277 962l99 -175h-59l-145 175z"/>
            <glyph unicode="&#201;" horiz-adv-x="584"
                   d="M538 725v-90h-342v-211h245v-89h-245v-242h358v-93h-462v725zM436 962l-145 -175h-59l99 175z"/>
            <glyph unicode="&#202;" horiz-adv-x="584"
                   d="M538 725v-90h-342v-211h245v-89h-245v-242h358v-93h-462v725zM354 962l96 -175h-60l-86 113l-87 -113h-59l96 175z"/>
            <glyph unicode="&#203;" horiz-adv-x="584"
                   d="M538 725v-90h-342v-211h245v-89h-245v-242h358v-93h-462v725zM267 820h-101v101h101zM473 820h-101v101l101 0z"/>
            <glyph unicode="&#204;" horiz-adv-x="304" d="M203 725v-725h-104v725zM125 962l99 -175h-59l-145 175z"/>
            <glyph unicode="&#205;" horiz-adv-x="304" d="M203 725v-725h-104v725zM284 962l-145 -175h-59l99 175z"/>
            <glyph unicode="&#206;" horiz-adv-x="304"
                   d="M203 725v-725h-104v725zM202 962l96 -175h-60l-86 113l-87 -113h-59l96 175z"/>
            <glyph unicode="&#207;" horiz-adv-x="304"
                   d="M203 725v-725h-104v725zM117 920v-101h-93v101zM280 920v-101h-93l0 101z"/>
            <glyph unicode="&#208;" horiz-adv-x="686"
                   d="M289 725q348 0 348 -362q0 -363 -360 -363h-182v346h-93v65h93v314zM199 411h150v-65h-150v-253h69q68 0 117.5 15q49.5 15 82 47.5q32.5 32.5 48 84q15.5 51.5 15.5 123.5q0 143 -62 207q-62 64 -195 64l-75 0z"/>
            <glyph unicode="&#209;" horiz-adv-x="714"
                   d="M217 725l231 -398q21 -37 42 -75.5q21 -38.5 41 -80.5q-2 32 -3 68q-1 36 -1 77v409h98v-725h-91l-261 434q-20 32 -42 73.5q-22 41.5 -48 92.5q2 -35 3 -73.5q1 -38.5 1 -80.5v-446h-98v725zM504 926q-26 -105 -99 -105q-19 0 -33 5l-41 13q-8 3 -15.5 4q-7.5 1 -11.5 1q-34 0 -47 -35l-48 0q22 102 98 102q9 0 17.5 -1q8.5 -1 17.5 -4l41 -13q17 -5 28 -5q34 0 46 38z"/>
            <glyph unicode="&#210;" horiz-adv-x="670"
                   d="M335 735q67 0 121 -25.5q54 -25.5 92 -73.5q38 -48 59 -117q21 -69 21 -157q0 -87 -21 -156.5q-21 -69.5 -59 -118q-38 -48.5 -92.5 -74q-54.5 -25.5 -120.5 -25.5q-67 0 -121 25.5q-54 25.5 -92.5 74q-38.5 48.5 -59 118q-20.5 69.5 -20.5 156.5q0 88 20.5 157q20.5 69 59 117q38.5 48 92.5 73.5q54 25.5 121 25.5zt0 0zM335 643q-88 0 -137 -71.5q-49 -71.5 -49 -209.5q0 -137 49 -209q49 -72 137 -72q88 0 137 72q49 72 49 209q0 137 -49 209q-49 72 -137 72zt0 0zM308 962l99 -175h-59l-145 175z"/>
            <glyph unicode="&#211;" horiz-adv-x="670"
                   d="M335 735q67 0 121 -25.5q54 -25.5 92 -73.5q38 -48 59 -117q21 -69 21 -157q0 -87 -21 -156.5q-21 -69.5 -59 -118q-38 -48.5 -92.5 -74q-54.5 -25.5 -120.5 -25.5q-67 0 -121 25.5q-54 25.5 -92.5 74q-38.5 48.5 -59 118q-20.5 69.5 -20.5 156.5q0 88 20.5 157q20.5 69 59 117q38.5 48 92.5 73.5q54 25.5 121 25.5zt0 0zM335 643q-88 0 -137 -71.5q-49 -71.5 -49 -209.5q0 -137 49 -209q49 -72 137 -72q88 0 137 72q49 72 49 209q0 137 -49 209q-49 72 -137 72zt0 0zM467 962l-145 -175h-59l99 175z"/>
            <glyph unicode="&#212;" horiz-adv-x="670"
                   d="M335 735q67 0 121 -25.5q54 -25.5 92 -73.5q38 -48 59 -117q21 -69 21 -157q0 -87 -21 -156.5q-21 -69.5 -59 -118q-38 -48.5 -92.5 -74q-54.5 -25.5 -120.5 -25.5q-67 0 -121 25.5q-54 25.5 -92.5 74q-38.5 48.5 -59 118q-20.5 69.5 -20.5 156.5q0 88 20.5 157q20.5 69 59 117q38.5 48 92.5 73.5q54 25.5 121 25.5zt0 0zM335 643q-88 0 -137 -71.5q-49 -71.5 -49 -209.5q0 -137 49 -209q49 -72 137 -72q88 0 137 72q49 72 49 209q0 137 -49 209q-49 72 -137 72zt0 0zM385 962l96 -175h-60l-86 113l-87 -113h-59l96 175z"/>
            <glyph unicode="&#213;" horiz-adv-x="670"
                   d="M335 735q67 0 121 -25.5q54 -25.5 92 -73.5q38 -48 59 -117q21 -69 21 -157q0 -87 -21 -156.5q-21 -69.5 -59 -118q-38 -48.5 -92.5 -74q-54.5 -25.5 -120.5 -25.5q-67 0 -121 25.5q-54 25.5 -92.5 74q-38.5 48.5 -59 118q-20.5 69.5 -20.5 156.5q0 88 20.5 157q20.5 69 59 117q38.5 48 92.5 73.5q54 25.5 121 25.5zt0 0zM335 643q-88 0 -137 -71.5q-49 -71.5 -49 -209.5q0 -137 49 -209q49 -72 137 -72q88 0 137 72q49 72 49 209q0 137 -49 209q-49 72 -137 72zt0 0zM482 926q-26 -105 -99 -105q-19 0 -33 5l-41 13q-8 3 -15.5 4q-7.5 1 -11.5 1q-34 0 -47 -35l-48 0q22 102 98 102q9 0 17.5 -1q8.5 -1 17.5 -4l41 -13q17 -5 28 -5q34 0 46 38z"/>
            <glyph unicode="&#214;" horiz-adv-x="670"
                   d="M335 735q67 0 121 -25.5q54 -25.5 92 -73.5q38 -48 59 -117q21 -69 21 -157q0 -87 -21 -156.5q-21 -69.5 -59 -118q-38 -48.5 -92.5 -74q-54.5 -25.5 -120.5 -25.5q-67 0 -121 25.5q-54 25.5 -92.5 74q-38.5 48.5 -59 118q-20.5 69.5 -20.5 156.5q0 88 20.5 157q20.5 69 59 117q38.5 48 92.5 73.5q54 25.5 121 25.5zt0 0zM335 643q-88 0 -137 -71.5q-49 -71.5 -49 -209.5q0 -137 49 -209q49 -72 137 -72q88 0 137 72q49 72 49 209q0 137 -49 209q-49 72 -137 72zt0 0zM282 820h-101v101h101zM488 820h-101v101l101 0z"/>
            <glyph unicode="&#215;" horiz-adv-x="833"
                   d="M649 575l48 -48l-229 -229l229 -229l-48 -47l-229 228l-229 -228l-48 47l229 229l-229 229l48 48l229 -229z"/>
            <glyph unicode="&#216;" horiz-adv-x="670"
                   d="M614 730l-63 -99q36 -46 56.5 -114.5q20.5 -68.5 20.5 -159.5q0 -85 -21 -153.5q-21 -68.5 -59.5 -116.5q-38.5 -48 -92.5 -73.5q-54 -25.5 -120 -25.5q-100 0 -166 54l-65 -103l-65 42l75 118q-72 105 -72 264q0 86 21 155q21 69 59 117q38 48 90.5 74q52.5 26 115.5 26q51 0 91 -11q40 -11 75 -37l55 85zM220 127q44 -46 117 -46q85 0 134.5 70.5q49.5 70.5 49.5 200.5q0 54 -7.5 101q-7.5 47 -24.5 89zM445 603q-44 40 -110 40q-89 0 -138 -72q-49 -72 -49 -212q0 -90 31 -168z"/>
            <glyph unicode="&#217;" horiz-adv-x="712"
                   d="M193 725v-459q0 -96 36.5 -141.5q36.5 -45.5 127.5 -45.5q92 0 127.5 46q35.5 46 35.5 141v459h103v-481q0 -127 -69 -191.5q-69 -64.5 -203 -64.5q-130 0 -196 67q-66 67 -66 200v470zM329 962l99 -175h-59l-145 175z"/>
            <glyph unicode="&#218;" horiz-adv-x="712"
                   d="M193 725v-459q0 -96 36.5 -141.5q36.5 -45.5 127.5 -45.5q92 0 127.5 46q35.5 46 35.5 141v459h103v-481q0 -127 -69 -191.5q-69 -64.5 -203 -64.5q-130 0 -196 67q-66 67 -66 200v470zM488 962l-145 -175h-59l99 175z"/>
            <glyph unicode="&#219;" horiz-adv-x="712"
                   d="M193 725v-459q0 -96 36.5 -141.5q36.5 -45.5 127.5 -45.5q92 0 127.5 46q35.5 46 35.5 141v459h103v-481q0 -127 -69 -191.5q-69 -64.5 -203 -64.5q-130 0 -196 67q-66 67 -66 200v470zM406 962l96 -175h-60l-86 113l-87 -113h-59l96 175z"/>
            <glyph unicode="&#220;" horiz-adv-x="712"
                   d="M193 725v-459q0 -96 36.5 -141.5q36.5 -45.5 127.5 -45.5q92 0 127.5 46q35.5 46 35.5 141v459h103v-481q0 -127 -69 -191.5q-69 -64.5 -203 -64.5q-130 0 -196 67q-66 67 -66 200v470zM303 820h-101v101h101zM509 820h-101v101l101 0z"/>
            <glyph unicode="&#221;" horiz-adv-x="554"
                   d="M121 725l158 -320l158 320h107l-214 -427v-298h-105v297l-216 428zM409 962l-145 -175h-59l99 175z"/>
            <glyph unicode="&#222;" horiz-adv-x="616"
                   d="M194 725v-143h128q129 0 191 -49.5q62 -49.5 62 -155.5q0 -101 -60 -155q-60 -54 -175 -54h-146v-168h-104v725zM194 256h114q84 0 122.5 26.5q38.5 26.5 38.5 95.5q0 66 -39.5 91.5q-39.5 25.5 -124.5 25.5l-111 0z"/>
            <glyph unicode="&#223;" horiz-adv-x="524"
                   d="M366 396q57 -11 90 -62.5q33 -51.5 33 -133.5q0 -102 -45.5 -156q-45.5 -54 -126.5 -54q-51 0 -97 28l30 72q31 -21 58 -21q38 0 60.5 33.5q22.5 33.5 22.5 96.5q0 78 -35 113.5q-35 35.5 -112 37.5l0 75q109 5 109 108q0 53 -24.5 82q-24.5 29 -66.5 29q-42 0 -67 -26.5q-25 -26.5 -25 -64.5v-553h-95v524q0 97 49.5 149q49.5 52 139.5 52q88 0 136 -48.5q48 -48.5 48 -139.5q0 -57 -22 -93.5t-60 -47.5z"/>
            <glyph unicode="&#224;" horiz-adv-x="508"
                   d="M341 60q-73 -67 -161 -67q-66 0 -104.5 38.5q-38.5 38.5 -38.5 103.5q0 87 75.5 135q75.5 48 231.5 74l0 40q0 32 -25 51.5q-25 19.5 -68 19.5q-79 0 -121 -71l-73 42q32 56 81.5 81.5q49.5 25.5 120.5 25.5q83 0 130.5 -41q47.5 -41 47.5 -114v-299q0 -18 2.5 -36.5q2.5 -18.5 7.5 -36.5l0 -6h-96zM342 269q-107 -19 -159 -48.5q-52 -29.5 -52 -80.5q0 -32 19.5 -51q19.5 -19 54.5 -19q59 0 137 70zM230 759l99 -175h-59l-145 175z"/>
            <glyph unicode="&#225;" horiz-adv-x="508"
                   d="M341 60q-73 -67 -161 -67q-66 0 -104.5 38.5q-38.5 38.5 -38.5 103.5q0 87 75.5 135q75.5 48 231.5 74l0 40q0 32 -25 51.5q-25 19.5 -68 19.5q-79 0 -121 -71l-73 42q32 56 81.5 81.5q49.5 25.5 120.5 25.5q83 0 130.5 -41q47.5 -41 47.5 -114v-299q0 -18 2.5 -36.5q2.5 -18.5 7.5 -36.5l0 -6h-96zM342 269q-107 -19 -159 -48.5q-52 -29.5 -52 -80.5q0 -32 19.5 -51q19.5 -19 54.5 -19q59 0 137 70zM389 759l-145 -175h-59l99 175z"/>
            <glyph unicode="&#226;" horiz-adv-x="508"
                   d="M341 60q-73 -67 -161 -67q-66 0 -104.5 38.5q-38.5 38.5 -38.5 103.5q0 87 75.5 135q75.5 48 231.5 74l0 40q0 32 -25 51.5q-25 19.5 -68 19.5q-79 0 -121 -71l-73 42q32 56 81.5 81.5q49.5 25.5 120.5 25.5q83 0 130.5 -41q47.5 -41 47.5 -114v-299q0 -18 2.5 -36.5q2.5 -18.5 7.5 -36.5l0 -6h-96zM342 269q-107 -19 -159 -48.5q-52 -29.5 -52 -80.5q0 -32 19.5 -51q19.5 -19 54.5 -19q59 0 137 70zM307 759l96 -175h-60l-86 113l-87 -113h-59l96 175z"/>
            <glyph unicode="&#227;" horiz-adv-x="508"
                   d="M341 60q-73 -67 -161 -67q-66 0 -104.5 38.5q-38.5 38.5 -38.5 103.5q0 87 75.5 135q75.5 48 231.5 74l0 40q0 32 -25 51.5q-25 19.5 -68 19.5q-79 0 -121 -71l-73 42q32 56 81.5 81.5q49.5 25.5 120.5 25.5q83 0 130.5 -41q47.5 -41 47.5 -114v-299q0 -18 2.5 -36.5q2.5 -18.5 7.5 -36.5l0 -6h-96zM342 269q-107 -19 -159 -48.5q-52 -29.5 -52 -80.5q0 -32 19.5 -51q19.5 -19 54.5 -19q59 0 137 70zM404 726q-26 -105 -99 -105q-19 0 -33 5l-41 13q-8 3 -15.5 4q-7.5 1 -11.5 1q-34 0 -47 -35l-48 0q22 102 98 102q9 0 17.5 -1q8.5 -1 17.5 -4l41 -13q17 -5 28 -5q34 0 46 38z"/>
            <glyph unicode="&#228;" horiz-adv-x="508"
                   d="M341 60q-73 -67 -161 -67q-66 0 -104.5 38.5q-38.5 38.5 -38.5 103.5q0 87 75.5 135q75.5 48 231.5 74l0 40q0 32 -25 51.5q-25 19.5 -68 19.5q-79 0 -121 -71l-73 42q32 56 81.5 81.5q49.5 25.5 120.5 25.5q83 0 130.5 -41q47.5 -41 47.5 -114v-299q0 -18 2.5 -36.5q2.5 -18.5 7.5 -36.5l0 -6h-96zM342 269q-107 -19 -159 -48.5q-52 -29.5 -52 -80.5q0 -32 19.5 -51q19.5 -19 54.5 -19q59 0 137 70zM222 725v-101h-93v101zM385 725v-101h-93l0 101z"/>
            <glyph unicode="&#229;" horiz-adv-x="508"
                   d="M341 60q-73 -67 -161 -67q-66 0 -104.5 38.5q-38.5 38.5 -38.5 103.5q0 87 75.5 135q75.5 48 231.5 74l0 40q0 32 -25 51.5q-25 19.5 -68 19.5q-79 0 -121 -71l-73 42q32 56 81.5 81.5q49.5 25.5 120.5 25.5q83 0 130.5 -41q47.5 -41 47.5 -114v-299q0 -18 2.5 -36.5q2.5 -18.5 7.5 -36.5l0 -6h-96zM342 269q-107 -19 -159 -48.5q-52 -29.5 -52 -80.5q0 -32 19.5 -51q19.5 -19 54.5 -19q59 0 137 70zM256 824q26 0 49 -9.5q23 -9.5 40 -26.5q17 -17 26.5 -40q9.5 -23 9.5 -49q0 -26 -9.5 -49q-9.5 -23 -26.5 -40q-17 -17 -40 -26.5q-23 -9.5 -49 -9.5q-26 0 -49 9.5q-23 9.5 -40 26.5q-17 17 -26.5 40q-9.5 23 -9.5 49q0 26 9.5 49q9.5 23 26.5 40q17 17 40 26.5q23 9.5 49 9.5zt0 0zM256 764q-28 0 -46.5 -18.5q-18.5 -18.5 -18.5 -46.5q0 -28 18.5 -46.5q18.5 -18.5 46.5 -18.5q28 0 47 18.5q19 18.5 19 46.5q0 27 -19.5 46t-46.5 19z"/>
            <glyph unicode="&#230;" horiz-adv-x="789"
                   d="M374 83q-90 -92 -197 -92q-71 0 -111 39q-40 39 -40 104q0 85 76.5 135q76.5 50 233.5 73l1 39v2q0 35 -25 54q-25 19 -69 19q-79 0 -122 -73l-74 42q33 54 80.5 80.5q47.5 26.5 113.5 26.5q51 0 89 -15q38 -15 67 -48q31 32 66 48q35 16 79 16q101 0 156 -69q55 -69 55 -200v-20h-325v-7q0 -81 34.5 -124.5q34.5 -43.5 95.5 -43.5q42 0 75.5 21.5q33.5 21.5 53.5 61.5l69 -43q-64 -119 -206 -119q-61 0 -103.5 22q-42.5 22 -72.5 71zt0 0zM335 269q-109 -21 -161 -51q-52 -30 -52 -80q0 -32 20 -51q20 -19 56 -19q30 0 63.5 18q33.5 18 73.5 53zM656 318q-2 67 -32 103.5q-30 36.5 -80 36.5q-51 0 -81 -36q-30 -36 -33 -104z"/>
            <glyph unicode="&#231;" horiz-adv-x="476"
                   d="M359 362q-29 91 -109 91q-58 0 -89.5 -48.5q-31.5 -48.5 -31.5 -142.5q0 -191 122 -191q39 0 71.5 24q32.5 24 53.5 70l76 -40q-60 -128 -193 -134l0 -39h10q55 0 83.5 -22q28.5 -22 28.5 -64q0 -96 -125 -96q-22 0 -53.5 4.5q-31.5 4.5 -72.5 15.5l0 52q80 -19 123 -19q54 0 54 38q0 23 -15.5 32.5q-15.5 9.5 -49.5 9.5q-6 0 -12 0q-6 0 -13 -1l0 91q-90 9 -137 76.5q-47 67.5 -47 186.5q0 66 15 117.5q15 51.5 43 87q28 35.5 67 54q39 18.5 87 18.5q75 0 125 -35.5q50 -35.5 74 -103.5z"/>
            <glyph unicode="&#232;" horiz-adv-x="487"
                   d="M130 245v-10q0 -80 34 -122.5q34 -42.5 97 -42.5q82 0 127 82l70 -43q-66 -119 -202 -119q-108 0 -165 67.5q-57 67.5 -57 198.5q0 135 56.5 206q56.5 71 159.5 71q94 0 149.5 -68q55.5 -68 55.5 -193q0 -7 -0.5 -13.5q-0.5 -6.5 -0.5 -13.5zM358 318q-2 67 -31.5 103q-29.5 36 -79.5 36q-52 0 -82.5 -35.5q-30.5 -35.5 -33.5 -103.5zM221 759l99 -175h-59l-145 175z"/>
            <glyph unicode="&#233;" horiz-adv-x="487"
                   d="M130 245v-10q0 -80 34 -122.5q34 -42.5 97 -42.5q82 0 127 82l70 -43q-66 -119 -202 -119q-108 0 -165 67.5q-57 67.5 -57 198.5q0 135 56.5 206q56.5 71 159.5 71q94 0 149.5 -68q55.5 -68 55.5 -193q0 -7 -0.5 -13.5q-0.5 -6.5 -0.5 -13.5zM358 318q-2 67 -31.5 103q-29.5 36 -79.5 36q-52 0 -82.5 -35.5q-30.5 -35.5 -33.5 -103.5zM380 759l-145 -175h-59l99 175z"/>
            <glyph unicode="&#234;" horiz-adv-x="487"
                   d="M130 245v-10q0 -80 34 -122.5q34 -42.5 97 -42.5q82 0 127 82l70 -43q-66 -119 -202 -119q-108 0 -165 67.5q-57 67.5 -57 198.5q0 135 56.5 206q56.5 71 159.5 71q94 0 149.5 -68q55.5 -68 55.5 -193q0 -7 -0.5 -13.5q-0.5 -6.5 -0.5 -13.5zM358 318q-2 67 -31.5 103q-29.5 36 -79.5 36q-52 0 -82.5 -35.5q-30.5 -35.5 -33.5 -103.5zM298 759l96 -175h-60l-86 113l-87 -113h-59l96 175z"/>
            <glyph unicode="&#235;" horiz-adv-x="487"
                   d="M130 245v-10q0 -80 34 -122.5q34 -42.5 97 -42.5q82 0 127 82l70 -43q-66 -119 -202 -119q-108 0 -165 67.5q-57 67.5 -57 198.5q0 135 56.5 206q56.5 71 159.5 71q94 0 149.5 -68q55.5 -68 55.5 -193q0 -7 -0.5 -13.5q-0.5 -6.5 -0.5 -13.5zM358 318q-2 67 -31.5 103q-29.5 36 -79.5 36q-52 0 -82.5 -35.5q-30.5 -35.5 -33.5 -103.5zM213 725v-101h-93v101zM376 725v-101h-93l0 101z"/>
            <glyph unicode="&#236;" horiz-adv-x="251" d="M174 524v-524h-96v524zM99 759l99 -175h-59l-145 175z"/>
            <glyph unicode="&#237;" horiz-adv-x="251" d="M174 524v-524h-96v524zM258 759l-145 -175h-59l99 175z"/>
            <glyph unicode="&#238;" horiz-adv-x="251"
                   d="M174 524v-524h-96v524zM176 759l96 -175h-60l-86 113l-87 -113h-59l96 175z"/>
            <glyph unicode="&#239;" horiz-adv-x="251"
                   d="M174 524v-524h-96v524zM91 725v-101h-93v101zM254 725v-101h-93l0 101z"/>
            <glyph unicode="&#240;" horiz-adv-x="504"
                   d="M105 735q38 -14 74.5 -32.5q36.5 -18.5 72.5 -42.5l115 69l28 -44l-100 -59q177 -152 177 -379q0 -123 -58 -190q-58 -67 -160 -67q-106 0 -164.5 67q-58.5 67 -58.5 192q0 122 59 189q59 67 161 67q28 0 50 -7q-20 28 -39.5 48q-19.5 20 -39.5 36l-116 -69l-28 44l99 59q-22 15 -46.5 29.5q-24.5 14.5 -52.5 27.5zM252 428q-60 0 -92 -45q-32 -45 -32 -134q0 -182 124 -182q60 0 92 45q32 45 32 135q0 90 -32 135.5t-92 45.5z"/>
            <glyph unicode="&#241;" horiz-adv-x="543"
                   d="M472 0h-95v351q0 101 -77 101q-62 0 -131 -69l0 -383h-94v524h87v-72q44 39 83 59q39 20 84 20q68 0 105.5 -39.5q37.5 -39.5 37.5 -114.5zM419 726q-26 -105 -99 -105q-19 0 -33 5l-41 13q-8 3 -15.5 4q-7.5 1 -11.5 1q-34 0 -47 -35l-48 0q22 102 98 102q9 0 17.5 -1q8.5 -1 17.5 -4l41 -13q17 -5 28 -5q34 0 46 38z"/>
            <glyph unicode="&#242;" horiz-adv-x="504"
                   d="M252 533q104 0 162 -70q58 -70 58 -201q0 -131 -58 -201.5q-58 -70.5 -162 -70.5q-104 0 -162.5 70.5q-58.5 70.5 -58.5 201.5q0 131 58.5 201q58.5 70 162.5 70zt0 0zM252 451q-124 0 -124 -189q0 -190 124 -190q60 0 92 47.5q32 47.5 32 141.5q0 190 -124 190zt0 0zM225 759l99 -175h-59l-145 175z"/>
            <glyph unicode="&#243;" horiz-adv-x="504"
                   d="M252 533q104 0 162 -70q58 -70 58 -201q0 -131 -58 -201.5q-58 -70.5 -162 -70.5q-104 0 -162.5 70.5q-58.5 70.5 -58.5 201.5q0 131 58.5 201q58.5 70 162.5 70zt0 0zM252 451q-124 0 -124 -189q0 -190 124 -190q60 0 92 47.5q32 47.5 32 141.5q0 190 -124 190zt0 0zM384 759l-145 -175h-59l99 175z"/>
            <glyph unicode="&#244;" horiz-adv-x="504"
                   d="M252 533q104 0 162 -70q58 -70 58 -201q0 -131 -58 -201.5q-58 -70.5 -162 -70.5q-104 0 -162.5 70.5q-58.5 70.5 -58.5 201.5q0 131 58.5 201q58.5 70 162.5 70zt0 0zM252 451q-124 0 -124 -189q0 -190 124 -190q60 0 92 47.5q32 47.5 32 141.5q0 190 -124 190zt0 0zM302 759l96 -175h-60l-86 113l-87 -113h-59l96 175z"/>
            <glyph unicode="&#245;" horiz-adv-x="504"
                   d="M252 533q104 0 162 -70q58 -70 58 -201q0 -131 -58 -201.5q-58 -70.5 -162 -70.5q-104 0 -162.5 70.5q-58.5 70.5 -58.5 201.5q0 131 58.5 201q58.5 70 162.5 70zt0 0zM252 451q-124 0 -124 -189q0 -190 124 -190q60 0 92 47.5q32 47.5 32 141.5q0 190 -124 190zt0 0zM399 726q-26 -105 -99 -105q-19 0 -33 5l-41 13q-8 3 -15.5 4q-7.5 1 -11.5 1q-34 0 -47 -35l-48 0q22 102 98 102q9 0 17.5 -1q8.5 -1 17.5 -4l41 -13q17 -5 28 -5q34 0 46 38z"/>
            <glyph unicode="&#246;" horiz-adv-x="504"
                   d="M252 533q104 0 162 -70q58 -70 58 -201q0 -131 -58 -201.5q-58 -70.5 -162 -70.5q-104 0 -162.5 70.5q-58.5 70.5 -58.5 201.5q0 131 58.5 201q58.5 70 162.5 70zt0 0zM252 451q-124 0 -124 -189q0 -190 124 -190q60 0 92 47.5q32 47.5 32 141.5q0 190 -124 190zt0 0zM217 725v-101h-93v101zM380 725v-101h-93l0 101z"/>
            <glyph unicode="&#247;" horiz-adv-x="833"
                   d="M417 540q25 0 43 -18q18 -18 18 -44q0 -25 -17.5 -43q-17.5 -18 -43.5 -18q-26 0 -43.5 17.5q-17.5 17.5 -17.5 43.5q0 26 18 44q18 18 43 18zt0 0zM709 264h-585v68h585zM417 179q25 0 43 -17.5q18 -17.5 18 -43.5q0 -25 -17.5 -43q-17.5 -18 -43.5 -18q-26 0 -43.5 17.5q-17.5 17.5 -17.5 43.5q0 26 18 43.5t43 17.5z"/>
            <glyph unicode="&#248;" horiz-adv-x="504"
                   d="M456 543l-46 -77q62 -65 62 -204q0 -131 -58.5 -201.5q-58.5 -70.5 -164.5 -70.5q-54 0 -104 26l-47 -80l-59 34l52 90q-32 41 -46 89q-14 48 -14 109q0 134 58.5 204.5q58.5 70.5 167.5 70.5q28 0 53 -6.5q25 -6.5 47 -17.5l40 69zM183 90q36 -21 70 -21q129 0 129 200q0 79 -22 118zM318 434q-26 19 -65 19q-130 0 -130 -188q0 -72 20 -124z"/>
            <glyph unicode="&#249;" horiz-adv-x="543"
                   d="M166 524v-352q0 -52 17.5 -76.5q17.5 -24.5 59.5 -24.5q62 0 130 69l0 384h95v-524h-88v71q-44 -39 -83.5 -59q-39.5 -20 -84.5 -20q-67 0 -104 39.5q-37 39.5 -37 114.5v378zM245 759l99 -175h-59l-145 175z"/>
            <glyph unicode="&#250;" horiz-adv-x="543"
                   d="M166 524v-352q0 -52 17.5 -76.5q17.5 -24.5 59.5 -24.5q62 0 130 69l0 384h95v-524h-88v71q-44 -39 -83.5 -59q-39.5 -20 -84.5 -20q-67 0 -104 39.5q-37 39.5 -37 114.5v378zM404 759l-145 -175h-59l99 175z"/>
            <glyph unicode="&#251;" horiz-adv-x="543"
                   d="M166 524v-352q0 -52 17.5 -76.5q17.5 -24.5 59.5 -24.5q62 0 130 69l0 384h95v-524h-88v71q-44 -39 -83.5 -59q-39.5 -20 -84.5 -20q-67 0 -104 39.5q-37 39.5 -37 114.5v378zM322 759l96 -175h-60l-86 113l-87 -113h-59l96 175z"/>
            <glyph unicode="&#252;" horiz-adv-x="543"
                   d="M166 524v-352q0 -52 17.5 -76.5q17.5 -24.5 59.5 -24.5q62 0 130 69l0 384h95v-524h-88v71q-44 -39 -83.5 -59q-39.5 -20 -84.5 -20q-67 0 -104 39.5q-37 39.5 -37 114.5v378zM237 725v-101h-93v101zM400 725v-101h-93l0 101z"/>
            <glyph unicode="&#253;" horiz-adv-x="467"
                   d="M103 524l136 -386l124 386h94l-173 -516q-16 -49 -32.5 -86q-16.5 -37 -38.5 -62q-22 -25 -51 -37.5q-29 -12.5 -71 -12.5q-15 0 -28.5 1q-13.5 1 -27.5 5l0 83q11 -3 22.5 -4q11.5 -1 23.5 -1q49 0 74 27.5q25 27.5 39 89.5l-186 513zM366 759l-145 -175h-59l99 175z"/>
            <glyph unicode="&#254;" horiz-adv-x="543"
                   d="M169 725v-251q49 58 130 58q97 0 154.5 -72q57.5 -72 57.5 -203q0 -128 -57.5 -197q-57.5 -69 -156.5 -69q-80 0 -128 62l0 -243h-94v915zM168 133q54 -64 117 -64q61 0 95 48q34 48 34 141q0 97 -34 145.5q-34 48.5 -98 48.5q-63 0 -114 -64z"/>
            <glyph unicode="&#255;" horiz-adv-x="467"
                   d="M103 524l136 -386l124 386h94l-173 -516q-16 -49 -32.5 -86q-16.5 -37 -38.5 -62q-22 -25 -51 -37.5q-29 -12.5 -71 -12.5q-15 0 -28.5 1q-13.5 1 -27.5 5l0 83q11 -3 22.5 -4q11.5 -1 23.5 -1q49 0 74 27.5q25 27.5 39 89.5l-186 513zM199 725v-101h-93v101zM362 725v-101h-93l0 101z"/>
            <glyph unicode="&#256;" horiz-adv-x="609"
                   d="M376 725l221 -725h-107l-57 196h-261l-56 -196h-105l222 725zM197 284h209l-99 354h-8zM436 902v-68h-264l0 68z"/>
            <glyph unicode="&#257;" horiz-adv-x="508"
                   d="M341 60q-73 -67 -161 -67q-66 0 -104.5 38.5q-38.5 38.5 -38.5 103.5q0 87 75.5 135q75.5 48 231.5 74l0 40q0 32 -25 51.5q-25 19.5 -68 19.5q-79 0 -121 -71l-73 42q32 56 81.5 81.5q49.5 25.5 120.5 25.5q83 0 130.5 -41q47.5 -41 47.5 -114v-299q0 -18 2.5 -36.5q2.5 -18.5 7.5 -36.5l0 -6h-96zM342 269q-107 -19 -159 -48.5q-52 -29.5 -52 -80.5q0 -32 19.5 -51q19.5 -19 54.5 -19q59 0 137 70zM386 708v-68h-264l0 68z"/>
            <glyph unicode="&#258;" horiz-adv-x="609"
                   d="M376 725l221 -725h-107l-57 196h-261l-56 -196h-105l222 725zM197 284h209l-99 354h-8zM212 921q3 -38 25 -55q22 -17 67 -17q45 0 67 17q22 17 25 55l51 0q-5 -72 -39.5 -106q-34.5 -34 -103.5 -34q-69 0 -104 34q-35 34 -40 106z"/>
            <glyph unicode="&#259;" horiz-adv-x="508"
                   d="M341 60q-73 -67 -161 -67q-66 0 -104.5 38.5q-38.5 38.5 -38.5 103.5q0 87 75.5 135q75.5 48 231.5 74l0 40q0 32 -25 51.5q-25 19.5 -68 19.5q-79 0 -121 -71l-73 42q32 56 81.5 81.5q49.5 25.5 120.5 25.5q83 0 130.5 -41q47.5 -41 47.5 -114v-299q0 -18 2.5 -36.5q2.5 -18.5 7.5 -36.5l0 -6h-96zM342 269q-107 -19 -159 -48.5q-52 -29.5 -52 -80.5q0 -32 19.5 -51q19.5 -19 54.5 -19q59 0 137 70zM162 741q3 -38 25 -55q22 -17 67 -17q45 0 67 17q22 17 25 55l51 0q-5 -72 -39.5 -106q-34.5 -34 -103.5 -34q-69 0 -104 34q-35 34 -40 106z"/>
            <glyph unicode="&#260;" horiz-adv-x="609"
                   d="M490 0l-57 196h-261l-56 -196h-105l222 725h143l221 -725q-65 -56 -65 -105q0 -40 44 -40h44v-73h-44q-112 0 -112 85q0 36 23 67q23 31 69 66zM197 284h209l-99 354l-8 0z"/>
            <glyph unicode="&#261;" horiz-adv-x="508"
                   d="M351 0l-10 60q-73 -67 -161 -67q-66 0 -104.5 38.5q-38.5 38.5 -38.5 103.5q0 87 75.5 135q75.5 48 231.5 74l0 40q0 32 -25 51.5q-25 19.5 -68 19.5q-79 0 -121 -71l-73 42q32 56 81.5 81.5q49.5 25.5 120.5 25.5q83 0 130.5 -41q47.5 -41 47.5 -114v-299q0 -18 2.5 -36.5q2.5 -18.5 7.5 -36.5l0 -6q-65 -56 -65 -105q0 -40 44 -40h44v-73h-44q-112 0 -112 85q0 36 23 67q23 31 69 66zM342 269q-107 -19 -159 -48.5q-52 -29.5 -52 -80.5q0 -32 19.5 -51q19.5 -19 54.5 -19q59 0 137 70z"/>
            <glyph unicode="&#262;" horiz-adv-x="610"
                   d="M474 507q-32 140 -154 140q-81 0 -126.5 -72.5q-45.5 -72.5 -45.5 -214.5q0 -140 46 -210q46 -70 133 -70q62 0 104.5 37.5q42.5 37.5 56.5 108.5l96 -24q-56 -214 -260 -214q-137 0 -209.5 94.5q-72.5 94.5 -72.5 278.5q0 90 19.5 159.5q19.5 69.5 56 117q36.5 47.5 89 72.5q52.5 25 117.5 25q100 0 162 -51.5q62 -51.5 85 -152.5zM437 962l-145 -175h-59l99 175z"/>
            <glyph unicode="&#263;" horiz-adv-x="476"
                   d="M359 362q-29 91 -109 91q-58 0 -89.5 -48.5q-31.5 -48.5 -31.5 -142.5q0 -191 122 -191q39 0 71.5 24q32.5 24 53.5 70l76 -40q-61 -134 -205 -134q-103 0 -158.5 68q-55.5 68 -55.5 197q0 66 15 117.5q15 51.5 43 87q28 35.5 67 54q39 18.5 87 18.5q75 0 125 -35.5q50 -35.5 74 -103.5zM370 759l-145 -175h-59l99 175z"/>
            <glyph unicode="&#264;" horiz-adv-x="610"
                   d="M474 507q-32 140 -154 140q-81 0 -126.5 -72.5q-45.5 -72.5 -45.5 -214.5q0 -140 46 -210q46 -70 133 -70q62 0 104.5 37.5q42.5 37.5 56.5 108.5l96 -24q-56 -214 -260 -214q-137 0 -209.5 94.5q-72.5 94.5 -72.5 278.5q0 90 19.5 159.5q19.5 69.5 56 117q36.5 47.5 89 72.5q52.5 25 117.5 25q100 0 162 -51.5q62 -51.5 85 -152.5zM355 962l96 -175h-60l-86 113l-87 -113h-59l96 175z"/>
            <glyph unicode="&#265;" horiz-adv-x="476"
                   d="M359 362q-29 91 -109 91q-58 0 -89.5 -48.5q-31.5 -48.5 -31.5 -142.5q0 -191 122 -191q39 0 71.5 24q32.5 24 53.5 70l76 -40q-61 -134 -205 -134q-103 0 -158.5 68q-55.5 68 -55.5 197q0 66 15 117.5q15 51.5 43 87q28 35.5 67 54q39 18.5 87 18.5q75 0 125 -35.5q50 -35.5 74 -103.5zM288 759l96 -175h-60l-86 113l-87 -113h-59l96 175z"/>
            <glyph unicode="&#266;" horiz-adv-x="610"
                   d="M474 507q-32 140 -154 140q-81 0 -126.5 -72.5q-45.5 -72.5 -45.5 -214.5q0 -140 46 -210q46 -70 133 -70q62 0 104.5 37.5q42.5 37.5 56.5 108.5l96 -24q-56 -214 -260 -214q-137 0 -209.5 94.5q-72.5 94.5 -72.5 278.5q0 90 19.5 159.5q19.5 69.5 56 117q36.5 47.5 89 72.5q52.5 25 117.5 25q100 0 162 -51.5q62 -51.5 85 -152.5zM368 910v-110h-96l0 110z"/>
            <glyph unicode="&#267;" horiz-adv-x="476"
                   d="M359 362q-29 91 -109 91q-58 0 -89.5 -48.5q-31.5 -48.5 -31.5 -142.5q0 -191 122 -191q39 0 71.5 24q32.5 24 53.5 70l76 -40q-61 -134 -205 -134q-103 0 -158.5 68q-55.5 68 -55.5 197q0 66 15 117.5q15 51.5 43 87q28 35.5 67 54q39 18.5 87 18.5q75 0 125 -35.5q50 -35.5 74 -103.5zM302 725v-101h-104l0 101z"/>
            <glyph unicode="&#268;" horiz-adv-x="610"
                   d="M474 507q-32 140 -154 140q-81 0 -126.5 -72.5q-45.5 -72.5 -45.5 -214.5q0 -140 46 -210q46 -70 133 -70q62 0 104.5 37.5q42.5 37.5 56.5 108.5l96 -24q-56 -214 -260 -214q-137 0 -209.5 94.5q-72.5 94.5 -72.5 278.5q0 90 19.5 159.5q19.5 69.5 56 117q36.5 47.5 89 72.5q52.5 25 117.5 25q100 0 162 -51.5q62 -51.5 85 -152.5zM218 962l87 -114l86 114h60l-96 -175h-100l-96 175z"/>
            <glyph unicode="&#269;" horiz-adv-x="476"
                   d="M359 362q-29 91 -109 91q-58 0 -89.5 -48.5q-31.5 -48.5 -31.5 -142.5q0 -191 122 -191q39 0 71.5 24q32.5 24 53.5 70l76 -40q-61 -134 -205 -134q-103 0 -158.5 68q-55.5 68 -55.5 197q0 66 15 117.5q15 51.5 43 87q28 35.5 67 54q39 18.5 87 18.5q75 0 125 -35.5q50 -35.5 74 -103.5zM151 759l87 -114l86 114h60l-96 -175h-100l-96 175z"/>
            <glyph unicode="&#270;" horiz-adv-x="682"
                   d="M284 725q348 0 348 -362q0 -363 -360 -363h-181v725zM195 93h69q68 0 117.5 15q49.5 15 82 47.5q32.5 32.5 48 84q15.5 51.5 15.5 123.5q0 143 -62.5 207q-62.5 64 -195.5 64h-74zM254 962l87 -114l86 114h60l-96 -175h-100l-96 175z"/>
            <glyph unicode="&#271;" horiz-adv-x="618"
                   d="M467 725v-580q0 -45 2 -80.5q2 -35.5 5 -64.5l-74 0l-16 62q-55 -71 -143 -71q-47 0 -85 18.5q-38 18.5 -65 53.5q-27 35 -41.5 85.5q-14.5 50.5 -14.5 114.5q0 129 56 199q56 70 152 70q84 0 130 -64l0 257zM373 390q-52 64 -114 64q-60 0 -93.5 -48q-33.5 -48 -33.5 -141q0 -97 33 -145.5q33 -48.5 96 -48.5q63 0 112 64zM634 725v-127l-62 -149h-57l53 155h-48l0 121z"/>
            <glyph unicode="&#272;" horiz-adv-x="686"
                   d="M289 725q348 0 348 -362q0 -363 -360 -363h-182v346h-93v65h93v314zM199 411h150v-65h-150v-253h69q68 0 117.5 15q49.5 15 82 47.5q32.5 32.5 48 84q15.5 51.5 15.5 123.5q0 143 -62 207q-62 64 -195 64l-75 0z"/>
            <glyph unicode="&#273;" horiz-adv-x="542"
                   d="M467 725v-72h73v-76h-73v-432q0 -45 2 -80.5q2 -35.5 5 -64.5l-74 0l-16 62q-55 -71 -143 -71q-47 0 -85 18.5q-38 18.5 -65 53.5q-27 35 -41.5 85.5q-14.5 50.5 -14.5 114.5q0 129 56 199q56 70 152 70q84 0 130 -64l0 109h-174v76h174v72zM373 390q-52 64 -114 64q-60 0 -93.5 -48q-33.5 -48 -33.5 -141q0 -97 33 -145.5q33 -48.5 96 -48.5q63 0 112 64z"/>
            <glyph unicode="&#274;" horiz-adv-x="584"
                   d="M538 725v-90h-342v-211h245v-89h-245v-242h358v-93h-462v725zM424 902v-68h-264l0 68z"/>
            <glyph unicode="&#275;" horiz-adv-x="487"
                   d="M130 245v-10q0 -80 34 -122.5q34 -42.5 97 -42.5q82 0 127 82l70 -43q-66 -119 -202 -119q-108 0 -165 67.5q-57 67.5 -57 198.5q0 135 56.5 206q56.5 71 159.5 71q94 0 149.5 -68q55.5 -68 55.5 -193q0 -7 -0.5 -13.5q-0.5 -6.5 -0.5 -13.5zM358 318q-2 67 -31.5 103q-29.5 36 -79.5 36q-52 0 -82.5 -35.5q-30.5 -35.5 -33.5 -103.5zM375 708v-68h-264l0 68z"/>
            <glyph unicode="&#278;" horiz-adv-x="584"
                   d="M538 725v-90h-342v-211h245v-89h-245v-242h358v-93h-462v725zM340 910v-110h-96l0 110z"/>
            <glyph unicode="&#279;" horiz-adv-x="487"
                   d="M130 245v-10q0 -80 34 -122.5q34 -42.5 97 -42.5q82 0 127 82l70 -43q-66 -119 -202 -119q-108 0 -165 67.5q-57 67.5 -57 198.5q0 135 56.5 206q56.5 71 159.5 71q94 0 149.5 -68q55.5 -68 55.5 -193q0 -7 -0.5 -13.5q-0.5 -6.5 -0.5 -13.5zM358 318q-2 67 -31.5 103q-29.5 36 -79.5 36q-52 0 -82.5 -35.5q-30.5 -35.5 -33.5 -103.5zM295 725v-101h-104l0 101z"/>
            <glyph unicode="&#280;" horiz-adv-x="584"
                   d="M92 0v725h446v-90h-342v-211h245v-89h-245v-242h358v-93q-65 -56 -65 -105q0 -40 44 -40h44v-73h-44q-112 0 -112 85q0 36 23 67q23 31 69 66z"/>
            <glyph unicode="&#281;" horiz-adv-x="487"
                   d="M130 245v-10q0 -80 34 -122.5q34 -42.5 97 -42.5q82 0 127 82l70 -43q-47 -86 -132 -110q-64 -54 -64 -104q0 -40 44 -40h44v-73h-44q-112 0 -112 85q0 34 20 63q20 29 59 61q-4 -1 -8 -1q-4 0 -9 0q-108 0 -165 67.5q-57 67.5 -57 198.5q0 135 56.5 206q56.5 71 159.5 71q94 0 149.5 -68q55.5 -68 55.5 -193v-27zM358 318q-2 67 -31.5 103q-29.5 36 -79.5 36q-52 0 -82.5 -35.5q-30.5 -35.5 -33.5 -103.5z"/>
            <glyph unicode="&#282;" horiz-adv-x="584"
                   d="M538 725v-90h-342v-211h245v-89h-245v-242h358v-93h-462v725zM205 962l87 -114l86 114h60l-96 -175h-100l-96 175z"/>
            <glyph unicode="&#283;" horiz-adv-x="487"
                   d="M130 245v-10q0 -80 34 -122.5q34 -42.5 97 -42.5q82 0 127 82l70 -43q-66 -119 -202 -119q-108 0 -165 67.5q-57 67.5 -57 198.5q0 135 56.5 206q56.5 71 159.5 71q94 0 149.5 -68q55.5 -68 55.5 -193q0 -7 -0.5 -13.5q-0.5 -6.5 -0.5 -13.5zM358 318q-2 67 -31.5 103q-29.5 36 -79.5 36q-52 0 -82.5 -35.5q-30.5 -35.5 -33.5 -103.5zM156 759l87 -114l86 114h60l-96 -175h-100l-96 175z"/>
            <glyph unicode="&#284;" horiz-adv-x="664"
                   d="M487 513q-20 64 -59.5 98.5q-39.5 34.5 -95.5 34.5q-90 0 -137 -72q-47 -72 -47 -216q0 -135 50.5 -206.5q50.5 -71.5 136.5 -71.5q75 0 116.5 48.5q41.5 48.5 42.5 141.5l-154 0v89h260v-359h-82l-5 78q-68 -90 -189 -90q-66 0 -118 25q-52 25 -88.5 73q-36.5 48 -56 117q-19.5 69 -19.5 157q0 183 77 279q77 96 217 96q94 0 158.5 -51q64.5 -51 92.5 -148zM382 962l96 -175h-60l-86 113l-87 -113h-59l96 175z"/>
            <glyph unicode="&#285;" horiz-adv-x="491"
                   d="M117 212q-70 49 -70 139q0 83 53 133q53 50 147 50q69 0 122 -41q46 48 96 48q4 0 7.5 -0.5q3.5 -0.5 8.5 -0.5l0 -78h-24q-33 0 -49 -15q14 -22 20 -45q6 -23 6 -50q0 -83 -51 -130.5q-51 -47.5 -141 -47.5q-35 0 -69 9q-38 -15 -38 -41q0 -25 27.5 -31.5q27.5 -6.5 83.5 -9.5q58 -3 101.5 -10q43.5 -7 72.5 -21.5q29 -14.5 43.5 -39.5q14.5 -25 14.5 -65q0 -76 -62 -115.5q-62 -39.5 -186 -39.5q-104 0 -157 33.5q-53 33.5 -53 95.5q0 38 21.5 61q21.5 23 67.5 40q-33 14 -49 32.5q-16 18.5 -16 45.5q0 55 73 94zt0 0zM187 23q-39 -15 -57.5 -32q-18.5 -17 -18.5 -41q0 -68 132 -68q68 0 104 21q36 21 36 54q0 32 -24.5 43.5q-24.5 11.5 -75.5 15.5zM137 355q0 -51 27.5 -79q27.5 -28 78.5 -28q49 0 76.5 28.5q27.5 28.5 27.5 76.5q0 48 -28.5 77q-28.5 29 -76.5 29q-49 0 -77 -28q-28 -28 -28 -76zt0 0zM295 759l96 -175h-60l-86 113l-87 -113h-59l96 175z"/>
            <glyph unicode="&#286;" horiz-adv-x="664"
                   d="M487 513q-20 64 -59.5 98.5q-39.5 34.5 -95.5 34.5q-90 0 -137 -72q-47 -72 -47 -216q0 -135 50.5 -206.5q50.5 -71.5 136.5 -71.5q75 0 116.5 48.5q41.5 48.5 42.5 141.5l-154 0v89h260v-359h-82l-5 78q-68 -90 -189 -90q-66 0 -118 25q-52 25 -88.5 73q-36.5 48 -56 117q-19.5 69 -19.5 157q0 183 77 279q77 96 217 96q94 0 158.5 -51q64.5 -51 92.5 -148zM240 921q3 -38 25 -55q22 -17 67 -17q45 0 67 17q22 17 25 55l51 0q-5 -72 -39.5 -106q-34.5 -34 -103.5 -34q-69 0 -104 34q-35 34 -40 106z"/>
            <glyph unicode="&#287;" horiz-adv-x="491"
                   d="M117 212q-70 49 -70 139q0 83 53 133q53 50 147 50q69 0 122 -41q46 48 96 48q4 0 7.5 -0.5q3.5 -0.5 8.5 -0.5l0 -78h-24q-33 0 -49 -15q14 -22 20 -45q6 -23 6 -50q0 -83 -51 -130.5q-51 -47.5 -141 -47.5q-35 0 -69 9q-38 -15 -38 -41q0 -25 27.5 -31.5q27.5 -6.5 83.5 -9.5q58 -3 101.5 -10q43.5 -7 72.5 -21.5q29 -14.5 43.5 -39.5q14.5 -25 14.5 -65q0 -76 -62 -115.5q-62 -39.5 -186 -39.5q-104 0 -157 33.5q-53 33.5 -53 95.5q0 38 21.5 61q21.5 23 67.5 40q-33 14 -49 32.5q-16 18.5 -16 45.5q0 55 73 94zt0 0zM187 23q-39 -15 -57.5 -32q-18.5 -17 -18.5 -41q0 -68 132 -68q68 0 104 21q36 21 36 54q0 32 -24.5 43.5q-24.5 11.5 -75.5 15.5zM137 355q0 -51 27.5 -79q27.5 -28 78.5 -28q49 0 76.5 28.5q27.5 28.5 27.5 76.5q0 48 -28.5 77q-28.5 29 -76.5 29q-49 0 -77 -28q-28 -28 -28 -76zt0 0zM153 741q3 -38 25 -55q22 -17 67 -17q45 0 67 17q22 17 25 55l51 0q-5 -72 -39.5 -106q-34.5 -34 -103.5 -34q-69 0 -104 34q-35 34 -40 106z"/>
            <glyph unicode="&#288;" horiz-adv-x="664"
                   d="M487 513q-20 64 -59.5 98.5q-39.5 34.5 -95.5 34.5q-90 0 -137 -72q-47 -72 -47 -216q0 -135 50.5 -206.5q50.5 -71.5 136.5 -71.5q75 0 116.5 48.5q41.5 48.5 42.5 141.5l-154 0v89h260v-359h-82l-5 78q-68 -90 -189 -90q-66 0 -118 25q-52 25 -88.5 73q-36.5 48 -56 117q-19.5 69 -19.5 157q0 183 77 279q77 96 217 96q94 0 158.5 -51q64.5 -51 92.5 -148zM378 910v-110h-96l0 110z"/>
            <glyph unicode="&#289;" horiz-adv-x="491"
                   d="M117 212q-70 49 -70 139q0 83 53 133q53 50 147 50q69 0 122 -41q46 48 96 48q4 0 7.5 -0.5q3.5 -0.5 8.5 -0.5l0 -78h-24q-33 0 -49 -15q14 -22 20 -45q6 -23 6 -50q0 -83 -51 -130.5q-51 -47.5 -141 -47.5q-35 0 -69 9q-38 -15 -38 -41q0 -25 27.5 -31.5q27.5 -6.5 83.5 -9.5q58 -3 101.5 -10q43.5 -7 72.5 -21.5q29 -14.5 43.5 -39.5q14.5 -25 14.5 -65q0 -76 -62 -115.5q-62 -39.5 -186 -39.5q-104 0 -157 33.5q-53 33.5 -53 95.5q0 38 21.5 61q21.5 23 67.5 40q-33 14 -49 32.5q-16 18.5 -16 45.5q0 55 73 94zt0 0zM187 23q-39 -15 -57.5 -32q-18.5 -17 -18.5 -41q0 -68 132 -68q68 0 104 21q36 21 36 54q0 32 -24.5 43.5q-24.5 11.5 -75.5 15.5zM137 355q0 -51 27.5 -79q27.5 -28 78.5 -28q49 0 76.5 28.5q27.5 28.5 27.5 76.5q0 48 -28.5 77q-28.5 29 -76.5 29q-49 0 -77 -28q-28 -28 -28 -76zt0 0zM302 725v-101h-104l0 101z"/>
            <glyph unicode="&#290;" horiz-adv-x="664"
                   d="M487 513q-20 64 -59.5 98.5q-39.5 34.5 -95.5 34.5q-90 0 -137 -72q-47 -72 -47 -216q0 -135 50.5 -206.5q50.5 -71.5 136.5 -71.5q75 0 116.5 48.5q41.5 48.5 42.5 141.5l-154 0v89h260v-359h-82l-5 78q-68 -90 -189 -90q-66 0 -118 25q-52 25 -88.5 73q-36.5 48 -56 117q-19.5 69 -19.5 157q0 183 77 279q77 96 217 96q94 0 158.5 -51q64.5 -51 92.5 -148zM398 -68v-127l-63 -149h-56l52 155h-47l0 121z"/>
            <glyph unicode="&#291;" horiz-adv-x="491"
                   d="M117 212q-70 49 -70 139q0 83 53 133q53 50 147 50q69 0 122 -41q46 48 96 48q4 0 7.5 -0.5q3.5 -0.5 8.5 -0.5l0 -78h-24q-33 0 -49 -15q14 -22 20 -45q6 -23 6 -50q0 -83 -51 -130.5q-51 -47.5 -141 -47.5q-35 0 -69 9q-38 -15 -38 -41q0 -25 27.5 -31.5q27.5 -6.5 83.5 -9.5q58 -3 101.5 -10q43.5 -7 72.5 -21.5q29 -14.5 43.5 -39.5q14.5 -25 14.5 -65q0 -76 -62 -115.5q-62 -39.5 -186 -39.5q-104 0 -157 33.5q-53 33.5 -53 95.5q0 38 21.5 61q21.5 23 67.5 40q-33 14 -49 32.5q-16 18.5 -16 45.5q0 55 73 94zt0 0zM187 23q-39 -15 -57.5 -32q-18.5 -17 -18.5 -41q0 -68 132 -68q68 0 104 21q36 21 36 54q0 32 -24.5 43.5q-24.5 11.5 -75.5 15.5zM137 355q0 -51 27.5 -79q27.5 -28 78.5 -28q49 0 76.5 28.5q27.5 28.5 27.5 76.5q0 48 -28.5 77q-28.5 29 -76.5 29q-49 0 -77 -28q-28 -28 -28 -76zt0 0zM187 600v127l63 149h56l-52 -155h47l0 -121z"/>
            <glyph unicode="&#292;" horiz-adv-x="714"
                   d="M194 725v-300h326v300h104v-725h-104v331h-326v-331h-104v725zM407 962l96 -175h-60l-86 113l-87 -113h-59l96 175z"/>
            <glyph unicode="&#293;" horiz-adv-x="551"
                   d="M169 725v-270q83 76 163 76q71 0 109.5 -39.5q38.5 -39.5 38.5 -114.5v-377h-94v351q0 101 -81 101q-64 0 -136 -69l0 -383h-94v725zM185 962l96 -175h-60l-86 113l-87 -113h-59l96 175z"/>
            <glyph unicode="&#294;" horiz-adv-x="714"
                   d="M90 619v106h104v-106h326v106h104v-106h83v-84h-83v-535h-104v331h-326v-331h-104v535h-83v84zM520 425v110h-326l0 -110z"/>
            <glyph unicode="&#295;" horiz-adv-x="552"
                   d="M2 653h74v72h94v-72h173v-76h-173v-122q83 76 163 76q71 0 109.5 -39.5q38.5 -39.5 38.5 -114.5v-377h-94v351q0 101 -81 101q-64 0 -136 -69l0 -383h-94v577l-74 0z"/>
            <glyph unicode="&#298;" horiz-adv-x="304" d="M203 725v-725h-104v725zM284 902v-68h-264l0 68z"/>
            <glyph unicode="&#299;" horiz-adv-x="251" d="M174 524v-524h-96v524zM257 708v-68h-264l0 68z"/>
            <glyph unicode="&#302;" horiz-adv-x="304"
                   d="M99 0v725h104v-725q-65 -56 -65 -105q0 -40 44 -40h44v-73h-44q-112 0 -112 85q0 36 23 67q23 31 69 66z"/>
            <glyph unicode="&#303;" horiz-adv-x="251"
                   d="M79 0v524h94v-524q-65 -56 -65 -105q0 -40 44 -40h44v-73h-44q-112 0 -112 85q0 36 23 67q23 31 69 66zM177 725v-101h-103l0 101z"/>
            <glyph unicode="&#304;" horiz-adv-x="304" d="M203 725v-725h-104v725zM200 910v-110h-96l0 110z"/>
            <glyph unicode="&#305;" horiz-adv-x="251" d="M174 524v-524h-96l0 524z"/>
            <glyph unicode="&#306;" horiz-adv-x="734"
                   d="M203 725v-725h-104v725zM636 725v-525q0 -212 -187 -212q-107 0 -166 97l80 58q18 -32 37 -47.5q19 -15.5 47 -15.5q50 0 67.5 29.5q17.5 29.5 17.5 92.5l0 523z"/>
            <glyph unicode="&#307;" horiz-adv-x="488"
                   d="M177 725v-101h-103v101zM173 524v-524h-94v524zM414 725v-101h-102v101zM410 524v-560q0 -78 -27 -116q-27 -38 -100 -38q-16 0 -29.5 2q-13.5 2 -27.5 6l0 81q15 -4 32 -4q35 0 46.5 15q11.5 15 11.5 52l0 562z"/>
            <glyph unicode="&#308;" horiz-adv-x="439"
                   d="M351 725v-525q0 -212 -187 -212q-107 0 -166 97l80 58q18 -32 37 -47.5q19 -15.5 47 -15.5q50 0 67.5 29.5q17.5 29.5 17.5 92.5v523zM347 962l96 -175h-60l-86 113l-87 -113h-59l96 175z"/>
            <glyph unicode="&#309;" horiz-adv-x="259"
                   d="M180 524v-560q0 -78 -27 -116q-27 -38 -100 -38q-16 0 -29.5 2q-13.5 2 -27.5 6l0 81q15 -4 32 -4q35 0 46.5 15q11.5 15 11.5 52v562zM179 759l96 -175h-60l-86 113l-87 -113h-59l96 175z"/>
            <glyph unicode="&#310;" horiz-adv-x="639"
                   d="M195 725v-362l278 362h118l-217 -272l250 -453h-121l-198 366l-110 -137v-229h-104v725zM375 -68v-127l-63 -149h-56l52 155h-47l0 121z"/>
            <glyph unicode="&#311;" horiz-adv-x="495"
                   d="M169 725v-444l201 243h105l-162 -189l178 -335h-104l-138 260l-80 -89v-171h-94v725zM303 -68v-127l-63 -149h-56l52 155h-47l0 121z"/>
            <glyph unicode="&#313;" horiz-adv-x="533"
                   d="M196 725v-632h319v-93h-423v725zM328 962l-145 -175h-59l99 175z"/>
            <glyph unicode="&#314;" horiz-adv-x="251" d="M172 725v-725h-94v725zM257 962l-145 -175h-59l99 175z"/>
            <glyph unicode="&#315;" horiz-adv-x="533"
                   d="M196 725v-632h319v-93h-423v725zM362 -68v-127l-63 -149h-56l52 155h-47l0 121z"/>
            <glyph unicode="&#316;" horiz-adv-x="251"
                   d="M172 725v-725h-94v725zM181 -68v-127l-63 -149h-56l52 155h-47l0 121z"/>
            <glyph unicode="&#317;" horiz-adv-x="533"
                   d="M196 725v-632h319v-93h-423v725zM491 725v-127l-62 -149h-57l53 155h-48l0 121z"/>
            <glyph unicode="&#318;" horiz-adv-x="324"
                   d="M172 725v-725h-94v725zM340 725v-127l-62 -149h-57l53 155h-48l0 121z"/>
            <glyph unicode="&#319;" horiz-adv-x="533" d="M196 725v-632h319v-93h-423v725zM446 426v-110h-96l0 110z"/>
            <glyph unicode="&#320;" horiz-adv-x="338" d="M172 725v-725h-94v725zM346 404v-101h-104l0 101z"/>
            <glyph unicode="&#321;" horiz-adv-x="537"
                   d="M201 725v-287l162 111v-77l-162 -110v-269h320v-93h-424v303l-95 -66v75l95 67l0 346z"/>
            <glyph unicode="&#322;" horiz-adv-x="259"
                   d="M176 725v-295l81 56v-69l-81 -56v-361h-94v308l-80 -55v68l80 56l0 348z"/>
            <glyph unicode="&#323;" horiz-adv-x="714"
                   d="M217 725l231 -398q21 -37 42 -75.5q21 -38.5 41 -80.5q-2 32 -3 68q-1 36 -1 77v409h98v-725h-91l-261 434q-20 32 -42 73.5q-22 41.5 -48 92.5q2 -35 3 -73.5q1 -38.5 1 -80.5v-446h-98v725zM489 962l-145 -175h-59l99 175z"/>
            <glyph unicode="&#324;" horiz-adv-x="543"
                   d="M472 0h-95v351q0 101 -77 101q-62 0 -131 -69l0 -383h-94v524h87v-72q44 39 83 59q39 20 84 20q68 0 105.5 -39.5q37.5 -39.5 37.5 -114.5zM403 759l-145 -175h-59l99 175z"/>
            <glyph unicode="&#325;" horiz-adv-x="714"
                   d="M217 725l231 -398q21 -37 42 -75.5q21 -38.5 41 -80.5q-2 32 -3 68q-1 36 -1 77v409h98v-725h-91l-261 434q-20 32 -42 73.5q-22 41.5 -48 92.5q2 -35 3 -73.5q1 -38.5 1 -80.5v-446h-98v725zM413 -68v-127l-63 -149h-56l52 155h-47l0 121z"/>
            <glyph unicode="&#326;" horiz-adv-x="543"
                   d="M472 0h-95v351q0 101 -77 101q-62 0 -131 -69l0 -383h-94v524h87v-72q44 39 83 59q39 20 84 20q68 0 105.5 -39.5q37.5 -39.5 37.5 -114.5zM327 -68v-127l-63 -149h-56l52 155h-47l0 121z"/>
            <glyph unicode="&#327;" horiz-adv-x="714"
                   d="M217 725l231 -398q21 -37 42 -75.5q21 -38.5 41 -80.5q-2 32 -3 68q-1 36 -1 77v409h98v-725h-91l-261 434q-20 32 -42 73.5q-22 41.5 -48 92.5q2 -35 3 -73.5q1 -38.5 1 -80.5v-446h-98v725zM270 962l87 -114l86 114h60l-96 -175h-100l-96 175z"/>
            <glyph unicode="&#328;" horiz-adv-x="543"
                   d="M472 0h-95v351q0 101 -77 101q-62 0 -131 -69l0 -383h-94v524h87v-72q44 39 83 59q39 20 84 20q68 0 105.5 -39.5q37.5 -39.5 37.5 -114.5zM184 759l87 -114l86 114h60l-96 -175h-100l-96 175z"/>
            <glyph unicode="&#332;" horiz-adv-x="670"
                   d="M335 735q67 0 121 -25.5q54 -25.5 92 -73.5q38 -48 59 -117q21 -69 21 -157q0 -87 -21 -156.5q-21 -69.5 -59 -118q-38 -48.5 -92.5 -74q-54.5 -25.5 -120.5 -25.5q-67 0 -121 25.5q-54 25.5 -92.5 74q-38.5 48.5 -59 118q-20.5 69.5 -20.5 156.5q0 88 20.5 157q20.5 69 59 117q38.5 48 92.5 73.5q54 25.5 121 25.5zt0 0zM335 643q-88 0 -137 -71.5q-49 -71.5 -49 -209.5q0 -137 49 -209q49 -72 137 -72q88 0 137 72q49 72 49 209q0 137 -49 209q-49 72 -137 72zt0 0zM467 902v-68h-264l0 68z"/>
            <glyph unicode="&#333;" horiz-adv-x="504"
                   d="M252 533q104 0 162 -70q58 -70 58 -201q0 -131 -58 -201.5q-58 -70.5 -162 -70.5q-104 0 -162.5 70.5q-58.5 70.5 -58.5 201.5q0 131 58.5 201q58.5 70 162.5 70zt0 0zM252 451q-124 0 -124 -189q0 -190 124 -190q60 0 92 47.5q32 47.5 32 141.5q0 190 -124 190zt0 0zM384 708v-68h-264l0 68z"/>
            <glyph unicode="&#334;" horiz-adv-x="670"
                   d="M335 735q67 0 121 -25.5q54 -25.5 92 -73.5q38 -48 59 -117q21 -69 21 -157q0 -87 -21 -156.5q-21 -69.5 -59 -118q-38 -48.5 -92.5 -74q-54.5 -25.5 -120.5 -25.5q-67 0 -121 25.5q-54 25.5 -92.5 74q-38.5 48.5 -59 118q-20.5 69.5 -20.5 156.5q0 88 20.5 157q20.5 69 59 117q38.5 48 92.5 73.5q54 25.5 121 25.5zt0 0zM335 643q-88 0 -137 -71.5q-49 -71.5 -49 -209.5q0 -137 49 -209q49 -72 137 -72q88 0 137 72q49 72 49 209q0 137 -49 209q-49 72 -137 72zt0 0zM243 921q3 -38 25 -55q22 -17 67 -17q45 0 67 17q22 17 25 55l51 0q-5 -72 -39.5 -106q-34.5 -34 -103.5 -34q-69 0 -104 34q-35 34 -40 106z"/>
            <glyph unicode="&#335;" horiz-adv-x="504"
                   d="M252 533q104 0 162 -70q58 -70 58 -201q0 -131 -58 -201.5q-58 -70.5 -162 -70.5q-104 0 -162.5 70.5q-58.5 70.5 -58.5 201.5q0 131 58.5 201q58.5 70 162.5 70zt0 0zM252 451q-124 0 -124 -189q0 -190 124 -190q60 0 92 47.5q32 47.5 32 141.5q0 190 -124 190zt0 0zM160 741q3 -38 25 -55q22 -17 67 -17q45 0 67 17q22 17 25 55l51 0q-5 -72 -39.5 -106q-34.5 -34 -103.5 -34q-69 0 -104 34q-35 34 -40 106z"/>
            <glyph unicode="&#336;" horiz-adv-x="670"
                   d="M335 735q67 0 121 -25.5q54 -25.5 92 -73.5q38 -48 59 -117q21 -69 21 -157q0 -87 -21 -156.5q-21 -69.5 -59 -118q-38 -48.5 -92.5 -74q-54.5 -25.5 -120.5 -25.5q-67 0 -121 25.5q-54 25.5 -92.5 74q-38.5 48.5 -59 118q-20.5 69.5 -20.5 156.5q0 88 20.5 157q20.5 69 59 117q38.5 48 92.5 73.5q54 25.5 121 25.5zt0 0zM335 643q-88 0 -137 -71.5q-49 -71.5 -49 -209.5q0 -137 49 -209q49 -72 137 -72q88 0 137 72q49 72 49 209q0 137 -49 209q-49 72 -137 72zt0 0zM392 962l-110 -175h-46l66 175zM535 962l-123 -175h-48l79 175z"/>
            <glyph unicode="&#337;" horiz-adv-x="504"
                   d="M252 533q104 0 162 -70q58 -70 58 -201q0 -131 -58 -201.5q-58 -70.5 -162 -70.5q-104 0 -162.5 70.5q-58.5 70.5 -58.5 201.5q0 131 58.5 201q58.5 70 162.5 70zt0 0zM252 451q-124 0 -124 -189q0 -190 124 -190q60 0 92 47.5q32 47.5 32 141.5q0 190 -124 190zt0 0zM309 759l-110 -175h-46l66 175zM452 759l-123 -175h-48l79 175z"/>
            <glyph unicode="&#338;" horiz-adv-x="952"
                   d="M486 725h420v-90h-319v-211h226v-89h-226v-242h335v-93h-436v68q-58 -80 -167 -80q-64 0 -116 25q-52 25 -88.5 73q-36.5 48 -56.5 117.5q-20 69.5 -20 158.5q0 89 19.5 158.5q19.5 69.5 56.5 117q37 47.5 89.5 72.5q52.5 25 117.5 25q53 0 93 -18q40 -18 72 -57zM484 512q0 10 -9 32.5q-9 22.5 -27 43.5q-24 28 -53.5 41.5q-29.5 13.5 -67.5 13.5q-88 0 -135 -71q-47 -71 -47 -210q0 -138 47.5 -209.5q47.5 -71.5 134.5 -71.5q39 0 68.5 14q29.5 14 55.5 44q17 20 25 39.5q8 19.5 8 32.5z"/>
            <glyph unicode="&#339;" horiz-adv-x="827"
                   d="M421 75q-60 -84 -168 -84q-104 0 -163 69.5q-59 69.5 -59 200.5q0 131 59 201.5q59 70.5 162 70.5q111 0 170 -86q60 84 163 84q100 0 154.5 -69q54.5 -69 54.5 -199v-20h-325v-12q0 -78 34.5 -120q34.5 -42 95.5 -42q86 0 129 82l69 -44q-64 -118 -201 -118q-61 0 -103 19.5q-42 19.5 -72 66.5zt0 0zM128 262q0 -95 32 -142.5q32 -47.5 92 -47.5q124 0 124 189q0 95 -32 142.5q-32 47.5 -92 47.5q-60 0 -92 -47.5q-32 -47.5 -32 -141.5zt0 0zM697 317q-2 66 -32 102.5q-30 36.5 -80 36.5q-52 0 -82 -36q-30 -36 -32 -103z"/>
            <glyph unicode="&#340;" horiz-adv-x="659"
                   d="M312 725q143 0 212.5 -48q69.5 -48 69.5 -155q0 -144 -143 -185l166 -337h-114l-151 313h-159v-313h-103v725zM193 402h120q89 0 132 27.5q43 27.5 43 89.5q0 66 -41.5 92q-41.5 26 -131.5 26h-122zM461 962l-145 -175h-59l99 175z"/>
            <glyph unicode="&#341;" horiz-adv-x="333"
                   d="M326 432h-8q-46 0 -84 -32.5q-38 -32.5 -62 -95.5l0 -304h-97v524h93v-105q52 112 142 112q4 0 7.5 0q3.5 0 8.5 -1zM328 759l-145 -175h-59l99 175z"/>
            <glyph unicode="&#342;" horiz-adv-x="659"
                   d="M312 725q143 0 212.5 -48q69.5 -48 69.5 -155q0 -144 -143 -185l166 -337h-114l-151 313h-159v-313h-103v725zM193 402h120q89 0 132 27.5q43 27.5 43 89.5q0 66 -41.5 92q-41.5 26 -131.5 26h-122zM385 -68v-127l-63 -149h-56l52 155h-47l0 121z"/>
            <glyph unicode="&#343;" horiz-adv-x="333"
                   d="M326 432h-8q-46 0 -84 -32.5q-38 -32.5 -62 -95.5l0 -304h-97v524h93v-105q52 112 142 112q4 0 7.5 0q3.5 0 8.5 -1zM222 -68v-127l-63 -149h-56l52 155h-47l0 121z"/>
            <glyph unicode="&#344;" horiz-adv-x="659"
                   d="M312 725q143 0 212.5 -48q69.5 -48 69.5 -155q0 -144 -143 -185l166 -337h-114l-151 313h-159v-313h-103v725zM193 402h120q89 0 132 27.5q43 27.5 43 89.5q0 66 -41.5 92q-41.5 26 -131.5 26h-122zM242 962l87 -114l86 114h60l-96 -175h-100l-96 175z"/>
            <glyph unicode="&#345;" horiz-adv-x="333"
                   d="M326 432h-8q-46 0 -84 -32.5q-38 -32.5 -62 -95.5l0 -304h-97v524h93v-105q52 112 142 112q4 0 7.5 0q3.5 0 8.5 -1zM79 759l87 -114l86 114h60l-96 -175h-100l-96 175z"/>
            <glyph unicode="&#346;" horiz-adv-x="571"
                   d="M416 535q-20 57 -57.5 84.5q-37.5 27.5 -90.5 27.5q-48 0 -76 -25.5q-28 -25.5 -28 -64.5q0 -24 8.5 -43q8.5 -19 25.5 -34.5q17 -15.5 42.5 -29q25.5 -13.5 59.5 -27.5q43 -18 83 -35q40 -17 72 -44q71 -59 71 -149q0 -45 -16.5 -83q-16.5 -38 -47 -65.5q-30.5 -27.5 -73.5 -42.5q-43 -15 -96 -15q-97 0 -164 47q-67 47 -98 138l97 38q23 -65 66.5 -99q43.5 -34 101.5 -34q58 0 92 32q34 32 34 81q0 27 -11 46.5q-11 19.5 -32 35q-21 15.5 -52.5 29.5q-31.5 14 -71.5 31q-49 20 -86.5 40.5q-37.5 20.5 -62.5 44.5q-25 24 -37.5 54q-12.5 30 -12.5 69q0 41 16 76q16 35 45 61q29 26 69.5 41q40.5 15 90.5 15q88 0 148 -43.5q60 -43.5 85 -125.5zM417 962l-145 -175h-59l99 175z"/>
            <glyph unicode="&#347;" horiz-adv-x="437"
                   d="M328 392q-55 64 -117 64q-35 0 -55.5 -17q-20.5 -17 -20.5 -44q0 -31 24.5 -47q24.5 -16 71.5 -33q42 -16 74.5 -31.5q32.5 -15.5 54.5 -35q22 -19.5 33.5 -44q11.5 -24.5 11.5 -57.5q0 -35 -13 -64q-13 -29 -37.5 -49.5q-24.5 -20.5 -58.5 -32q-34 -11.5 -76 -11.5q-62 0 -113.5 26q-51.5 26 -86.5 76l69 55q31 -40 64 -60q33 -20 72 -20q40 0 63.5 20.5q23.5 20.5 23.5 51.5q0 22 -9.5 36q-9.5 14 -26 24q-16.5 10 -40.5 18.5q-24 8.5 -52 19.5q-72 28 -107.5 60.5q-35.5 32.5 -35.5 90.5q0 31 12 57.5q12 26.5 34 46q22 19.5 53 30.5q31 11 69 11q108 0 180 -84zM350 759l-145 -175h-59l99 175z"/>
            <glyph unicode="&#348;" horiz-adv-x="571"
                   d="M416 535q-20 57 -57.5 84.5q-37.5 27.5 -90.5 27.5q-48 0 -76 -25.5q-28 -25.5 -28 -64.5q0 -24 8.5 -43q8.5 -19 25.5 -34.5q17 -15.5 42.5 -29q25.5 -13.5 59.5 -27.5q43 -18 83 -35q40 -17 72 -44q71 -59 71 -149q0 -45 -16.5 -83q-16.5 -38 -47 -65.5q-30.5 -27.5 -73.5 -42.5q-43 -15 -96 -15q-97 0 -164 47q-67 47 -98 138l97 38q23 -65 66.5 -99q43.5 -34 101.5 -34q58 0 92 32q34 32 34 81q0 27 -11 46.5q-11 19.5 -32 35q-21 15.5 -52.5 29.5q-31.5 14 -71.5 31q-49 20 -86.5 40.5q-37.5 20.5 -62.5 44.5q-25 24 -37.5 54q-12.5 30 -12.5 69q0 41 16 76q16 35 45 61q29 26 69.5 41q40.5 15 90.5 15q88 0 148 -43.5q60 -43.5 85 -125.5zM335 962l96 -175h-60l-86 113l-87 -113h-59l96 175z"/>
            <glyph unicode="&#349;" horiz-adv-x="437"
                   d="M328 392q-55 64 -117 64q-35 0 -55.5 -17q-20.5 -17 -20.5 -44q0 -31 24.5 -47q24.5 -16 71.5 -33q42 -16 74.5 -31.5q32.5 -15.5 54.5 -35q22 -19.5 33.5 -44q11.5 -24.5 11.5 -57.5q0 -35 -13 -64q-13 -29 -37.5 -49.5q-24.5 -20.5 -58.5 -32q-34 -11.5 -76 -11.5q-62 0 -113.5 26q-51.5 26 -86.5 76l69 55q31 -40 64 -60q33 -20 72 -20q40 0 63.5 20.5q23.5 20.5 23.5 51.5q0 22 -9.5 36q-9.5 14 -26 24q-16.5 10 -40.5 18.5q-24 8.5 -52 19.5q-72 28 -107.5 60.5q-35.5 32.5 -35.5 90.5q0 31 12 57.5q12 26.5 34 46q22 19.5 53 30.5q31 11 69 11q108 0 180 -84zM268 759l96 -175h-60l-86 113l-87 -113h-59l96 175z"/>
            <glyph unicode="&#350;" horiz-adv-x="571"
                   d="M416 535q-20 57 -57.5 84.5q-37.5 27.5 -90.5 27.5q-48 0 -76 -25.5q-28 -25.5 -28 -64.5q0 -24 8.5 -43q8.5 -19 25.5 -34.5q17 -15.5 42.5 -29q25.5 -13.5 59.5 -27.5q43 -18 83 -35q40 -17 72 -44q71 -59 71 -149q0 -44 -15.5 -81q-15.5 -37 -44 -64q-28.5 -27 -69.5 -43q-41 -16 -91 -18l0 -37h10q55 0 83.5 -22q28.5 -22 28.5 -64q0 -96 -125 -96q-22 0 -53.5 4.5q-31.5 4.5 -72.5 15.5l0 52q80 -19 123 -19q54 0 54 38q0 23 -15.5 32.5q-15.5 9.5 -49.5 9.5q-6 0 -12 0q-6 0 -13 -1l0 88q-86 7 -145 53.5q-59 46.5 -88 130.5l97 38q23 -65 66.5 -99q43.5 -34 101.5 -34q58 0 92 32q34 32 34 81q0 27 -11 46.5q-11 19.5 -32 35q-21 15.5 -52.5 29.5q-31.5 14 -71.5 31q-49 20 -86.5 40.5q-37.5 20.5 -62.5 44.5q-25 24 -37.5 54q-12.5 30 -12.5 69q0 41 16 76q16 35 45 61q29 26 69.5 41q40.5 15 90.5 15q88 0 148 -43.5q60 -43.5 85 -125.5z"/>
            <glyph unicode="&#351;" horiz-adv-x="437"
                   d="M328 392q-55 64 -117 64q-35 0 -55.5 -17q-20.5 -17 -20.5 -44q0 -31 24.5 -47q24.5 -16 71.5 -33q42 -16 74.5 -31.5q32.5 -15.5 54.5 -35q22 -19.5 33.5 -44q11.5 -24.5 11.5 -57.5q0 -66 -45 -108.5q-45 -42.5 -121 -47.5l0 -39h10q55 0 83.5 -22q28.5 -22 28.5 -64q0 -96 -125 -96q-22 0 -53.5 4.5q-31.5 4.5 -72.5 15.5l0 52q80 -19 123 -19q54 0 54 38q0 23 -15.5 32.5q-15.5 9.5 -49.5 9.5q-6 0 -12 0q-6 0 -13 -1l0 89q-55 5 -100 30.5q-45 25.5 -77 70.5l69 55q31 -40 64 -60q33 -20 72 -20q40 0 63.5 20.5q23.5 20.5 23.5 51.5q0 22 -9.5 36q-9.5 14 -26 24q-16.5 10 -40.5 18.5q-24 8.5 -52 19.5q-72 28 -107.5 60.5q-35.5 32.5 -35.5 90.5q0 31 12 57.5q12 26.5 34 46q22 19.5 53 30.5q31 11 69 11q108 0 180 -84z"/>
            <glyph unicode="&#352;" horiz-adv-x="571"
                   d="M416 535q-20 57 -57.5 84.5q-37.5 27.5 -90.5 27.5q-48 0 -76 -25.5q-28 -25.5 -28 -64.5q0 -24 8.5 -43q8.5 -19 25.5 -34.5q17 -15.5 42.5 -29q25.5 -13.5 59.5 -27.5q43 -18 83 -35q40 -17 72 -44q71 -59 71 -149q0 -45 -16.5 -83q-16.5 -38 -47 -65.5q-30.5 -27.5 -73.5 -42.5q-43 -15 -96 -15q-97 0 -164 47q-67 47 -98 138l97 38q23 -65 66.5 -99q43.5 -34 101.5 -34q58 0 92 32q34 32 34 81q0 27 -11 46.5q-11 19.5 -32 35q-21 15.5 -52.5 29.5q-31.5 14 -71.5 31q-49 20 -86.5 40.5q-37.5 20.5 -62.5 44.5q-25 24 -37.5 54q-12.5 30 -12.5 69q0 41 16 76q16 35 45 61q29 26 69.5 41q40.5 15 90.5 15q88 0 148 -43.5q60 -43.5 85 -125.5zM199 962l87 -114l86 114h60l-96 -175h-100l-96 175z"/>
            <glyph unicode="&#353;" horiz-adv-x="437"
                   d="M328 392q-55 64 -117 64q-35 0 -55.5 -17q-20.5 -17 -20.5 -44q0 -31 24.5 -47q24.5 -16 71.5 -33q42 -16 74.5 -31.5q32.5 -15.5 54.5 -35q22 -19.5 33.5 -44q11.5 -24.5 11.5 -57.5q0 -35 -13 -64q-13 -29 -37.5 -49.5q-24.5 -20.5 -58.5 -32q-34 -11.5 -76 -11.5q-62 0 -113.5 26q-51.5 26 -86.5 76l69 55q31 -40 64 -60q33 -20 72 -20q40 0 63.5 20.5q23.5 20.5 23.5 51.5q0 22 -9.5 36q-9.5 14 -26 24q-16.5 10 -40.5 18.5q-24 8.5 -52 19.5q-72 28 -107.5 60.5q-35.5 32.5 -35.5 90.5q0 31 12 57.5q12 26.5 34 46q22 19.5 53 30.5q31 11 69 11q108 0 180 -84zM132 759l87 -114l86 114h60l-96 -175h-100l-96 175z"/>
            <glyph unicode="&#354;" horiz-adv-x="554"
                   d="M223 0v633h-202v92h511v-92h-202v-633h-32v-48h10q55 0 83.5 -22q28.5 -22 28.5 -64q0 -96 -125 -96q-22 0 -53.5 4.5q-31.5 4.5 -72.5 15.5l0 52q80 -19 123 -19q54 0 54 38q0 23 -15.5 32.5q-15.5 9.5 -49.5 9.5q-6 0 -12 0q-6 0 -13 -1l0 98z"/>
            <glyph unicode="&#355;" horiz-adv-x="314"
                   d="M182 692v-168h115v-80h-115v-304q0 -35 11 -51q11 -16 48 -16q14 0 28 1q14 1 28 5l0 -79q-33 -10 -87 -10q-9 0 -16.5 0.5q-7.5 0.5 -15.5 1.5l0 -40h10q55 0 83.5 -22q28.5 -22 28.5 -64q0 -96 -125 -96q-22 0 -53.5 4.5q-31.5 4.5 -72.5 15.5l0 52q80 -19 123 -19q54 0 54 38q0 23 -15.5 32.5q-15.5 9.5 -49.5 9.5q-6 0 -12 0q-6 0 -13 -1l0 102q-48 25 -48 97v343h-74v80h74l0 168z"/>
            <glyph unicode="&#356;" horiz-adv-x="554"
                   d="M532 725v-92h-202v-633h-107v633h-202v92zM190 962l87 -114l86 114h60l-96 -175h-100l-96 175z"/>
            <glyph unicode="&#357;" horiz-adv-x="314"
                   d="M182 692v-168h115v-80h-115v-304q0 -35 11 -51q11 -16 48 -16q14 0 28 1q14 1 28 5l0 -79q-33 -10 -87 -10q-63 0 -92.5 27q-29.5 27 -29.5 84v343h-74v80h74v168zM342 845v-127l-62 -149h-57l53 155h-48l0 121z"/>
            <glyph unicode="&#360;" horiz-adv-x="712"
                   d="M193 725v-459q0 -96 36.5 -141.5q36.5 -45.5 127.5 -45.5q92 0 127.5 46q35.5 46 35.5 141v459h103v-481q0 -127 -69 -191.5q-69 -64.5 -203 -64.5q-130 0 -196 67q-66 67 -66 200v470zM503 926q-26 -105 -99 -105q-19 0 -33 5l-41 13q-8 3 -15.5 4q-7.5 1 -11.5 1q-34 0 -47 -35l-48 0q22 102 98 102q9 0 17.5 -1q8.5 -1 17.5 -4l41 -13q17 -5 28 -5q34 0 46 38z"/>
            <glyph unicode="&#361;" horiz-adv-x="543"
                   d="M166 524v-352q0 -52 17.5 -76.5q17.5 -24.5 59.5 -24.5q62 0 130 69l0 384h95v-524h-88v71q-44 -39 -83.5 -59q-39.5 -20 -84.5 -20q-67 0 -104 39.5q-37 39.5 -37 114.5v378zM418 726q-26 -105 -99 -105q-19 0 -33 5l-41 13q-8 3 -15.5 4q-7.5 1 -11.5 1q-34 0 -47 -35l-48 0q22 102 98 102q9 0 17.5 -1q8.5 -1 17.5 -4l41 -13q17 -5 28 -5q34 0 46 38z"/>
            <glyph unicode="&#362;" horiz-adv-x="712"
                   d="M193 725v-459q0 -96 36.5 -141.5q36.5 -45.5 127.5 -45.5q92 0 127.5 46q35.5 46 35.5 141v459h103v-481q0 -127 -69 -191.5q-69 -64.5 -203 -64.5q-130 0 -196 67q-66 67 -66 200v470zM488 902v-68h-264l0 68z"/>
            <glyph unicode="&#363;" horiz-adv-x="543"
                   d="M166 524v-352q0 -52 17.5 -76.5q17.5 -24.5 59.5 -24.5q62 0 130 69l0 384h95v-524h-88v71q-44 -39 -83.5 -59q-39.5 -20 -84.5 -20q-67 0 -104 39.5q-37 39.5 -37 114.5v378zM403 708v-68h-264l0 68z"/>
            <glyph unicode="&#364;" horiz-adv-x="712"
                   d="M193 725v-459q0 -96 36.5 -141.5q36.5 -45.5 127.5 -45.5q92 0 127.5 46q35.5 46 35.5 141v459h103v-481q0 -127 -69 -191.5q-69 -64.5 -203 -64.5q-130 0 -196 67q-66 67 -66 200v470zM264 921q3 -38 25 -55q22 -17 67 -17q45 0 67 17q22 17 25 55l51 0q-5 -72 -39.5 -106q-34.5 -34 -103.5 -34q-69 0 -104 34q-35 34 -40 106z"/>
            <glyph unicode="&#365;" horiz-adv-x="543"
                   d="M166 524v-352q0 -52 17.5 -76.5q17.5 -24.5 59.5 -24.5q62 0 130 69l0 384h95v-524h-88v71q-44 -39 -83.5 -59q-39.5 -20 -84.5 -20q-67 0 -104 39.5q-37 39.5 -37 114.5v378zM179 741q3 -38 25 -55q22 -17 67 -17q45 0 67 17q22 17 25 55l51 0q-5 -72 -39.5 -106q-34.5 -34 -103.5 -34q-69 0 -104 34q-35 34 -40 106z"/>
            <glyph unicode="&#366;" horiz-adv-x="712"
                   d="M193 725v-459q0 -96 36.5 -141.5q36.5 -45.5 127.5 -45.5q92 0 127.5 46q35.5 46 35.5 141v459h103v-481q0 -127 -69 -191.5q-69 -64.5 -203 -64.5q-130 0 -196 67q-66 67 -66 200v470zM356 963q26 0 49 -9.5q23 -9.5 40 -26.5q17 -17 26.5 -40q9.5 -23 9.5 -49q0 -26 -9.5 -49q-9.5 -23 -26.5 -40q-17 -17 -40 -26.5q-23 -9.5 -49 -9.5q-26 0 -49 9.5q-23 9.5 -40 26.5q-17 17 -26.5 40q-9.5 23 -9.5 49q0 26 9.5 49q9.5 23 26.5 40q17 17 40 26.5q23 9.5 49 9.5zt0 0zM356 903q-28 0 -46.5 -18.5q-18.5 -18.5 -18.5 -46.5q0 -28 18.5 -46.5q18.5 -18.5 46.5 -18.5q28 0 47 18.5q19 18.5 19 46.5q0 27 -19.5 46t-46.5 19z"/>
            <glyph unicode="&#367;" horiz-adv-x="543"
                   d="M166 524v-352q0 -52 17.5 -76.5q17.5 -24.5 59.5 -24.5q62 0 130 69l0 384h95v-524h-88v71q-44 -39 -83.5 -59q-39.5 -20 -84.5 -20q-67 0 -104 39.5q-37 39.5 -37 114.5v378zM271 824q26 0 49 -9.5q23 -9.5 40 -26.5q17 -17 26.5 -40q9.5 -23 9.5 -49q0 -26 -9.5 -49q-9.5 -23 -26.5 -40q-17 -17 -40 -26.5q-23 -9.5 -49 -9.5q-26 0 -49 9.5q-23 9.5 -40 26.5q-17 17 -26.5 40q-9.5 23 -9.5 49q0 26 9.5 49q9.5 23 26.5 40q17 17 40 26.5q23 9.5 49 9.5zt0 0zM271 764q-28 0 -46.5 -18.5q-18.5 -18.5 -18.5 -46.5q0 -28 18.5 -46.5q18.5 -18.5 46.5 -18.5q28 0 47 18.5q19 18.5 19 46.5q0 27 -19.5 46t-46.5 19z"/>
            <glyph unicode="&#368;" horiz-adv-x="712"
                   d="M193 725v-459q0 -96 36.5 -141.5q36.5 -45.5 127.5 -45.5q92 0 127.5 46q35.5 46 35.5 141v459h103v-481q0 -127 -69 -191.5q-69 -64.5 -203 -64.5q-130 0 -196 67q-66 67 -66 200v470zM413 962l-110 -175h-46l66 175zM556 962l-123 -175h-48l79 175z"/>
            <glyph unicode="&#369;" horiz-adv-x="543"
                   d="M166 524v-352q0 -52 17.5 -76.5q17.5 -24.5 59.5 -24.5q62 0 130 69l0 384h95v-524h-88v71q-44 -39 -83.5 -59q-39.5 -20 -84.5 -20q-67 0 -104 39.5q-37 39.5 -37 114.5v378zM328 759l-110 -175h-46l66 175zM471 759l-123 -175h-48l79 175z"/>
            <glyph unicode="&#370;" horiz-adv-x="712"
                   d="M193 725v-459q0 -96 36.5 -141.5q36.5 -45.5 127.5 -45.5q92 0 127.5 46q35.5 46 35.5 141v459h103v-481q0 -100 -43 -161q-43 -61 -127 -83l1 0q-65 -56 -65 -105q0 -40 44 -40h44v-73h-44q-112 0 -112 85q0 34 20 63q20 29 59 61q-23 -3 -49 -3q-130 0 -196 67q-66 67 -66 200l0 470z"/>
            <glyph unicode="&#371;" horiz-adv-x="543"
                   d="M380 0v71q-44 -39 -83.5 -59q-39.5 -20 -84.5 -20q-67 0 -104 39.5q-37 39.5 -37 114.5v378h95v-352q0 -52 17.5 -76.5q17.5 -24.5 59.5 -24.5q62 0 130 69l0 384h95v-524q-65 -56 -65 -105q0 -40 44 -40h44v-73h-44q-112 0 -112 85q0 36 23 67q23 31 69 66z"/>
            <glyph unicode="&#376;" horiz-adv-x="554"
                   d="M121 725l158 -320l158 320h107l-214 -427v-298h-105v297l-216 428zM224 820h-101v101h101zM430 820h-101v101l101 0z"/>
            <glyph unicode="&#377;" horiz-adv-x="546"
                   d="M508 725v-79l-361 -554h362v-92h-481v82l360 553h-330v90zM405 962l-145 -175h-59l99 175z"/>
            </font>
</defs>
</svg>
