<?xml version="1.0" standalone="no"?>
<!DOCTYPE svg PUBLIC "-//W3C//DTD SVG 1.1//EN" "http://www.w3.org/Graphics/SVG/1.1/DTD/svg11.dtd" >
<svg xmlns="http://www.w3.org/2000/svg">
    <metadata>
        Generated by SVGconv.
        Copyright : Copyright 1990-2003 Bitstream Inc. All rights reserved. Partial Copyright 2005, ParaType Inc,
        ParaType Ltd. All rights reserved.
        Designer : Morris F. Benton, Dmitry Kirsanov
        Foundry : ParaType Ltd
        Foundry URL : http://www.paratype.com
    </metadata>
    <defs>
        <font id="NewsGothicBTWeb-Bold" horiz-adv-x="566">
            <font-face units-per-em="1000" ascent="1017" descent="369"/>
            <missing-glyph horiz-adv-x="500"/>
            <glyph unicode="&#13;" horiz-adv-x="301"/>
            <glyph unicode="&#32;" horiz-adv-x="301"/>
            <glyph unicode="&#33;" horiz-adv-x="324" d="M92 144h134v-144h-134zM87 727h144l-26 -482l-93 0z"/>
            <glyph unicode="&#34;" horiz-adv-x="314" d="M122 701v-272h-80v272zM273 701v-272h-80l0 272z"/>
            <glyph unicode="&#35;" horiz-adv-x="606"
                   d="M374 713l-75 -213h112l76 213h93l-75 -213h120l-29 -84h-121l-44 -123h120l-30 -84h-119l-76 -212h-93l76 212h-113l-77 -212h-93l76 212h-121l30 84h120l44 123h-120l30 84h120l76 213zM224 292h115l44 124l-115 0z"/>
            <glyph unicode="&#36;" horiz-adv-x="606"
                   d="M125 205q34 -44 68 -67.5q34 -23.5 72 -27.5l0 214q-112 24 -165 73.5q-53 49.5 -53 133.5q0 85 57 137.5q57 52.5 161 57.5l0 68h62v-68q63 -6 113 -32q50 -26 94 -74l-79 -83q-28 39 -59 59.5q-31 20.5 -69 23.5l0 -194q60 -15 103 -34.5q43 -19.5 71 -46q28 -26.5 41.5 -61.5q13.5 -35 13.5 -81q0 -45 -16 -82q-16 -37 -45.5 -63.5q-29.5 -26.5 -72 -41.5q-42.5 -15 -95.5 -16l0 -99h-62v99q-69 7 -124 37.5q-55 30.5 -97 87.5zM265 625q-53 -2 -80 -24.5q-27 -22.5 -27 -61.5q0 -39 25.5 -60q25.5 -21 81.5 -32zM327 107q110 0 110 90q0 46 -26.5 70.5q-26.5 24.5 -83.5 36.5z"/>
            <glyph unicode="&#37;" horiz-adv-x="880"
                   d="M31 556q0 38 14 71q14 33 38 57q24 24 57 38q33 14 71 14q38 0 71 -14q33 -14 57 -38.5q24 -24.5 38 -57.5q14 -33 14 -70q0 -38 -14.5 -71q-14.5 -33 -39 -57q-24.5 -24 -57 -38q-32.5 -14 -69.5 -14q-37 0 -70 14q-33 14 -57.5 38q-24.5 24 -38.5 57q-14 33 -14 71zt0 0zM129 556q0 -35 24 -58q24 -23 58 -23q34 0 57.5 23q23.5 23 23.5 58q0 34 -23 57.5q-23 23.5 -58 23.5q-35 0 -58.5 -23.5q-23.5 -23.5 -23.5 -57.5zt0 0zM613 736h84l-432 -748h-83zM488 169q0 38 14 70.5q14 32.5 38 56.5q24 24 57 38q33 14 71 14q38 0 71 -14q33 -14 57 -38q24 -24 38 -57q14 -33 14 -70q0 -38 -14.5 -71q-14.5 -33 -39 -57.5q-24.5 -24.5 -57 -38.5q-32.5 -14 -69.5 -14q-37 0 -70 14q-33 14 -57.5 38.5q-24.5 24.5 -38.5 57.5q-14 33 -14 71zt0 0zM587 169q0 -35 23.5 -58.5q23.5 -23.5 57.5 -23.5q34 0 58 23.5q24 23.5 24 58.5q0 34 -23.5 57.5q-23.5 23.5 -58.5 23.5q-35 0 -58 -23.5t-23 -57.5z"/>
            <glyph unicode="&#38;" horiz-adv-x="659"
                   d="M157 393q-57 76 -57 161q0 85 46 133.5q46 48.5 128 48.5q84 0 130.5 -44q46.5 -44 46.5 -118q0 -58 -31.5 -106.5q-31.5 -48.5 -97.5 -98.5q23 -32 54.5 -65q31.5 -33 69.5 -68q17 29 31.5 61.5q14.5 32.5 26.5 68.5l113 -34q-17 -48 -38 -91q-21 -43 -50 -85q29 -19 53 -30q24 -11 45 -13l0 -131q-48 2 -90 22q-42 20 -85 58q-45 -40 -93.5 -59q-48.5 -19 -105.5 -19q-48 0 -87.5 16q-39.5 16 -67.5 44.5q-28 28.5 -43.5 67.5q-15.5 39 -15.5 86q0 60 29 106q29 46 89 89zt0 0zM359 144q-34 36 -67.5 74q-33.5 38 -66.5 80q-54 -32 -54 -92q0 -21 8.5 -39.5q8.5 -18.5 22.5 -32q14 -13.5 33.5 -21.5q19.5 -8 42.5 -8q43 0 81 39zt0 0zM254 461q39 20 60 54q21 34 21 63q0 36 -15 54.5q-15 18.5 -42 18.5q-29 0 -45.5 -20q-16.5 -20 -16.5 -58q0 -26 9 -54t29 -58z"/>
            <glyph unicode="&#39;" horiz-adv-x="163" d="M122 701v-272h-80l0 272z"/>
            <glyph unicode="&#40;" horiz-adv-x="324"
                   d="M181 -87q-69 94 -103 195.5q-34 101.5 -34 215.5q0 224 137 412l113 0q-70 -100 -104 -200q-34 -100 -34 -212q0 -112 34 -211.5q34 -99.5 104 -199.5l-113 0z"/>
            <glyph unicode="&#41;" horiz-adv-x="324"
                   d="M25 -87q70 100 104 199.5q34 99.5 34 211.5q0 112 -34 212q-34 100 -104 200l114 0q136 -187 136 -412q0 -224 -136 -411l-114 0z"/>
            <glyph unicode="&#42;" horiz-adv-x="500"
                   d="M169 321l-82 61l124 124l-173 30l32 96l156 -80l-23 175h94l-23 -175l156 80l32 -96l-173 -30l124 -124l-82 -61l-81 157z"/>
            <glyph unicode="&#43;" horiz-adv-x="833" d="M458 596v-257h251v-81h-251v-258h-83v258h-251v81h251l0 257z"/>
            <glyph unicode="&#44;" horiz-adv-x="303" d="M83 145h137v-151l-67 -143h-63l48 152l-55 0z"/>
            <glyph unicode="&#45;" horiz-adv-x="330" d="M50 316h224v-108l-224 0z"/>
            <glyph unicode="&#46;" horiz-adv-x="303" d="M83 145h137v-145l-137 0z"/>
            <glyph unicode="&#47;" horiz-adv-x="273" d="M220 736h76l-269 -829l-76 0z"/>
            <glyph unicode="&#48;" horiz-adv-x="606"
                   d="M42 362q0 186 66 280q66 94 195 94q129 0 195 -94q66 -94 66 -280q0 -186 -66 -280q-66 -94 -195 -94q-129 0 -195 94q-66 94 -66 280zt0 0zM171 362q0 -131 34 -196.5q34 -65.5 98 -65.5q131 0 131 262q0 263 -131 263q-64 0 -98 -66t-34 -197z"/>
            <glyph unicode="&#49;" horiz-adv-x="606"
                   d="M132 102h113v498q-34 0 -65.5 -2q-31.5 -2 -60.5 -6l0 85q50 10 92.5 24.5q42.5 14.5 77.5 34.5l83 0v-634h113v-102l-353 0z"/>
            <glyph unicode="&#50;" horiz-adv-x="606"
                   d="M53 131q34 56 84 100.5q50 44.5 110 91.5q37 28 66.5 52.5q29.5 24.5 50.5 48q21 23.5 32 49q11 25.5 11 55.5q0 45 -28 71q-28 26 -76 26q-50 0 -83 -30.5q-33 -30.5 -39 -82.5l-124 23q18 95 84 148q66 53 167 53q52 0 95 -16q43 -16 73 -44.5q30 -28.5 46.5 -67.5q16.5 -39 16.5 -86q0 -39 -12 -72q-12 -33 -34.5 -64q-22.5 -31 -56.5 -61q-34 -30 -77 -62q-66 -49 -111.5 -82q-45.5 -33 -62.5 -66l350 0v-115l-482 0z"/>
            <glyph unicode="&#51;" horiz-adv-x="606"
                   d="M126 195q31 -48 67 -71.5q36 -23.5 81 -23.5q28 0 51 8.5q23 8.5 39.5 24q16.5 15.5 25.5 36q9 20.5 9 44.5q0 118 -191 118h-24v109q8 -1 15 -1q7 0 15 0q82 0 123.5 26.5q41.5 26.5 41.5 75.5q0 39 -28 64q-28 25 -77 25q-83 0 -134 -72l-89 70q37 52 96 80q59 28 134 28q52 0 93.5 -13.5q41.5 -13.5 71 -38q29.5 -24.5 45 -58.5q15.5 -34 15.5 -74q0 -113 -106 -161q63 -18 96 -65q33 -47 33 -119q0 -102 -66 -160.5q-66 -58.5 -182 -58.5q-179 0 -259 143z"/>
            <glyph unicode="&#52;" horiz-adv-x="606"
                   d="M344 166h-324v130l310 431h135v-456h104v-105h-104v-172h-121zM346 270v315l-227 -315z"/>
            <glyph unicode="&#53;" horiz-adv-x="606"
                   d="M163 180q41 -81 128 -81q27 0 51 11q24 11 41 31q17 20 27 48q10 28 10 63q0 59 -33.5 94q-33.5 35 -88.5 35q-74 0 -110 -65l-103 24l30 385h388v-116h-291l-8 -162q21 20 51 30.5q30 10.5 72 10.5q49 0 90.5 -17.5q41.5 -17.5 71.5 -49q30 -31.5 46.5 -76q16.5 -44.5 16.5 -99.5q0 -59 -18 -107q-18 -48 -51.5 -81.5q-33.5 -33.5 -81.5 -51.5q-48 -18 -108 -18q-85 0 -146.5 35q-61.5 35 -96.5 102z"/>
            <glyph unicode="&#54;" horiz-adv-x="606"
                   d="M181 408q69 57 157 57q48 0 88.5 -17q40.5 -17 69.5 -47.5q29 -30.5 45.5 -73q16.5 -42.5 16.5 -92.5q0 -117 -67 -182q-67 -65 -185 -65q-124 0 -190 85.5q-66 85.5 -66 250.5q0 97 21.5 174q21.5 77 61 129.5q39.5 52.5 95.5 80.5q56 28 124 28q54 0 101 -13q47 -13 86 -42l-55 -98q-35 22 -66.5 33.5q-31.5 11.5 -66.5 11.5q-33 0 -63 -15q-30 -15 -52.5 -43q-22.5 -28 -37 -69q-14.5 -41 -17.5 -93zt0 0zM177 269q4 -84 39 -128q35 -44 94 -44q53 0 87 35q34 35 34 92q0 63 -34 98.5q-34 35.5 -88 35.5q-47 0 -82.5 -24t-49.5 -65z"/>
            <glyph unicode="&#55;" horiz-adv-x="606" d="M396 606h-340v119h491v-80l-289 -651l-142 0z"/>
            <glyph unicode="&#56;" horiz-adv-x="606"
                   d="M178 384q-59 33 -85.5 73.5q-26.5 40.5 -26.5 98.5q0 82 62 131q62 49 174 49q115 0 176 -50q61 -50 61 -137q0 -54 -27.5 -95q-27.5 -41 -82.5 -67q71 -37 103.5 -83q32.5 -46 32.5 -112q0 -94 -69.5 -149q-69.5 -55 -201.5 -55q-123 0 -190 54q-67 54 -67 147q0 66 34.5 113q34.5 47 106.5 82zt0 0zM307 443q55 17 81 43q26 26 26 65q0 38 -28.5 60.5q-28.5 22.5 -79.5 22.5q-54 0 -83.5 -21q-29.5 -21 -29.5 -57q0 -86 114 -113zt0 0zM295 327q-63 -21 -94.5 -55q-31.5 -34 -31.5 -78q0 -44 34 -71.5q34 -27.5 94 -27.5q66 0 102.5 27q36.5 27 36.5 73q0 79 -141 132z"/>
            <glyph unicode="&#57;" horiz-adv-x="606"
                   d="M415 317q-69 -57 -157 -57q-48 0 -88.5 17q-40.5 17 -69.5 47.5q-29 30.5 -45.5 72.5q-16.5 42 -16.5 92q0 117 67 182q67 65 185 65q121 0 188.5 -86q67.5 -86 67.5 -250q0 -98 -21.5 -174.5q-21.5 -76.5 -61 -129q-39.5 -52.5 -95.5 -80.5q-56 -28 -124 -28q-111 0 -186 55l54 98q35 -22 66.5 -33.5q31.5 -11.5 66.5 -11.5q33 0 63 15q30 15 52.5 43.5q22.5 28.5 37 69.5q14.5 41 17.5 93zt0 0zM419 456q-4 84 -39 128q-35 44 -94 44q-53 0 -87 -35.5q-34 -35.5 -34 -92.5q0 -63 34 -98.5q34 -35.5 88 -35.5q47 0 82.5 24.5t49.5 65.5z"/>
            <glyph unicode="&#58;" horiz-adv-x="326" d="M82 442h137v-140h-137zM82 140h137v-140l-137 0z"/>
            <glyph unicode="&#59;" horiz-adv-x="326"
                   d="M82 442h137v-140h-137zM82 145h137v-151l-67 -143h-63l48 152l-55 0z"/>
            <glyph unicode="&#60;" horiz-adv-x="833" d="M704 484l-456 -186l456 -186v-89l-575 236v78l575 237z"/>
            <glyph unicode="&#61;" horiz-adv-x="833" d="M709 440v-82h-585v82zM709 238v-81h-585l0 81z"/>
            <glyph unicode="&#62;" horiz-adv-x="833" d="M704 337v-78l-575 -236v89l456 186l-456 186l0 90z"/>
            <glyph unicode="&#63;" horiz-adv-x="438"
                   d="M131 144h139v-144h-139zM142 244q-1 11 -1 20q0 9 0 18q0 50 11 84.5q11 34.5 40 71.5q34 44 56.5 73.5q22.5 29.5 22.5 60.5q0 27 -17.5 44.5q-17.5 17.5 -44.5 17.5q-32 0 -52 -22q-20 -22 -32 -69l-114 35q17 75 69.5 116.5q52.5 41.5 131.5 41.5q88 0 138.5 -42.5q50.5 -42.5 50.5 -114.5q0 -33 -9.5 -58q-9.5 -25 -24 -46.5q-14.5 -21.5 -32 -40.5q-17.5 -19 -32.5 -39q-21 -28 -33.5 -56q-12.5 -28 -12.5 -72q0 -5 0 -11q0 -6 1 -12z"/>
            <glyph unicode="&#64;" horiz-adv-x="1000"
                   d="M602 345q-7 42 -30 64q-23 22 -60 22q-31 0 -58 -16.5q-27 -16.5 -47.5 -45.5q-20.5 -29 -32.5 -68q-12 -39 -12 -84q0 -49 22 -74.5q22 -25.5 63 -25.5q43 0 79 31.5q36 31.5 49 85.5zM573 138q-27 -43 -62.5 -62.5q-35.5 -19.5 -85.5 -19.5q-75 0 -114 42q-39 42 -39 122q0 58 18.5 108q18.5 50 50 86.5q31.5 36.5 73 57q41.5 20.5 88.5 20.5q44 0 73 -17q29 -17 48 -52l27 52h75l-72 -286q-2 -8 -3 -13.5q-1 -5.5 -1 -10.5q0 -19 13 -30q13 -11 34 -11q23 0 50.5 14q27.5 14 53.5 42q35 37 53.5 86q18.5 49 18.5 106q0 61 -23.5 112q-23.5 51 -66.5 88q-43 37 -104 57.5q-61 20.5 -136 20.5q-135 0 -230 -61q-89 -56 -136.5 -142.5q-47.5 -86.5 -47.5 -192.5q0 -76 26.5 -138q26.5 -62 75.5 -105.5q49 -43.5 118.5 -67.5q69.5 -24 154.5 -24q82 0 158.5 24q76.5 24 141.5 69l33 -48q-147 -111 -329 -111q-189 0 -309 93q-150 114 -150 309q0 81 25.5 153.5q25.5 72.5 74.5 132.5q72 88 172 133q100 45 225 45q84 0 155.5 -22.5q71.5 -22.5 122.5 -61.5q129 -99 129 -262q0 -80 -31.5 -147.5q-31.5 -67.5 -90.5 -115.5q-69 -55 -155 -55q-102 0 -102 81z"/>
            <glyph unicode="&#65;" horiz-adv-x="617"
                   d="M223 727h171l219 -727h-137l-45 159h-251l-46 -159h-130zM398 275l-93 325l-92 -325z"/>
            <glyph unicode="&#66;" horiz-adv-x="660"
                   d="M76 727h264q121 0 182.5 -49.5q61.5 -49.5 61.5 -143.5q0 -52 -25 -89q-25 -37 -81 -64q123 -42 123 -177q0 -104 -66 -154q-66 -50 -202 -50h-257zM322 112q73 0 107.5 25.5q34.5 25.5 34.5 83.5q0 106 -136 106h-118v-215zM322 436q127 0 127 90q0 50 -33.5 69.5q-33.5 19.5 -101.5 19.5h-104l0 -179z"/>
            <glyph unicode="&#67;" horiz-adv-x="618"
                   d="M591 182q-27 -94 -95.5 -144q-68.5 -50 -172.5 -50q-142 0 -214 93q-72 93 -72 279q0 183 77 279.5q77 96.5 217 96.5q99 0 161.5 -48.5q62.5 -48.5 83.5 -141.5l-126 -31q-27 106 -127 106q-147 0 -147 -262q0 -127 36 -188.5q36 -61.5 114 -61.5q51 0 88 28.5q37 28.5 51 79.5z"/>
            <glyph unicode="&#68;" horiz-adv-x="686"
                   d="M82 727h222q170 0 255.5 -90.5q85.5 -90.5 85.5 -270.5q0 -366 -346 -366h-217zM294 120q112 0 162 58q50 58 50 188q0 124 -52 182q-52 58 -162 58h-73l0 -486z"/>
            <glyph unicode="&#69;" horiz-adv-x="602"
                   d="M85 727h472v-118h-336v-172h245v-116h-245v-197h351v-124l-487 0z"/>
            <glyph unicode="&#70;" horiz-adv-x="565" d="M81 727h459v-118h-321v-171h243v-118h-243v-320l-138 0z"/>
            <glyph unicode="&#71;" horiz-adv-x="669"
                   d="M506 76q-67 -88 -192 -88q-64 0 -115.5 25.5q-51.5 25.5 -87.5 74.5q-36 49 -55 120.5q-19 71.5 -19 162.5q0 87 20.5 155q20.5 68 59.5 114.5q39 46.5 94.5 71q55.5 24.5 126.5 24.5q98 0 163.5 -47q65.5 -47 92.5 -137l-124 -31q-43 101 -135 101q-78 0 -118.5 -65q-40.5 -65 -40.5 -194q0 -126 40.5 -190.5q40.5 -64.5 114.5 -64.5q58 0 96.5 38.5q38.5 38.5 47.5 108.5l-136 0v114h271v-369l-97 0z"/>
            <glyph unicode="&#72;" horiz-adv-x="713" d="M81 727h137v-288h277v288h137v-727h-137v316h-277v-316l-137 0z"/>
            <glyph unicode="&#73;" horiz-adv-x="328" d="M95 727h138v-727l-138 0z"/>
            <glyph unicode="&#74;" horiz-adv-x="440"
                   d="M94 165q25 -54 66 -54q35 0 48.5 23.5q13.5 23.5 13.5 71.5v521h138v-517q0 -113 -47 -167.5q-47 -54.5 -150 -54.5q-110 0 -170 101z"/>
            <glyph unicode="&#75;" horiz-adv-x="660"
                   d="M77 727h136v-336l243 336h156l-205 -265l239 -462h-156l-174 344l-103 -131v-213l-136 0z"/>
            <glyph unicode="&#76;" horiz-adv-x="547" d="M80 727h139v-603h307v-124l-446 0z"/>
            <glyph unicode="&#77;" horiz-adv-x="846"
                   d="M81 727h196l105 -353q14 -45 24 -90.5q10 -45.5 16 -90.5q11 50 23 94.5q12 44.5 24 84.5l107 355h188v-727h-117v610q-9 -39 -19.5 -79q-10.5 -40 -23.5 -82l-133 -449h-100l-129 449q-13 45 -24 85q-11 40 -19 76l0 -610l-118 0z"/>
            <glyph unicode="&#78;" horiz-adv-x="713"
                   d="M79 727h146l209 -365q23 -40 43.5 -83q20.5 -43 38.5 -91q-5 34 -7.5 70.5q-2.5 36.5 -2.5 77.5v391h127v-727h-127l-227 375q-17 29 -38 72.5q-21 43.5 -44 102.5q5 -34 7 -70.5q2 -36.5 2 -77.5v-402l-127 0z"/>
            <glyph unicode="&#79;" horiz-adv-x="678"
                   d="M37 362q0 89 21 158.5q21 69.5 60 117.5q39 48 95 73q56 25 126 25q70 0 126 -25q56 -25 95 -73q39 -48 60 -117.5q21 -69.5 21 -158.5q0 -89 -21 -158.5q-21 -69.5 -60 -117.5q-39 -48 -95 -73q-56 -25 -126 -25q-70 0 -126 25q-56 25 -95 73q-39 48 -60 117.5q-21 69.5 -21 158.5zt0 0zM176 362q0 -125 41.5 -188q41.5 -63 121.5 -63q80 0 121.5 63q41.5 63 41.5 188q0 126 -41.5 189.5q-41.5 63.5 -121.5 63.5q-80 0 -121.5 -63.5t-41.5 -189.5z"/>
            <glyph unicode="&#80;" horiz-adv-x="634"
                   d="M81 727h260q128 0 191 -53q63 -53 63 -163q0 -106 -61 -161.5q-61 -55.5 -180 -55.5h-135v-294h-138zM321 409q70 0 103.5 21.5q33.5 21.5 33.5 80.5q0 59 -33.5 81q-33.5 22 -103.5 22h-102l0 -205z"/>
            <glyph unicode="&#81;" horiz-adv-x="678"
                   d="M645 -55q-49 0 -85.5 19.5q-36.5 19.5 -70.5 62.5q-64 -39 -150 -39q-70 0 -126 25q-56 25 -95 73q-39 48 -60 117.5q-21 69.5 -21 158.5q0 89 21 158.5q21 69.5 60 117.5q39 48 95 73q56 25 126 25q70 0 126 -25q56 -25 95 -73q39 -48 60 -117.5q21 -69.5 21 -158.5q0 -82 -17.5 -145.5q-17.5 -63.5 -49.5 -107.5q39 -39 85 -42l0 -122zM425 139q-30 46 -84 58l0 124q47 -3 82 -23.5q35 -20.5 64 -61.5q15 37 15 116q0 263 -163 263q-80 0 -121.5 -63.5q-41.5 -63.5 -41.5 -189.5q0 -125 41.5 -188q41.5 -63 121.5 -63q48 0 86 28z"/>
            <glyph unicode="&#82;" horiz-adv-x="667"
                   d="M81 727h246q138 0 205.5 -52.5q67.5 -52.5 67.5 -164.5q0 -72 -34.5 -119q-34.5 -47 -99.5 -65l161 -326h-147l-140 295h-125v-295h-134zM334 410q66 0 97 24q31 24 31 77q0 54 -31.5 77.5q-31.5 23.5 -96.5 23.5h-119l0 -202z"/>
            <glyph unicode="&#83;" horiz-adv-x="586"
                   d="M151 219q29 -58 64 -84.5q35 -26.5 84 -26.5q56 0 87 25q31 25 31 67q0 37 -25.5 59q-25.5 22 -82.5 43q-49 18 -93 35q-44 17 -80 40q-42 26 -63.5 67q-21.5 41 -21.5 93q0 43 17 79.5q17 36.5 47.5 62.5q30.5 26 74.5 41q44 15 98 15q187 0 245 -159l-124 -45q-23 48 -53.5 70.5q-30.5 22.5 -77.5 22.5q-45 0 -70.5 -21q-25.5 -21 -25.5 -56q0 -26 13 -42q13 -16 37 -29.5q24 -13.5 58.5 -26.5q34.5 -13 77.5 -31q45 -19 79 -38.5q34 -19.5 56.5 -44q22.5 -24.5 34 -55.5q11.5 -31 11.5 -74q0 -100 -64.5 -158q-64.5 -58 -182.5 -58q-101 0 -170.5 44q-69.5 44 -104.5 130z"/>
            <glyph unicode="&#84;" horiz-adv-x="560" d="M211 607h-191v120h520v-120h-191v-607l-138 0z"/>
            <glyph unicode="&#85;" horiz-adv-x="713"
                   d="M81 727h137v-466q0 -78 31 -115.5q31 -37.5 107 -37.5q80 0 111.5 36.5q31.5 36.5 31.5 116.5v466h133v-482q0 -125 -71 -191q-71 -66 -205 -66q-140 0 -207.5 69q-67.5 69 -67.5 210z"/>
            <glyph unicode="&#86;" horiz-adv-x="617" d="M6 727h137l166 -593l164 593h138l-217 -727l-171 0z"/>
            <glyph unicode="&#87;" horiz-adv-x="944"
                   d="M14 727h134l104 -418q5 -22 12.5 -62.5q7.5 -40.5 16.5 -100.5q3 50 12 88.5q9 38.5 17 70.5l106 422h117l101 -418q5 -22 12.5 -62.5q7.5 -40.5 16.5 -100.5q3 38 10 77.5q7 39.5 18 81.5l106 422h134l-187 -727h-151l-91 364q-11 43 -18.5 83q-7.5 40 -11.5 79q-8 -57 -15 -96.5q-7 -39.5 -13 -63.5l-93 -366l-150 0z"/>
            <glyph unicode="&#88;" horiz-adv-x="569"
                   d="M215 369l-195 358h147l120 -231l123 231h134l-190 -347l211 -380h-152l-130 263l-137 -263l-136 0z"/>
            <glyph unicode="&#89;" horiz-adv-x="560"
                   d="M213 287l-211 440h144l140 -302l138 302h134l-208 -439v-288l-137 0z"/>
            <glyph unicode="&#90;" horiz-adv-x="547" d="M15 120l352 489h-328v118h480v-114l-357 -493h362v-120l-509 0z"/>
            <glyph unicode="&#91;" horiz-adv-x="327" d="M92 727h231v-62h-123v-681h123v-62l-231 0z"/>
            <glyph unicode="&#92;" horiz-adv-x="273" d="M-22 736h75l269 -829l-75 0z"/>
            <glyph unicode="&#93;" horiz-adv-x="327" d="M4 -16h123v681h-123v62h231v-805l-231 0z"/>
            <glyph unicode="&#94;" horiz-adv-x="1000" d="M553 713l242 -274h-101l-194 194l-195 -194h-101l243 274z"/>
            <glyph unicode="&#95;" horiz-adv-x="500" d="M500 -152v-84h-500l0 84z"/>
            <glyph unicode="&#96;" horiz-adv-x="500" d="M233 760l96 -180h-69l-153 180z"/>
            <glyph unicode="&#97;" horiz-adv-x="512"
                   d="M327 46q-71 -52 -156 -52q-66 0 -103 37q-37 37 -37 103q0 88 73 136.5q73 48.5 224 67.5l0 41q0 29 -19 44.5q-19 15.5 -55 15.5q-72 0 -115 -60l-84 53q66 102 201 102q93 0 142.5 -41.5q49.5 -41.5 49.5 -113.5v-308q0 -25 8 -71l-118 0zM324 255q-88 -12 -129.5 -38q-41.5 -26 -41.5 -73q0 -26 14.5 -41q14.5 -15 41.5 -15q59 0 115 55z"/>
            <glyph unicode="&#98;" horiz-adv-x="546"
                   d="M60 0q6 84 6 122v605h122v-253q27 32 57 46q30 14 70 14q42 0 78.5 -18.5q36.5 -18.5 63.5 -54q27 -35.5 42.5 -86q15.5 -50.5 15.5 -113.5q0 -61 -15 -111q-15 -50 -42 -86q-27 -36 -64.5 -55.5q-37.5 -19.5 -82.5 -19.5q-42 0 -76 15.5q-34 15.5 -66 50.5l-13 -56zM187 139q23 -23 45 -34q22 -11 48 -11q52 0 81.5 43q29.5 43 29.5 125q0 83 -29.5 126.5q-29.5 43.5 -80.5 43.5q-26 0 -48 -11q-22 -11 -46 -33z"/>
            <glyph unicode="&#99;" horiz-adv-x="486"
                   d="M460 123q-55 -133 -206 -133q-112 0 -169 68.5q-57 68.5 -57 203.5q0 64 16 114q16 50 45 85q29 35 71 53.5q42 18.5 94 18.5q74 0 126 -35q52 -35 75 -101l-104 -45q-14 40 -35 59.5q-21 19.5 -54 19.5q-57 0 -83.5 -42.5q-26.5 -42.5 -26.5 -133.5q0 -160 102 -160q72 0 110 79z"/>
            <glyph unicode="&#100;" horiz-adv-x="546"
                   d="M377 56q-54 -66 -141 -66q-45 0 -82.5 19.5q-37.5 19.5 -64.5 55.5q-27 36 -42.5 86q-15.5 50 -15.5 111q0 63 15.5 113.5q15.5 50.5 42.5 86q27 35.5 63.5 54q36.5 18.5 78.5 18.5q40 0 70 -14q30 -14 57 -46l0 253h122v-605q0 -38 6 -122l-96 0zM359 388q-24 22 -45.5 33q-21.5 11 -47.5 11q-51 0 -80.5 -43.5q-29.5 -43.5 -29.5 -126.5q0 -82 29.5 -125q29.5 -43 81.5 -43q26 0 47.5 11q21.5 11 44.5 34z"/>
            <glyph unicode="&#101;" horiz-adv-x="495"
                   d="M460 103q-61 -113 -209 -113q-105 0 -163.5 70.5q-58.5 70.5 -58.5 200.5q0 131 58.5 202q58.5 71 161.5 71q103 0 159.5 -69q56.5 -69 56.5 -197v-27h-314q2 -149 111 -149q35 0 60 16q25 16 47 51zM344 330q0 53 -25 82q-25 29 -70 29q-42 0 -67 -28.5q-25 -28.5 -29 -82.5z"/>
            <glyph unicode="&#102;" horiz-adv-x="301"
                   d="M74 423h-73v101h73v81q0 63 38.5 97.5q38.5 34.5 112.5 34.5q35 0 74 -6l0 -104q-11 2 -20.5 2q-9.5 0 -18.5 0q-38 0 -50.5 -14q-12.5 -14 -12.5 -49v-42h99v-101h-96v-423l-126 0z"/>
            <glyph unicode="&#103;" horiz-adv-x="498"
                   d="M107 37q-35 17 -52 35q-17 18 -17 45q0 28 20 53.5q20 25.5 58 45.5q-73 44 -73 137q0 40 14.5 73.5q14.5 33.5 40.5 57.5q26 24 62.5 37.5q36.5 13.5 81.5 13.5q38 0 69.5 -10.5q31.5 -10.5 61.5 -33.5q38 50 96 50q5 0 9 0q4 0 9 -1l0 -92q-7 1 -13 1.5q-6 0.5 -11 0.5q-13 0 -24 -2.5q-11 -2.5 -22 -10.5q24 -35 24 -94q0 -76 -52 -121.5q-52 -45.5 -144 -45.5q-33 0 -57 6q-34 -13 -34 -35q0 -26 35 -30q35 -4 103 -9q51 -4 87 -11.5q36 -7.5 59.5 -22.5q23.5 -15 34.5 -40q11 -25 11 -62q0 -78 -62.5 -120q-62.5 -42 -183.5 -42q-111 0 -166.5 33.5q-55.5 33.5 -55.5 97.5q0 37 22 59q22 22 69 37zt0 0zM160 352q0 -39 22.5 -60.5q22.5 -21.5 62.5 -21.5q38 0 61.5 23q23.5 23 23.5 61q0 38 -24 62q-24 24 -64 24q-36 0 -59 -23.5q-23 -23.5 -23 -64.5zt0 0zM187 11q-27 -13 -40 -25.5q-13 -12.5 -13 -29.5q0 -26 27 -42q27 -16 75 -16q66 0 101 18.5q35 18.5 35 46.5q0 22 -17.5 31q-17.5 9 -52.5 11z"/>
            <glyph unicode="&#104;" horiz-adv-x="552"
                   d="M66 727h123v-261q38 34 75 51q37 17 79 17q146 0 146 -170v-364h-123v340q0 48 -13.5 70.5q-13.5 22.5 -47.5 22.5q-54 0 -116 -58l0 -375l-123 0z"/>
            <glyph unicode="&#105;" horiz-adv-x="256" d="M66 524h124v-524h-124zM66 727h124v-117l-124 0z"/>
            <glyph unicode="&#106;" horiz-adv-x="269"
                   d="M-10 -77q19 -3 28 -3q37 0 48.5 15.5q11.5 15.5 11.5 53.5v535h124v-553q0 -82 -33.5 -121.5q-33.5 -39.5 -105.5 -39.5q-39 0 -73 9zM78 727h124v-117l-124 0z"/>
            <glyph unicode="&#107;" horiz-adv-x="501"
                   d="M66 727h122v-415l161 212h137l-155 -186l168 -338h-135l-116 240l-60 -71v-169l-122 0z"/>
            <glyph unicode="&#108;" horiz-adv-x="256" d="M66 727h124v-727l-124 0z"/>
            <glyph unicode="&#109;" horiz-adv-x="830"
                   d="M66 524h114v-61q62 71 148 71q91 0 129 -78q40 40 79.5 59q39.5 19 89.5 19q66 0 103 -35.5q37 -35.5 37 -97.5v-401h-124v361q0 34 -14.5 52.5q-14.5 18.5 -42.5 18.5q-58 0 -110 -54l0 -378h-121v347q0 43 -12.5 63.5q-12.5 20.5 -41.5 20.5q-31 0 -59.5 -14q-28.5 -14 -51.5 -40l0 -377l-123 0z"/>
            <glyph unicode="&#110;" horiz-adv-x="551"
                   d="M65 524h114v-62q44 35 81 53.5q37 18.5 81 18.5q147 0 147 -170v-364h-124v340q0 48 -13 70.5q-13 22.5 -47 22.5q-54 0 -116 -58l0 -375l-123 0z"/>
            <glyph unicode="&#111;" horiz-adv-x="505"
                   d="M28 262q0 130 59 201q59 71 165 71q106 0 165 -71q59 -71 59 -201q0 -130 -59.5 -201q-59.5 -71 -164.5 -71q-105 0 -164.5 71.5q-59.5 71.5 -59.5 200.5zt0 0zM153 262q0 -166 99 -166q99 0 99 166q0 165 -99 165q-99 0 -99 -165z"/>
            <glyph unicode="&#112;" horiz-adv-x="546"
                   d="M188 -190h-122v714h90l13 -57q33 35 65.5 51q32.5 16 76.5 16q45 0 82.5 -19.5q37.5 -19.5 64.5 -55.5q27 -36 42 -86q15 -50 15 -111q0 -63 -15.5 -113.5q-15.5 -50.5 -42.5 -86q-27 -35.5 -63.5 -54q-36.5 -18.5 -78.5 -18.5q-40 0 -70 14q-30 14 -57 46zM187 135q24 -22 46 -33q22 -11 48 -11q51 0 80.5 44q29.5 44 29.5 127q0 82 -29.5 125q-29.5 43 -81.5 43q-26 0 -48 -11.5q-22 -11.5 -45 -34.5z"/>
            <glyph unicode="&#113;" horiz-adv-x="546"
                   d="M358 50q-27 -32 -57 -46q-30 -14 -70 -14q-42 0 -78.5 18.5q-36.5 18.5 -63.5 54q-27 35.5 -42.5 86q-15.5 50.5 -15.5 113.5q0 61 15.5 111q15.5 50 42.5 86q27 36 64.5 55.5q37.5 19.5 82.5 19.5q44 0 76 -16q32 -16 65 -51l13 57h96q-6 -87 -6 -123v-591h-122zM359 384q-23 23 -44.5 34.5q-21.5 11.5 -47.5 11.5q-52 0 -81.5 -43q-29.5 -43 -29.5 -125q0 -83 29.5 -127q29.5 -44 80.5 -44q26 0 47.5 11q21.5 11 45.5 33z"/>
            <glyph unicode="&#114;" horiz-adv-x="344"
                   d="M66 524h118v-87q51 96 130 96q4 0 8 0q4 0 8 -1l0 -129h-6q-41 0 -75.5 -21q-34.5 -21 -56.5 -61l0 -321l-126 0z"/>
            <glyph unicode="&#115;" horiz-adv-x="440"
                   d="M106 161q58 -75 120 -75q35 0 54 16q19 16 19 42q0 16 -6.5 26.5q-6.5 10.5 -19 18.5q-12.5 8 -30.5 15q-18 7 -40 15q-41 15 -71.5 30q-30.5 15 -51 33.5q-20.5 18.5 -31 42q-10.5 23.5 -10.5 56.5q0 33 13 61q13 28 36.5 48.5q23.5 20.5 56.5 32q33 11.5 74 11.5q55 0 98 -19.5q43 -19.5 79 -60.5l-78 -68q-50 53 -102 53q-32 0 -49.5 -14.5q-17.5 -14.5 -17.5 -37.5q0 -13 8 -22q8 -9 23 -16.5q15 -7.5 36.5 -15.5q21.5 -8 49.5 -19q36 -14 63 -28.5q27 -14.5 45 -33.5q18 -19 27 -43.5q9 -24.5 9 -58.5q0 -36 -13 -66q-13 -30 -37 -51q-24 -21 -57.5 -32.5q-33.5 -11.5 -75.5 -11.5q-66 0 -114.5 25.5q-48.5 25.5 -90.5 80.5z"/>
            <glyph unicode="&#116;" horiz-adv-x="324"
                   d="M205 157q0 -33 8.5 -47q8.5 -14 42.5 -14q10 0 23 1q13 1 28 3l0 -102q-14 -3 -40 -6q-26 -3 -63 -3q-65 0 -94 29.5q-29 29.5 -29 93.5v310h-68v102h68v168h124v-168h102v-102h-102l0 -265z"/>
            <glyph unicode="&#117;" horiz-adv-x="551"
                   d="M372 61q-44 -35 -81.5 -53q-37.5 -18 -81.5 -18q-146 0 -146 169v365h124v-340q0 -48 13 -71q13 -23 47 -23q28 0 56 15q28 15 60 44l0 375h123v-524h-114l0 61z"/>
            <glyph unicode="&#118;" horiz-adv-x="478"
                   d="M4 524h123l86 -283q7 -21 24 -106q4 35 11.5 61q7.5 26 13.5 45l86 283h123l-172 -524l-122 0z"/>
            <glyph unicode="&#119;" horiz-adv-x="741"
                   d="M15 524h121l70 -255q3 -12 8 -39.5q5 -27.5 10 -71.5q2 29 7 51.5q5 22.5 10 41.5l72 273h114l69 -255q3 -12 8.5 -39.5q5.5 -27.5 10.5 -71.5q2 23 6 46.5q4 23.5 10 46.5l72 273h122l-153 -524h-110l-65 227q-9 32 -16 62q-7 30 -11 59q-8 -45 -13.5 -73.5q-5.5 -28.5 -9.5 -42.5l-69 -232l-109 0z"/>
            <glyph unicode="&#120;" horiz-adv-x="451"
                   d="M162 275l-146 249h135l77 -152l80 152h122l-142 -250l156 -274h-135l-86 181l-94 -181l-124 0z"/>
            <glyph unicode="&#121;" horiz-adv-x="478"
                   d="M4 524h124l115 -344l107 344h121l-164 -495q-18 -55 -35 -96q-17 -41 -40 -68.5q-23 -27.5 -55.5 -41q-32.5 -13.5 -81.5 -13.5q-28 0 -55 8l0 103q25 -6 51 -6q42 0 64 23.5q22 23.5 33 75.5z"/>
            <glyph unicode="&#122;" horiz-adv-x="449" d="M20 89l249 336h-228v99h381v-88l-247 -332h248v-104l-403 0z"/>
            <glyph unicode="&#123;" horiz-adv-x="500"
                   d="M427 634q-6 0 -12 0.5q-6 0.5 -11 0.5q-29 0 -47 -5.5q-18 -5.5 -27.5 -17.5q-9.5 -12 -13 -32q-3.5 -20 -3.5 -50v-118q0 -34 -4 -59.5q-4 -25.5 -15 -43.5q-11 -18 -30 -30.5q-19 -12.5 -50 -19.5q31 -8 50 -20q19 -12 30 -30.5q11 -18.5 15 -43.5q4 -25 4 -59v-117q0 -30 3.5 -50q3.5 -20 13.5 -32.5q10 -12.5 28 -18q18 -5.5 47 -5.5q5 0 10.5 0.5q5.5 0.5 11.5 0.5l0 -86h-31q-44 0 -76.5 5q-32.5 5 -56.5 19q-33 20 -41.5 55q-8.5 35 -8.5 91v121q0 69 -25 98.5q-25 29.5 -88 29.5q-5 0 -10.5 -0.5q-5.5 -0.5 -10.5 -0.5l0 87q5 0 10.5 -0.5q5.5 -0.5 10.5 -0.5q62 0 87.5 29q25.5 29 25.5 98v121q0 56 8 91.5q8 35.5 42 55.5q26 15 60 19.5q34 4.5 82 4.5l22 0z"/>
            <glyph unicode="&#124;" horiz-adv-x="500" d="M294 764v-1000h-87l0 1000z"/>
            <glyph unicode="&#125;" horiz-adv-x="500"
                   d="M96 721q47 0 81 -4.5q34 -4.5 60 -19.5q34 -20 42 -56q8 -36 8 -91v-121q0 -69 25 -98q25 -29 88 -29q5 0 10.5 0.5q5.5 0.5 10.5 0.5l0 -87q-5 0 -10.5 0.5q-5.5 0.5 -10.5 0.5q-63 0 -88 -29.5q-25 -29.5 -25 -98.5v-121q0 -55 -8 -90.5q-8 -35.5 -42 -55.5q-25 -15 -59.5 -19.5q-34.5 -4.5 -81.5 -4.5h-22v86q6 0 11.5 -0.5q5.5 -0.5 10.5 -0.5q29 0 47 5.5q18 5.5 27.5 18q9.5 12.5 13 32.5q3.5 20 3.5 50v117q0 34 4 59q4 25 15 43.5q11 18.5 30.5 30.5q19.5 12 50.5 20q-31 7 -50.5 19.5q-19.5 12.5 -30.5 31q-11 18.5 -15 43.5q-4 25 -4 59v118q0 30 -3.5 50q-3.5 20 -13 32q-9.5 12 -27.5 17.5q-18 5.5 -46 5.5q-5 0 -11 -0.5q-6 -0.5 -12 -0.5l0 87z"/>
            <glyph unicode="&#126;" horiz-adv-x="833"
                   d="M747 293q-49 -34 -95 -51.5q-46 -17.5 -91 -17.5q-44 0 -93 17q-52 17 -98.5 32.5q-46.5 15.5 -94.5 15.5q-44 0 -89 -19.5q-45 -19.5 -99 -57.5l0 91q103 70 189 70q43 0 77.5 -9q34.5 -9 65.5 -20q37 -13 71.5 -24.5q34.5 -11.5 71.5 -11.5q44 0 89 19q45 19 96 56z"/>
            <glyph unicode="&#160;" horiz-adv-x="301"/>
            <glyph unicode="&#161;" horiz-adv-x="324" d="M231 0h-145l26 482h93zM225 583h-134v144l134 0z"/>
            <glyph unicode="&#162;" horiz-adv-x="606"
                   d="M516 131q-63 -132 -218 -132q-13 0 -27 1q-14 1 -29 3l-42 -122h-66l52 148q-56 38 -80.5 96.5q-24.5 58.5 -24.5 145.5q0 130 61 201q61 71 167 71q32 0 61 -7l36 105h66l-46 -130q57 -41 84 -104l-106 -45q-9 24 -21 42l-107 -300q15 -3 27 -3q37 0 64 20q27 20 50 62zM335 438q-20 4 -33 4q-46 0 -73.5 -43.5q-27.5 -43.5 -27.5 -121.5q0 -47 6 -80.5q6 -33.5 22 -56.5z"/>
            <glyph unicode="&#163;" horiz-adv-x="606"
                   d="M37 114q53 11 78 45q25 34 25 94q0 9 -1 24q-1 15 -3 36l-104 0v93h97q-17 80 -17 123q0 46 15.5 84.5q15.5 38.5 44 65.5q28.5 27 68.5 42q40 15 89 15q108 0 166 -56q58 -56 58 -159v-3h-123q0 52 -25 80q-25 28 -68 28q-46 0 -71 -25.5q-25 -25.5 -25 -71.5q0 -14 1 -27q1 -13 3 -25l10 -71h139v-93h-128q1 -9 1 -17.5q0 -8.5 0 -16.5q0 -71 -23 -126q61 -46 117 -46q87 0 87 97v14h122q1 -6 1 -12.5q0 -6.5 0 -12.5q0 -98 -49 -151q-49 -53 -139 -53q-109 0 -195 67q-26 -31 -63 -46.5q-37 -15.5 -88 -20.5z"/>
            <glyph unicode="&#164;" horiz-adv-x="606"
                   d="M182 570q28 20 56.5 27.5q28.5 7.5 64.5 7.5q35 0 64 -7.5q29 -7.5 58 -27.5l100 100l68 -67l-101 -101q34 -52 34 -120q0 -67 -34 -119l101 -102l-68 -67l-101 102q-29 -20 -57 -28q-28 -8 -63 -8q-36 0 -64.5 7.5q-28.5 7.5 -57.5 27.5l-100 -101l-67 67l100 101q-34 52 -34 120q0 68 34 120l-100 101l67 67zM304 508q-26 0 -49 -10q-23 -10 -40 -27.5q-17 -17.5 -27 -40.5q-10 -23 -10 -48q0 -26 10 -48.5q10 -22.5 27 -39.5q17 -17 40 -27q23 -10 49 -10q26 0 49 10q23 10 40 27q17 17 27 39.5q10 22.5 10 48.5q0 25 -10 48q-10 23 -27 40.5q-17 17.5 -40 27.5t-49 10z"/>
            <glyph unicode="&#165;" horiz-adv-x="606"
                   d="M467 503h111v-65h-142l-39 -80h181v-65h-214v-293h-122v293h-215v65h183l-38 80h-145v65h113l-106 222h135l140 -313l138 313l125 0z"/>
            <glyph unicode="&#166;" horiz-adv-x="500" d="M294 699v-370h-87v370zM294 199v-370h-87l0 370z"/>
            <glyph unicode="&#167;" horiz-adv-x="500"
                   d="M154 45q49 -58 87 -58q25 0 39.5 14.5q14.5 14.5 14.5 37.5q0 25 -16 45.5q-16 20.5 -43 48.5l-100 104q-40 42 -62.5 75.5q-22.5 33.5 -22.5 74.5q0 46 28.5 78q28.5 32 79.5 41q-25 28 -37.5 53q-12.5 25 -12.5 54q0 27 10.5 49.5q10.5 22.5 29 39q18.5 16.5 44 25.5q25.5 9 55.5 9q95 0 157 -80l-69 -51q-23 26 -42 39q-19 13 -38 13q-22 0 -36 -13.5q-14 -13.5 -14 -33.5q0 -20 13 -36.5q13 -16.5 35 -38.5l105 -105q44 -43 66 -80.5q22 -37.5 22 -78.5q0 -96 -107 -115q52 -53 52 -119q0 -63 -39 -98q-39 -35 -105 -35q-47 0 -89 22.5q-42 22.5 -74 66.5zM144 399q0 -20 18 -44q18 -24 50 -57q35 -35 58.5 -54.5q23.5 -19.5 47.5 -19.5q14 0 25 11q11 11 11 28q0 21 -18.5 44.5q-18.5 23.5 -50.5 56.5q-34 36 -58 55.5q-24 19.5 -44 19.5q-17 0 -28 -11.5t-11 -28.5z"/>
            <glyph unicode="&#168;" horiz-adv-x="500" d="M110 727h110v-117h-110zM280 727h110v-117l-110 0z"/>
            <glyph unicode="&#169;" horiz-adv-x="833"
                   d="M416 718q74 0 139 -26.5q65 -26.5 118 -79.5q51 -51 78 -116q27 -65 27 -139q0 -75 -26.5 -139.5q-26.5 -64.5 -77.5 -114.5q-54 -53 -120 -80.5q-66 -27.5 -138 -27.5q-72 0 -137 27.5q-65 27.5 -117 79.5q-52 52 -79.5 117.5q-27.5 65.5 -27.5 137.5q0 72 28 137.5q28 65.5 80 118.5q103 105 253 105zt0 0zM417 665q-63 0 -118 -22q-55 -22 -99 -67q-45 -45 -68 -101.5q-23 -56.5 -23 -117.5q0 -62 23 -117q23 -55 68 -100q45 -45 100.5 -68q55.5 -23 116.5 -23q61 0 117 23.5q56 23.5 102 68.5q89 87 89 216q0 63 -22.5 118.5q-22.5 55.5 -66.5 99.5q-45 45 -100.5 67.5q-55.5 22.5 -118.5 22.5zt0 0zM508 441q-5 36 -29.5 55.5q-24.5 19.5 -63.5 19.5q-47 0 -75 -40.5q-28 -40.5 -28 -118.5q0 -75 28.5 -115q28.5 -40 79.5 -40q38 0 62.5 21q24.5 21 29.5 61l81 0q-2 -33 -15.5 -59.5q-13.5 -26.5 -36.5 -46q-23 -19.5 -54.5 -30q-31.5 -10.5 -69.5 -10.5q-89 0 -141.5 57.5q-52.5 57.5 -52.5 158.5q0 51 14 92.5q14 41.5 40 70q26 28.5 62 44q36 15.5 80 15.5q36 0 66 -10q30 -10 52.5 -27.5q22.5 -17.5 36 -42.5q13.5 -25 15.5 -55z"/>
            <glyph unicode="&#170;" horiz-adv-x="384"
                   d="M245 392q-54 -36 -117 -36q-50 0 -77.5 26q-27.5 26 -27.5 72q0 62 55 95.5q55 33.5 168 47.5l0 28q0 42 -55 42q-56 0 -87 -42l-63 37q49 72 151 72q69 0 106.5 -29q37.5 -29 37.5 -80v-215q0 -20 6 -50l-88 0zM243 538q-66 -8 -97 -26.5q-31 -18.5 -31 -50.5q0 -39 42 -39q45 0 86 38z"/>
            <glyph unicode="&#171;" horiz-adv-x="548"
                   d="M61 261l120 160h111l-120 -160l120 -159h-111zM258 261l120 160h111l-120 -160l120 -159l-111 0z"/>
            <glyph unicode="&#172;" horiz-adv-x="833" d="M709 421v-245h-81v164h-504l0 81z"/>
            <glyph unicode="&#173;" horiz-adv-x="330" d="M50 316h224v-108l-224 0z"/>
            <glyph unicode="&#174;" horiz-adv-x="833"
                   d="M416 718q75 0 140.5 -27q65.5 -27 118.5 -81q51 -51 77 -115.5q26 -64.5 26 -137.5q0 -75 -27 -140q-27 -65 -79 -116q-54 -52 -119.5 -79q-65.5 -27 -136.5 -27q-72 0 -138 28q-66 28 -118 81q-51 52 -78 116.5q-27 64.5 -27 136.5q0 72 28 138.5q28 66.5 81 119.5q103 103 252 103zt0 0zM417 665q-127 0 -215 -88q-45 -46 -69 -102.5q-24 -56.5 -24 -117.5q0 -61 22.5 -116q22.5 -55 66.5 -100q45 -45 100 -68.5q55 -23.5 114 -23.5q130 0 223 90q44 42 67 97q23 55 23 116q0 131 -88 221q-92 92 -220 92zt0 0zM425 566q86 0 128.5 -28q42.5 -28 42.5 -82q0 -45 -23 -73.5q-23 -28.5 -67 -38.5l90 -183h-97l-80 169h-63v-169h-87v405zM356 384h57q48 0 71 14.5q23 14.5 23 47.5q0 35 -24 50q-24 15 -74 15l-53 0z"/>
            <glyph unicode="&#175;" horiz-adv-x="500" d="M110 706h280v-75l-280 0z"/>
            <glyph unicode="&#176;" horiz-adv-x="329"
                   d="M165 713q30 0 56 -11.5q26 -11.5 45.5 -31q19.5 -19.5 31 -46q11.5 -26.5 11.5 -56.5q0 -29 -11.5 -55.5q-11.5 -26.5 -31 -46q-19.5 -19.5 -46 -31q-26.5 -11.5 -56.5 -11.5q-30 0 -56 11q-26 11 -45.5 30.5q-19.5 19.5 -30.5 46q-11 26.5 -11 56.5q0 30 11 56.5q11 26.5 30.5 46q19.5 19.5 46 31q26.5 11.5 56.5 11.5zt0 0zM165 659q-38 0 -64.5 -26q-26.5 -26 -26.5 -64q0 -38 26.5 -64.5q26.5 -26.5 64.5 -26.5q19 0 35.5 7.5q16.5 7.5 28.5 20q12 12.5 19 29q7 16.5 7 34.5q0 38 -26 64t-64 26z"/>
            <glyph unicode="&#177;" horiz-adv-x="833"
                   d="M458 589v-163h251v-81h-251v-163h-83v163h-251v81h251v163zM709 89v-82h-585l0 82z"/>
            <glyph unicode="&#178;" horiz-adv-x="400"
                   d="M35 369q23 33 55.5 60q32.5 27 72.5 55q49 34 77.5 60q28.5 26 28.5 63q0 27 -18.5 42.5q-18.5 15.5 -50.5 15.5q-33 0 -54.5 -18q-21.5 -18 -26.5 -50l-81 14q11 57 55 89q44 32 110 32q70 0 111.5 -36q41.5 -36 41.5 -93q0 -47 -30.5 -82q-30.5 -35 -88.5 -73q-43 -29 -73.5 -49q-30.5 -20 -41.5 -40l231 0v-69l-318 0z"/>
            <glyph unicode="&#179;" horiz-adv-x="400"
                   d="M83 407q40 -57 98 -57q37 0 59.5 19.5q22.5 19.5 22.5 48.5q0 71 -126 71h-16v65q5 -1 10 -1q5 0 10 0q54 0 81.5 16.5q27.5 16.5 27.5 45.5q0 23 -18.5 38q-18.5 15 -50.5 15q-55 0 -89 -43l-58 42q24 31 62.5 48q38.5 17 88.5 17q69 0 109 -31q40 -31 40 -80q0 -67 -70 -96q85 -23 85 -111q0 -61 -43.5 -96q-43.5 -35 -120.5 -35q-117 0 -170 86z"/>
            <glyph unicode="&#180;" horiz-adv-x="500" d="M240 580h-69l96 180l126 0z"/>
            <glyph unicode="&#181;" horiz-adv-x="590"
                   d="M212 528l-61 -310q-6 -29 -6 -51q0 -96 89 -96q63 0 96.5 45q33.5 45 52.5 141l53 271h110l-71 -361q-9 -47 -9 -65q0 -17 7.5 -24.5q7.5 -7.5 25.5 -7.5q4 0 8 0q4 0 9 1l-16 -78q-17 -5 -35 -6.5q-18 -1.5 -38 -1.5q-73 0 -73 61v7q-20 -33 -53 -51q-33 -18 -71 -18q-38 0 -66 12q-28 12 -49 41l-48 -247h-112l145 738z"/>
            <glyph unicode="&#182;" horiz-adv-x="500"
                   d="M473 674h-57v-674h-63v674h-83v-674h-63v383q-84 3 -132 50q-48 47 -48 119q0 37 13 68.5q13 31.5 38 54q25 22.5 60.5 35q35.5 12.5 79.5 12.5l255 0z"/>
            <glyph unicode="&#183;" horiz-adv-x="303"
                   d="M70 362q0 35 23.5 58.5q23.5 23.5 58.5 23.5q35 0 58 -24q23 -24 23 -58q0 -34 -23.5 -57.5q-23.5 -23.5 -57.5 -23.5q-34 0 -58 23t-24 58z"/>
            <glyph unicode="&#184;" horiz-adv-x="500"
                   d="M138 -151q43 -11 74 -16q31 -5 51 -5q49 0 49 36q0 19 -14 26.5q-14 7.5 -45 7.5q-7 0 -13.5 0q-6.5 0 -14.5 -1l0 103h50v-44h7q115 0 115 -93q0 -98 -129 -98q-23 0 -55.5 5q-32.5 5 -74.5 16z"/>
            <glyph unicode="&#185;" horiz-adv-x="400"
                   d="M88 351h74v299q-23 0 -43.5 -1.5q-20.5 -1.5 -39.5 -3.5l0 51q33 6 61 14.5q28 8.5 51 21.5l55 0v-381h75v-61l-233 0z"/>
            <glyph unicode="&#186;" horiz-adv-x="379"
                   d="M21 543q0 91 44.5 141q44.5 50 123.5 50q79 0 123.5 -50q44.5 -50 44.5 -141q0 -91 -45 -140.5q-45 -49.5 -123 -49.5q-78 0 -123 50q-45 50 -45 140zt0 0zM115 543q0 -116 74 -116q74 0 74 116q0 116 -74 116q-74 0 -74 -116z"/>
            <glyph unicode="&#187;" horiz-adv-x="548"
                   d="M181 261l-120 160h111l120 -160l-120 -159h-111zM378 261l-120 160h111l120 -160l-120 -159l-111 0z"/>
            <glyph unicode="&#188;" horiz-adv-x="931"
                   d="M83 376h71v279q-21 0 -41 -1q-20 -1 -38 -3l0 47q62 11 107 33l52 0v-355h71v-57h-222zM646 736h69l-430 -748h-70zM766 93h-204v73l195 241h85v-255h65v-59h-65v-96h-76zM767 151v177l-143 -177z"/>
            <glyph unicode="&#189;" horiz-adv-x="931"
                   d="M83 376h71v279q-21 0 -41 -1q-20 -1 -38 -3l0 47q62 11 107 33l52 0v-355h71v-57h-222zM646 736h69l-430 -748h-70zM582 73q22 32 53.5 57q31.5 25 69.5 51q23 16 41.5 29.5q18.5 13.5 31.5 26.5q13 13 20 27.5q7 14.5 7 31.5q0 25 -17.5 39.5q-17.5 14.5 -47.5 14.5q-32 0 -52.5 -17q-20.5 -17 -24.5 -46l-78 13q11 53 53 82.5q42 29.5 105 29.5q66 0 106 -33.5q40 -33.5 40 -86.5q0 -43 -29.5 -76q-29.5 -33 -84.5 -69q-42 -27 -70.5 -45.5q-28.5 -18.5 -38.5 -37.5l220 0v-64l-304 0z"/>
            <glyph unicode="&#190;" horiz-adv-x="931"
                   d="M79 428q38 -53 94 -53q35 0 56.5 18q21.5 18 21.5 45q0 66 -120 66h-15v61h19q51 0 77.5 15q26.5 15 26.5 42q0 22 -17.5 36q-17.5 14 -48.5 14q-52 0 -85 -41l-56 40q23 29 60 44.5q37 15.5 85 15.5q66 0 104 -28.5q38 -28.5 38 -74.5q0 -63 -67 -90q39 -10 60 -36.5q21 -26.5 21 -66.5q0 -57 -41.5 -90q-41.5 -33 -114.5 -33q-113 0 -163 80zM646 736h69l-430 -748h-70zM766 93h-204v73l195 241h85v-255h65v-59h-65v-96h-76zM767 151v177l-143 -177z"/>
            <glyph unicode="&#191;" horiz-adv-x="438"
                   d="M303 583h-139v144h139zM291 480q1 -11 1 -20q0 -9 0 -18q0 -50 -11 -84.5q-11 -34.5 -40 -71.5q-34 -44 -56.5 -73.5q-22.5 -29.5 -22.5 -60.5q0 -27 17.5 -44q17.5 -17 44.5 -17q32 0 52 21.5q20 21.5 32 68.5l114 -35q-17 -75 -69.5 -116.5q-52.5 -41.5 -131.5 -41.5q-88 0 -138.5 42.5q-50.5 42.5 -50.5 114.5q0 33 9.5 58q9.5 25 24 46.5q14.5 21.5 32 40.5q17.5 19 32.5 39q21 28 33.5 56q12.5 28 12.5 72q0 5 0 11q0 6 -1 12z"/>
            <glyph unicode="&#192;" horiz-adv-x="617"
                   d="M223 727h171l219 -727h-137l-45 159h-251l-46 -159h-130zM398 275l-93 325l-92 -325zM291 964l96 -180h-69l-153 180z"/>
            <glyph unicode="&#193;" horiz-adv-x="617"
                   d="M223 727h171l219 -727h-137l-45 159h-251l-46 -159h-130zM398 275l-93 325l-92 -325zM299 784h-69l96 180l126 0z"/>
            <glyph unicode="&#194;" horiz-adv-x="617"
                   d="M223 727h171l219 -727h-137l-45 159h-251l-46 -159h-130zM398 275l-93 325l-92 -325zM251 964h116l96 -180h-69l-85 106l-86 -106l-68 0z"/>
            <glyph unicode="&#195;" horiz-adv-x="617"
                   d="M223 727h171l219 -727h-137l-45 159h-251l-46 -159h-130zM398 275l-93 325l-92 -325zM460 937q-25 -119 -102 -119q-8 0 -17 1q-9 1 -19 4l-43 13q-18 5 -32 5q-32 0 -43 -38l-54 0q12 59 36 87q24 28 64 28q20 0 42 -7l45 -12q12 -4 27 -4q31 0 42 42l54 0z"/>
            <glyph unicode="&#196;" horiz-adv-x="617"
                   d="M223 727h171l219 -727h-137l-45 159h-251l-46 -159h-130zM398 275l-93 325l-92 -325zM253 800h-116v115h116zM474 800h-117v115l117 0z"/>
            <glyph unicode="&#197;" horiz-adv-x="617"
                   d="M398 275l-93 325l-92 -325zM263 713q-41 14 -63 45.5q-22 31.5 -22 74.5q0 27 10 50.5q10 23.5 27.5 41.5q17.5 18 41.5 28q24 10 51 10q27 0 51 -10q24 -10 41.5 -28q17.5 -18 27.5 -41.5q10 -23.5 10 -50.5q0 -44 -22.5 -75.5q-22.5 -31.5 -64.5 -44.5l45 0l217 -713h-137l-45 159h-251l-46 -159h-130l217 713zM249 833q0 -26 16.5 -42.5q16.5 -16.5 42.5 -16.5q26 0 43 17q17 17 17 42q0 25 -17.5 42.5q-17.5 17.5 -42.5 17.5q-26 0 -42.5 -17t-16.5 -43z"/>
            <glyph unicode="&#198;" horiz-adv-x="889"
                   d="M293 727h550v-118h-313v-172h226v-116h-226v-197h327v-124h-457v159h-220l-68 -159h-142zM400 275v334h-29l-141 -334z"/>
            <glyph unicode="&#199;" horiz-adv-x="618"
                   d="M202 -151q43 -11 74 -16q31 -5 51 -5q49 0 49 36q0 19 -14 26.5q-14 7.5 -45 7.5q-7 0 -13.5 0q-6.5 0 -14.5 -1l0 93q-125 11 -188.5 103.5q-63.5 92.5 -63.5 266.5q0 183 77 279.5q77 96.5 217 96.5q99 0 161.5 -48.5q62.5 -48.5 83.5 -141.5l-126 -31q-27 106 -127 106q-147 0 -147 -262q0 -127 36 -188.5q36 -61.5 114 -61.5q51 0 88 28.5q37 28.5 51 79.5l126 -35q-26 -91 -90.5 -140q-64.5 -49 -161.5 -53l0 -33h7q115 0 115 -93q0 -98 -129 -98q-23 0 -55.5 5q-32.5 5 -74.5 16z"/>
            <glyph unicode="&#200;" horiz-adv-x="602"
                   d="M85 727h472v-118h-336v-172h245v-116h-245v-197h351v-124h-487zM312 964l96 -180h-69l-153 180z"/>
            <glyph unicode="&#201;" horiz-adv-x="602"
                   d="M85 727h472v-118h-336v-172h245v-116h-245v-197h351v-124h-487zM319 784h-69l96 180l126 0z"/>
            <glyph unicode="&#202;" horiz-adv-x="602"
                   d="M85 727h472v-118h-336v-172h245v-116h-245v-197h351v-124h-487zM271 964h116l96 -180h-69l-85 106l-86 -106l-68 0z"/>
            <glyph unicode="&#203;" horiz-adv-x="602"
                   d="M85 727h472v-118h-336v-172h245v-116h-245v-197h351v-124h-487zM275 800h-116v115h116zM496 800h-117v115l117 0z"/>
            <glyph unicode="&#204;" horiz-adv-x="328" d="M95 727h138v-727h-138zM147 964l96 -180h-69l-153 180z"/>
            <glyph unicode="&#205;" horiz-adv-x="328" d="M95 727h138v-727h-138zM154 784h-69l96 180l126 0z"/>
            <glyph unicode="&#206;" horiz-adv-x="328"
                   d="M95 727h138v-727h-138zM106 964h116l96 -180h-69l-85 106l-86 -106l-68 0z"/>
            <glyph unicode="&#207;" horiz-adv-x="328"
                   d="M95 727h138v-727h-138zM111 800h-116v115h116zM332 800h-117v115l117 0z"/>
            <glyph unicode="&#208;" horiz-adv-x="691"
                   d="M88 340h-83v74h83v313h222q170 0 255 -90.5q85 -90.5 85 -270.5q0 -366 -345 -366h-217zM300 120q112 0 162 58q50 58 50 188q0 124 -52.5 182q-52.5 58 -161.5 58h-74v-192h136v-74h-136l0 -220z"/>
            <glyph unicode="&#209;" horiz-adv-x="713"
                   d="M79 727h146l209 -365q23 -40 43.5 -83q20.5 -43 38.5 -91q-5 34 -7.5 70.5q-2.5 36.5 -2.5 77.5v391h127v-727h-127l-227 375q-17 29 -38 72.5q-21 43.5 -44 102.5q5 -34 7 -70.5q2 -36.5 2 -77.5v-402h-127zM512 937q-25 -119 -102 -119q-8 0 -17 1q-9 1 -19 4l-43 13q-18 5 -32 5q-32 0 -43 -38l-54 0q12 59 36 87q24 28 64 28q20 0 42 -7l45 -12q12 -4 27 -4q31 0 42 42l54 0z"/>
            <glyph unicode="&#210;" horiz-adv-x="678"
                   d="M37 362q0 89 21 158.5q21 69.5 60 117.5q39 48 95 73q56 25 126 25q70 0 126 -25q56 -25 95 -73q39 -48 60 -117.5q21 -69.5 21 -158.5q0 -89 -21 -158.5q-21 -69.5 -60 -117.5q-39 -48 -95 -73q-56 -25 -126 -25q-70 0 -126 25q-56 25 -95 73q-39 48 -60 117.5q-21 69.5 -21 158.5zt0 0zM176 362q0 -125 41.5 -188q41.5 -63 121.5 -63q80 0 121.5 63q41.5 63 41.5 188q0 126 -41.5 189.5q-41.5 63.5 -121.5 63.5q-80 0 -121.5 -63.5q-41.5 -63.5 -41.5 -189.5zt0 0zM322 964l96 -180h-69l-153 180z"/>
            <glyph unicode="&#211;" horiz-adv-x="678"
                   d="M37 362q0 89 21 158.5q21 69.5 60 117.5q39 48 95 73q56 25 126 25q70 0 126 -25q56 -25 95 -73q39 -48 60 -117.5q21 -69.5 21 -158.5q0 -89 -21 -158.5q-21 -69.5 -60 -117.5q-39 -48 -95 -73q-56 -25 -126 -25q-70 0 -126 25q-56 25 -95 73q-39 48 -60 117.5q-21 69.5 -21 158.5zt0 0zM176 362q0 -125 41.5 -188q41.5 -63 121.5 -63q80 0 121.5 63q41.5 63 41.5 188q0 126 -41.5 189.5q-41.5 63.5 -121.5 63.5q-80 0 -121.5 -63.5q-41.5 -63.5 -41.5 -189.5zt0 0zM329 784h-69l96 180l126 0z"/>
            <glyph unicode="&#212;" horiz-adv-x="678"
                   d="M37 362q0 89 21 158.5q21 69.5 60 117.5q39 48 95 73q56 25 126 25q70 0 126 -25q56 -25 95 -73q39 -48 60 -117.5q21 -69.5 21 -158.5q0 -89 -21 -158.5q-21 -69.5 -60 -117.5q-39 -48 -95 -73q-56 -25 -126 -25q-70 0 -126 25q-56 25 -95 73q-39 48 -60 117.5q-21 69.5 -21 158.5zt0 0zM176 362q0 -125 41.5 -188q41.5 -63 121.5 -63q80 0 121.5 63q41.5 63 41.5 188q0 126 -41.5 189.5q-41.5 63.5 -121.5 63.5q-80 0 -121.5 -63.5q-41.5 -63.5 -41.5 -189.5zt0 0zM281 964h116l96 -180h-69l-85 106l-86 -106l-68 0z"/>
            <glyph unicode="&#213;" horiz-adv-x="678"
                   d="M37 362q0 89 21 158.5q21 69.5 60 117.5q39 48 95 73q56 25 126 25q70 0 126 -25q56 -25 95 -73q39 -48 60 -117.5q21 -69.5 21 -158.5q0 -89 -21 -158.5q-21 -69.5 -60 -117.5q-39 -48 -95 -73q-56 -25 -126 -25q-70 0 -126 25q-56 25 -95 73q-39 48 -60 117.5q-21 69.5 -21 158.5zt0 0zM176 362q0 -125 41.5 -188q41.5 -63 121.5 -63q80 0 121.5 63q41.5 63 41.5 188q0 126 -41.5 189.5q-41.5 63.5 -121.5 63.5q-80 0 -121.5 -63.5q-41.5 -63.5 -41.5 -189.5zt0 0zM494 937q-25 -119 -102 -119q-8 0 -17 1q-9 1 -19 4l-43 13q-18 5 -32 5q-32 0 -43 -38l-54 0q12 59 36 87q24 28 64 28q20 0 42 -7l45 -12q12 -4 27 -4q31 0 42 42l54 0z"/>
            <glyph unicode="&#214;" horiz-adv-x="678"
                   d="M37 362q0 89 21 158.5q21 69.5 60 117.5q39 48 95 73q56 25 126 25q70 0 126 -25q56 -25 95 -73q39 -48 60 -117.5q21 -69.5 21 -158.5q0 -89 -21 -158.5q-21 -69.5 -60 -117.5q-39 -48 -95 -73q-56 -25 -126 -25q-70 0 -126 25q-56 25 -95 73q-39 48 -60 117.5q-21 69.5 -21 158.5zt0 0zM176 362q0 -125 41.5 -188q41.5 -63 121.5 -63q80 0 121.5 63q41.5 63 41.5 188q0 126 -41.5 189.5q-41.5 63.5 -121.5 63.5q-80 0 -121.5 -63.5q-41.5 -63.5 -41.5 -189.5zt0 0zM290 800h-116v115h116zM511 800h-117v115l117 0z"/>
            <glyph unicode="&#215;" horiz-adv-x="833"
                   d="M421 356l225 224l57 -57l-224 -225l224 -224l-57 -58l-225 225l-224 -225l-57 58l224 224l-224 225l57 57z"/>
            <glyph unicode="&#216;" horiz-adv-x="678"
                   d="M108 101q-71 104 -71 266q0 86 21 154.5q21 68.5 60 116.5q39 48 94 74q55 26 122 26q49 0 89 -11q40 -11 75 -35l56 86l79 -50l-65 -101q34 -43 53.5 -112.5q19.5 -69.5 19.5 -162.5q0 -84 -21.5 -151.5q-21.5 -67.5 -61.5 -114.5q-40 -47 -96 -72.5q-56 -25.5 -126 -25.5q-48 0 -87 11q-39 11 -72 35l-65 -98l-78 51zM432 584q-37 31 -91 31q-81 0 -123.5 -64q-42.5 -64 -42.5 -192q0 -35 4.5 -67.5q4.5 -32.5 15.5 -66.5zM244 144q40 -34 96 -34q76 0 119 62q43 62 43 180q0 51 -5.5 89q-5.5 38 -14.5 63z"/>
            <glyph unicode="&#217;" horiz-adv-x="713"
                   d="M81 727h137v-466q0 -78 31 -115.5q31 -37.5 107 -37.5q80 0 111.5 36.5q31.5 36.5 31.5 116.5v466h133v-482q0 -125 -71 -191q-71 -66 -205 -66q-140 0 -207.5 69q-67.5 69 -67.5 210zM340 964l96 -180h-69l-153 180z"/>
            <glyph unicode="&#218;" horiz-adv-x="713"
                   d="M81 727h137v-466q0 -78 31 -115.5q31 -37.5 107 -37.5q80 0 111.5 36.5q31.5 36.5 31.5 116.5v466h133v-482q0 -125 -71 -191q-71 -66 -205 -66q-140 0 -207.5 69q-67.5 69 -67.5 210zM347 784h-69l96 180l126 0z"/>
            <glyph unicode="&#219;" horiz-adv-x="713"
                   d="M81 727h137v-466q0 -78 31 -115.5q31 -37.5 107 -37.5q80 0 111.5 36.5q31.5 36.5 31.5 116.5v466h133v-482q0 -125 -71 -191q-71 -66 -205 -66q-140 0 -207.5 69q-67.5 69 -67.5 210zM299 964h116l96 -180h-69l-85 106l-86 -106l-68 0z"/>
            <glyph unicode="&#220;" horiz-adv-x="713"
                   d="M81 727h137v-466q0 -78 31 -115.5q31 -37.5 107 -37.5q80 0 111.5 36.5q31.5 36.5 31.5 116.5v466h133v-482q0 -125 -71 -191q-71 -66 -205 -66q-140 0 -207.5 69q-67.5 69 -67.5 210zM308 800h-116v115h116zM529 800h-117v115l117 0z"/>
            <glyph unicode="&#221;" horiz-adv-x="560"
                   d="M213 287l-211 440h144l140 -302l138 302h134l-208 -439v-288h-137zM270 784h-69l96 180l126 0z"/>
            <glyph unicode="&#222;" horiz-adv-x="634"
                   d="M81 727h138v-136h122q128 0 191 -53q63 -53 63 -163q0 -106 -61 -161q-61 -55 -180 -55h-135v-159h-138zM321 273q70 0 103.5 22q33.5 22 33.5 81q0 59 -33.5 81q-33.5 22 -103.5 22h-102l0 -206z"/>
            <glyph unicode="&#223;" horiz-adv-x="519"
                   d="M66 513q0 105 50 159.5q50 54.5 143 54.5q188 0 188 -198q0 -112 -70 -135q110 -23 110 -198q0 -100 -43 -153q-43 -53 -121 -53q-29 0 -53.5 7q-24.5 7 -42.5 19l29 89q23 -16 45 -16q59 0 59 117q0 70 -25.5 100q-25.5 30 -87.5 32l0 96q77 1 77 86q0 102 -71 102q-65 0 -65 -88v-534l-122 0z"/>
            <glyph unicode="&#224;" horiz-adv-x="512"
                   d="M327 46q-71 -52 -156 -52q-66 0 -103 37q-37 37 -37 103q0 88 73 136.5q73 48.5 224 67.5l0 41q0 29 -19 44.5q-19 15.5 -55 15.5q-72 0 -115 -60l-84 53q66 102 201 102q93 0 142.5 -41.5q49.5 -41.5 49.5 -113.5v-308q0 -25 8 -71l-118 0zM324 255q-88 -12 -129.5 -38q-41.5 -26 -41.5 -73q0 -26 14.5 -41q14.5 -15 41.5 -15q59 0 115 55zM246 760l96 -180h-69l-153 180z"/>
            <glyph unicode="&#225;" horiz-adv-x="512"
                   d="M327 46q-71 -52 -156 -52q-66 0 -103 37q-37 37 -37 103q0 88 73 136.5q73 48.5 224 67.5l0 41q0 29 -19 44.5q-19 15.5 -55 15.5q-72 0 -115 -60l-84 53q66 102 201 102q93 0 142.5 -41.5q49.5 -41.5 49.5 -113.5v-308q0 -25 8 -71l-118 0zM324 255q-88 -12 -129.5 -38q-41.5 -26 -41.5 -73q0 -26 14.5 -41q14.5 -15 41.5 -15q59 0 115 55zM253 580h-69l96 180l126 0z"/>
            <glyph unicode="&#226;" horiz-adv-x="512"
                   d="M327 46q-71 -52 -156 -52q-66 0 -103 37q-37 37 -37 103q0 88 73 136.5q73 48.5 224 67.5l0 41q0 29 -19 44.5q-19 15.5 -55 15.5q-72 0 -115 -60l-84 53q66 102 201 102q93 0 142.5 -41.5q49.5 -41.5 49.5 -113.5v-308q0 -25 8 -71l-118 0zM324 255q-88 -12 -129.5 -38q-41.5 -26 -41.5 -73q0 -26 14.5 -41q14.5 -15 41.5 -15q59 0 115 55zM205 760h116l96 -180h-69l-85 106l-86 -106l-68 0z"/>
            <glyph unicode="&#227;" horiz-adv-x="512"
                   d="M327 46q-71 -52 -156 -52q-66 0 -103 37q-37 37 -37 103q0 88 73 136.5q73 48.5 224 67.5l0 41q0 29 -19 44.5q-19 15.5 -55 15.5q-72 0 -115 -60l-84 53q66 102 201 102q93 0 142.5 -41.5q49.5 -41.5 49.5 -113.5v-308q0 -25 8 -71l-118 0zM324 255q-88 -12 -129.5 -38q-41.5 -26 -41.5 -73q0 -26 14.5 -41q14.5 -15 41.5 -15q59 0 115 55zM418 737q-25 -119 -102 -119q-8 0 -17 1q-9 1 -19 4l-43 13q-18 5 -32 5q-32 0 -43 -38l-54 0q12 59 36 87q24 28 64 28q20 0 42 -7l45 -12q12 -4 27 -4q31 0 42 42l54 0z"/>
            <glyph unicode="&#228;" horiz-adv-x="512"
                   d="M327 46q-71 -52 -156 -52q-66 0 -103 37q-37 37 -37 103q0 88 73 136.5q73 48.5 224 67.5l0 41q0 29 -19 44.5q-19 15.5 -55 15.5q-72 0 -115 -60l-84 53q66 102 201 102q93 0 142.5 -41.5q49.5 -41.5 49.5 -113.5v-308q0 -25 8 -71l-118 0zM324 255q-88 -12 -129.5 -38q-41.5 -26 -41.5 -73q0 -26 14.5 -41q14.5 -15 41.5 -15q59 0 115 55zM123 727h110v-117h-110zM293 727h110v-117l-110 0z"/>
            <glyph unicode="&#229;" horiz-adv-x="512"
                   d="M327 46q-71 -52 -156 -52q-66 0 -103 37q-37 37 -37 103q0 88 73 136.5q73 48.5 224 67.5l0 41q0 29 -19 44.5q-19 15.5 -55 15.5q-72 0 -115 -60l-84 53q66 102 201 102q93 0 142.5 -41.5q49.5 -41.5 49.5 -113.5v-308q0 -25 8 -71l-118 0zM324 255q-88 -12 -129.5 -38q-41.5 -26 -41.5 -73q0 -26 14.5 -41q14.5 -15 41.5 -15q59 0 115 55zM143 700q0 27 10 50.5q10 23.5 27 41.5q17 18 41 28q24 10 51 10q27 0 51 -10q24 -10 41.5 -28q17.5 -18 27.5 -41.5q10 -23.5 10 -50.5q0 -27 -10 -51q-10 -24 -27.5 -41.5q-17.5 -17.5 -41.5 -27.5q-24 -10 -51 -10q-27 0 -51 10q-24 10 -41 27.5q-17 17.5 -27 41.5q-10 24 -10 51zt0 0zM213 700q0 -26 16.5 -42.5q16.5 -16.5 42.5 -16.5q26 0 43 17q17 17 17 42q0 25 -17.5 42.5q-17.5 17.5 -42.5 17.5q-26 0 -42.5 -17t-16.5 -43z"/>
            <glyph unicode="&#230;" horiz-adv-x="794"
                   d="M379 69q-90 -80 -197 -80q-73 0 -113 38q-40 38 -40 104q0 167 303 206l2 35v4q0 29 -21.5 46.5q-21.5 17.5 -57.5 17.5q-32 0 -61 -16q-29 -16 -52 -46l-90 54q40 54 88 78q48 24 115 24q48 0 83 -12.5q35 -12.5 64 -42.5q30 29 66 42q36 13 81 13q103 0 159.5 -70q56.5 -70 56.5 -204v-20h-316q2 -75 30 -113.5q28 -38.5 79 -38.5q76 0 109 70l90 -56q-67 -112 -202 -112q-58 0 -100 18q-42 18 -76 61zt0 0zM331 253q-90 -17 -133.5 -42.5q-43.5 -25.5 -43.5 -69.5q0 -27 16.5 -42.5q16.5 -15.5 46.5 -15.5q26 0 53.5 14.5q27.5 14.5 60.5 42.5zM642 329q-2 54 -27 83q-25 29 -67 29q-42 0 -68 -29q-26 -29 -29 -83z"/>
            <glyph unicode="&#231;" horiz-adv-x="486"
                   d="M121 -151q43 -11 74 -16q31 -5 51 -5q49 0 49 36q0 19 -14 26.5q-14 7.5 -45 7.5q-7 0 -13.5 0q-6.5 0 -14.5 -1l0 97q-89 13 -134.5 80q-45.5 67 -45.5 188q0 64 16 114q16 50 45 85q29 35 71 53.5q42 18.5 94 18.5q74 0 126 -35q52 -35 75 -101l-104 -45q-14 40 -35 59.5q-21 19.5 -54 19.5q-57 0 -83.5 -42.5q-26.5 -42.5 -26.5 -133.5q0 -160 102 -160q72 0 110 79l96 -51q-55 -131 -202 -133l0 -34h7q115 0 115 -93q0 -98 -129 -98q-23 0 -55.5 5q-32.5 5 -74.5 16z"/>
            <glyph unicode="&#232;" horiz-adv-x="495"
                   d="M460 103q-61 -113 -209 -113q-105 0 -163.5 70.5q-58.5 70.5 -58.5 200.5q0 131 58.5 202q58.5 71 161.5 71q103 0 159.5 -69q56.5 -69 56.5 -197v-27h-314q2 -149 111 -149q35 0 60 16q25 16 47 51zM344 330q0 53 -25 82q-25 29 -70 29q-42 0 -67 -28.5q-25 -28.5 -29 -82.5zM241 760l96 -180h-69l-153 180z"/>
            <glyph unicode="&#233;" horiz-adv-x="495"
                   d="M460 103q-61 -113 -209 -113q-105 0 -163.5 70.5q-58.5 70.5 -58.5 200.5q0 131 58.5 202q58.5 71 161.5 71q103 0 159.5 -69q56.5 -69 56.5 -197v-27h-314q2 -149 111 -149q35 0 60 16q25 16 47 51zM344 330q0 53 -25 82q-25 29 -70 29q-42 0 -67 -28.5q-25 -28.5 -29 -82.5zM248 580h-69l96 180l126 0z"/>
            <glyph unicode="&#234;" horiz-adv-x="495"
                   d="M460 103q-61 -113 -209 -113q-105 0 -163.5 70.5q-58.5 70.5 -58.5 200.5q0 131 58.5 202q58.5 71 161.5 71q103 0 159.5 -69q56.5 -69 56.5 -197v-27h-314q2 -149 111 -149q35 0 60 16q25 16 47 51zM344 330q0 53 -25 82q-25 29 -70 29q-42 0 -67 -28.5q-25 -28.5 -29 -82.5zM200 760h116l96 -180h-69l-85 106l-86 -106l-68 0z"/>
            <glyph unicode="&#235;" horiz-adv-x="495"
                   d="M460 103q-61 -113 -209 -113q-105 0 -163.5 70.5q-58.5 70.5 -58.5 200.5q0 131 58.5 202q58.5 71 161.5 71q103 0 159.5 -69q56.5 -69 56.5 -197v-27h-314q2 -149 111 -149q35 0 60 16q25 16 47 51zM344 330q0 53 -25 82q-25 29 -70 29q-42 0 -67 -28.5q-25 -28.5 -29 -82.5zM118 727h110v-117h-110zM288 727h110v-117l-110 0z"/>
            <glyph unicode="&#236;" horiz-adv-x="256" d="M66 524h124v-524h-124zM111 760l96 -180h-69l-153 180z"/>
            <glyph unicode="&#237;" horiz-adv-x="256" d="M66 524h124v-524h-124zM118 580h-69l96 180l126 0z"/>
            <glyph unicode="&#238;" horiz-adv-x="256"
                   d="M66 524h124v-524h-124zM70 760h116l96 -180h-69l-85 106l-86 -106l-68 0z"/>
            <glyph unicode="&#239;" horiz-adv-x="256"
                   d="M66 524h124v-524h-124zM-12 727h110v-117h-110zM158 727h110v-117l-110 0z"/>
            <glyph unicode="&#240;" horiz-adv-x="505"
                   d="M285 498q-16 29 -70 77l-112 -63l-32 53l89 52q-18 14 -38 25.5q-20 11.5 -41 23.5l32 71q32 -12 66.5 -29.5q34.5 -17.5 71.5 -40.5l119 69l32 -54l-99 -57q89 -73 131 -165.5q42 -92.5 42 -212.5q0 -122 -59.5 -190q-59.5 -68 -164.5 -68q-105 0 -164.5 68q-59.5 68 -59.5 190q0 60 15.5 108q15.5 48 43.5 81.5q28 33.5 67 51q39 17.5 87 17.5q24 0 44 -7zt0 0zM153 247q0 -156 99 -156q99 0 99 156q0 158 -99 158q-99 0 -99 -158z"/>
            <glyph unicode="&#241;" horiz-adv-x="551"
                   d="M65 524h114v-62q44 35 81 53.5q37 18.5 81 18.5q147 0 147 -170v-364h-124v340q0 48 -13 70.5q-13 22.5 -47 22.5q-54 0 -116 -58l0 -375h-123zM431 737q-25 -119 -102 -119q-8 0 -17 1q-9 1 -19 4l-43 13q-18 5 -32 5q-32 0 -43 -38l-54 0q12 59 36 87q24 28 64 28q20 0 42 -7l45 -12q12 -4 27 -4q31 0 42 42l54 0z"/>
            <glyph unicode="&#242;" horiz-adv-x="505"
                   d="M28 262q0 130 59 201q59 71 165 71q106 0 165 -71q59 -71 59 -201q0 -130 -59.5 -201q-59.5 -71 -164.5 -71q-105 0 -164.5 71.5q-59.5 71.5 -59.5 200.5zt0 0zM153 262q0 -166 99 -166q99 0 99 166q0 165 -99 165q-99 0 -99 -165zt0 0zM236 760l96 -180h-69l-153 180z"/>
            <glyph unicode="&#243;" horiz-adv-x="505"
                   d="M28 262q0 130 59 201q59 71 165 71q106 0 165 -71q59 -71 59 -201q0 -130 -59.5 -201q-59.5 -71 -164.5 -71q-105 0 -164.5 71.5q-59.5 71.5 -59.5 200.5zt0 0zM153 262q0 -166 99 -166q99 0 99 166q0 165 -99 165q-99 0 -99 -165zt0 0zM243 580h-69l96 180l126 0z"/>
            <glyph unicode="&#244;" horiz-adv-x="505"
                   d="M28 262q0 130 59 201q59 71 165 71q106 0 165 -71q59 -71 59 -201q0 -130 -59.5 -201q-59.5 -71 -164.5 -71q-105 0 -164.5 71.5q-59.5 71.5 -59.5 200.5zt0 0zM153 262q0 -166 99 -166q99 0 99 166q0 165 -99 165q-99 0 -99 -165zt0 0zM195 760h116l96 -180h-69l-85 106l-86 -106l-68 0z"/>
            <glyph unicode="&#245;" horiz-adv-x="505"
                   d="M28 262q0 130 59 201q59 71 165 71q106 0 165 -71q59 -71 59 -201q0 -130 -59.5 -201q-59.5 -71 -164.5 -71q-105 0 -164.5 71.5q-59.5 71.5 -59.5 200.5zt0 0zM153 262q0 -166 99 -166q99 0 99 166q0 165 -99 165q-99 0 -99 -165zt0 0zM408 737q-25 -119 -102 -119q-8 0 -17 1q-9 1 -19 4l-43 13q-18 5 -32 5q-32 0 -43 -38l-54 0q12 59 36 87q24 28 64 28q20 0 42 -7l45 -12q12 -4 27 -4q31 0 42 42l54 0z"/>
            <glyph unicode="&#246;" horiz-adv-x="505"
                   d="M28 262q0 130 59 201q59 71 165 71q106 0 165 -71q59 -71 59 -201q0 -130 -59.5 -201q-59.5 -71 -164.5 -71q-105 0 -164.5 71.5q-59.5 71.5 -59.5 200.5zt0 0zM153 262q0 -166 99 -166q99 0 99 166q0 165 -99 165q-99 0 -99 -165zt0 0zM113 727h110v-117h-110zM283 727h110v-117l-110 0z"/>
            <glyph unicode="&#247;" horiz-adv-x="833"
                   d="M417 551q28 0 47.5 -20q19.5 -20 19.5 -48q0 -27 -19 -46.5q-19 -19.5 -48 -19.5q-29 0 -48 19q-19 19 -19 47q0 28 20 48q20 20 47 20zt0 0zM709 339v-81h-585v81zM417 179q28 0 47.5 -19.5q19.5 -19.5 19.5 -47.5q0 -27 -19 -46.5q-19 -19.5 -48 -19.5q-29 0 -48 19q-19 19 -19 47q0 28 20 47.5t47 19.5z"/>
            <glyph unicode="&#248;" horiz-adv-x="505"
                   d="M93 57q-34 38 -49.5 88.5q-15.5 50.5 -15.5 116.5q0 131 60 201.5q60 70.5 170 70.5q50 0 87 -17l38 70l70 -38l-44 -80q35 -39 51 -90q16 -51 16 -117q0 -129 -59.5 -200.5q-59.5 -71.5 -164.5 -71.5q-29 0 -52.5 3.5q-23.5 3.5 -43.5 14.5l-44 -82l-70 38zM299 422q-23 12 -48 12q-58 0 -83.5 -45.5q-25.5 -45.5 -25.5 -137.5q0 -24 3 -46q3 -22 11 -43zM202 103q28 -14 52 -14q57 0 83.5 44q26.5 44 26.5 134q0 28 -4 53.5q-4 25.5 -13 49.5z"/>
            <glyph unicode="&#249;" horiz-adv-x="551"
                   d="M372 61q-44 -35 -81.5 -53q-37.5 -18 -81.5 -18q-146 0 -146 169v365h124v-340q0 -48 13 -71q13 -23 47 -23q28 0 56 15q28 15 60 44l0 375h123v-524h-114v61zM259 760l96 -180h-69l-153 180z"/>
            <glyph unicode="&#250;" horiz-adv-x="551"
                   d="M372 61q-44 -35 -81.5 -53q-37.5 -18 -81.5 -18q-146 0 -146 169v365h124v-340q0 -48 13 -71q13 -23 47 -23q28 0 56 15q28 15 60 44l0 375h123v-524h-114v61zM266 580h-69l96 180l126 0z"/>
            <glyph unicode="&#251;" horiz-adv-x="551"
                   d="M372 61q-44 -35 -81.5 -53q-37.5 -18 -81.5 -18q-146 0 -146 169v365h124v-340q0 -48 13 -71q13 -23 47 -23q28 0 56 15q28 15 60 44l0 375h123v-524h-114v61zM218 760h116l96 -180h-69l-85 106l-86 -106l-68 0z"/>
            <glyph unicode="&#252;" horiz-adv-x="551"
                   d="M372 61q-44 -35 -81.5 -53q-37.5 -18 -81.5 -18q-146 0 -146 169v365h124v-340q0 -48 13 -71q13 -23 47 -23q28 0 56 15q28 15 60 44l0 375h123v-524h-114v61zM136 727h110v-117h-110zM306 727h110v-117l-110 0z"/>
            <glyph unicode="&#253;" horiz-adv-x="478"
                   d="M4 524h124l115 -344l107 344h121l-164 -495q-18 -55 -35 -96q-17 -41 -40 -68.5q-23 -27.5 -55.5 -41q-32.5 -13.5 -81.5 -13.5q-28 0 -55 8l0 103q25 -6 51 -6q42 0 64 23.5q22 23.5 33 75.5zM229 580h-69l96 180l126 0z"/>
            <glyph unicode="&#254;" horiz-adv-x="546"
                   d="M187 135q47 -44 94 -44q51 0 80.5 44q29.5 44 29.5 127q0 82 -30 125q-30 43 -82 43q-25 0 -47 -11.5q-22 -11.5 -45 -34.5zM66 727h123v-241q25 26 54.5 37q29.5 11 67.5 11q45 0 82.5 -19.5q37.5 -19.5 64.5 -55.5q27 -36 42 -86q15 -50 15 -111q0 -63 -15.5 -113.5q-15.5 -50.5 -42.5 -86q-27 -35.5 -63.5 -54q-36.5 -18.5 -78.5 -18.5q-40 0 -70 14q-30 14 -57 46l0 -240l-122 0z"/>
            <glyph unicode="&#255;" horiz-adv-x="478"
                   d="M4 524h124l115 -344l107 344h121l-164 -495q-18 -55 -35 -96q-17 -41 -40 -68.5q-23 -27.5 -55.5 -41q-32.5 -13.5 -81.5 -13.5q-28 0 -55 8l0 103q25 -6 51 -6q42 0 64 23.5q22 23.5 33 75.5zM99 727h110v-117h-110zM269 727h110v-117l-110 0z"/>
            <glyph unicode="&#256;" horiz-adv-x="617"
                   d="M223 727h171l219 -727h-137l-45 159h-251l-46 -159h-130zM398 275l-93 325l-92 -325zM168 895h280v-75l-280 0z"/>
            <glyph unicode="&#257;" horiz-adv-x="512"
                   d="M327 46q-71 -52 -156 -52q-66 0 -103 37q-37 37 -37 103q0 88 73 136.5q73 48.5 224 67.5l0 41q0 29 -19 44.5q-19 15.5 -55 15.5q-72 0 -115 -60l-84 53q66 102 201 102q93 0 142.5 -41.5q49.5 -41.5 49.5 -113.5v-308q0 -25 8 -71l-118 0zM324 255q-88 -12 -129.5 -38q-41.5 -26 -41.5 -73q0 -26 14.5 -41q14.5 -15 41.5 -15q59 0 115 55zM116 706h280v-75l-280 0z"/>
            <glyph unicode="&#258;" horiz-adv-x="617"
                   d="M223 727h171l219 -727h-137l-45 159h-251l-46 -159h-130zM398 275l-93 325l-92 -325zM217 954q3 -38 25 -55q22 -17 66 -17q44 0 65.5 17q21.5 17 24.5 55l60 0q-5 -77 -41.5 -112.5q-36.5 -35.5 -108.5 -35.5q-72 0 -109 36q-37 36 -42 112z"/>
            <glyph unicode="&#259;" horiz-adv-x="512"
                   d="M327 46q-71 -52 -156 -52q-66 0 -103 37q-37 37 -37 103q0 88 73 136.5q73 48.5 224 67.5l0 41q0 29 -19 44.5q-19 15.5 -55 15.5q-72 0 -115 -60l-84 53q66 102 201 102q93 0 142.5 -41.5q49.5 -41.5 49.5 -113.5v-308q0 -25 8 -71l-118 0zM324 255q-88 -12 -129.5 -38q-41.5 -26 -41.5 -73q0 -26 14.5 -41q14.5 -15 41.5 -15q59 0 115 55zM165 744q3 -38 25 -55q22 -17 66 -17q44 0 65.5 17q21.5 17 24.5 55l60 0q-5 -77 -41.5 -112.5q-36.5 -35.5 -108.5 -35.5q-72 0 -109 36q-37 36 -42 112z"/>
            <glyph unicode="&#260;" horiz-adv-x="617"
                   d="M613 0q-62 -50 -62 -100q0 -39 40 -39h50v-85h-52q-116 0 -116 90q0 37 23 68.5q23 31.5 70 65.5l-90 0l-45 159h-251l-46 -159h-130l219 727h171zM398 275l-93 325l-92 -325z"/>
            <glyph unicode="&#261;" horiz-adv-x="512"
                   d="M327 46q-71 -52 -156 -52q-66 0 -103 37q-37 37 -37 103q0 88 73 136.5q73 48.5 224 67.5l0 41q0 29 -19 44.5q-19 15.5 -55 15.5q-72 0 -115 -60l-84 53q66 102 201 102q93 0 142.5 -41.5q49.5 -41.5 49.5 -113.5v-308q0 -25 8 -71q-62 -50 -62 -100q0 -39 40 -39h50v-85h-52q-116 0 -116 90q0 37 23 68.5q23 31.5 70 65.5l-71 0zM324 255q-88 -12 -129.5 -38q-41.5 -26 -41.5 -73q0 -26 14.5 -41q14.5 -15 41.5 -15q59 0 115 55z"/>
            <glyph unicode="&#262;" horiz-adv-x="618"
                   d="M591 182q-27 -94 -95.5 -144q-68.5 -50 -172.5 -50q-142 0 -214 93q-72 93 -72 279q0 183 77 279.5q77 96.5 217 96.5q99 0 161.5 -48.5q62.5 -48.5 83.5 -141.5l-126 -31q-27 106 -127 106q-147 0 -147 -262q0 -127 36 -188.5q36 -61.5 114 -61.5q51 0 88 28.5q37 28.5 51 79.5zM299 784h-69l96 180l126 0z"/>
            <glyph unicode="&#263;" horiz-adv-x="486"
                   d="M460 123q-55 -133 -206 -133q-112 0 -169 68.5q-57 68.5 -57 203.5q0 64 16 114q16 50 45 85q29 35 71 53.5q42 18.5 94 18.5q74 0 126 -35q52 -35 75 -101l-104 -45q-14 40 -35 59.5q-21 19.5 -54 19.5q-57 0 -83.5 -42.5q-26.5 -42.5 -26.5 -133.5q0 -160 102 -160q72 0 110 79zM233 580h-69l96 180l126 0z"/>
            <glyph unicode="&#264;" horiz-adv-x="618"
                   d="M591 182q-27 -94 -95.5 -144q-68.5 -50 -172.5 -50q-142 0 -214 93q-72 93 -72 279q0 183 77 279.5q77 96.5 217 96.5q99 0 161.5 -48.5q62.5 -48.5 83.5 -141.5l-126 -31q-27 106 -127 106q-147 0 -147 -262q0 -127 36 -188.5q36 -61.5 114 -61.5q51 0 88 28.5q37 28.5 51 79.5zM251 964h116l96 -180h-69l-85 106l-86 -106l-68 0z"/>
            <glyph unicode="&#265;" horiz-adv-x="486"
                   d="M460 123q-55 -133 -206 -133q-112 0 -169 68.5q-57 68.5 -57 203.5q0 64 16 114q16 50 45 85q29 35 71 53.5q42 18.5 94 18.5q74 0 126 -35q52 -35 75 -101l-104 -45q-14 40 -35 59.5q-21 19.5 -54 19.5q-57 0 -83.5 -42.5q-26.5 -42.5 -26.5 -133.5q0 -160 102 -160q72 0 110 79zM185 760h116l96 -180h-69l-85 106l-86 -106l-68 0z"/>
            <glyph unicode="&#266;" horiz-adv-x="618"
                   d="M591 182q-27 -94 -95.5 -144q-68.5 -50 -172.5 -50q-142 0 -214 93q-72 93 -72 279q0 183 77 279.5q77 96.5 217 96.5q99 0 161.5 -48.5q62.5 -48.5 83.5 -141.5l-126 -31q-27 106 -127 106q-147 0 -147 -262q0 -127 36 -188.5q36 -61.5 114 -61.5q51 0 88 28.5q37 28.5 51 79.5zM263 925h115v-125l-115 0z"/>
            <glyph unicode="&#267;" horiz-adv-x="486"
                   d="M460 123q-55 -133 -206 -133q-112 0 -169 68.5q-57 68.5 -57 203.5q0 64 16 114q16 50 45 85q29 35 71 53.5q42 18.5 94 18.5q74 0 126 -35q52 -35 75 -101l-104 -45q-14 40 -35 59.5q-21 19.5 -54 19.5q-57 0 -83.5 -42.5q-26.5 -42.5 -26.5 -133.5q0 -160 102 -160q72 0 110 79zM188 727h124v-117l-124 0z"/>
            <glyph unicode="&#268;" horiz-adv-x="618"
                   d="M591 182q-27 -94 -95.5 -144q-68.5 -50 -172.5 -50q-142 0 -214 93q-72 93 -72 279q0 183 77 279.5q77 96.5 217 96.5q99 0 161.5 -48.5q62.5 -48.5 83.5 -141.5l-126 -31q-27 106 -127 106q-147 0 -147 -262q0 -127 36 -188.5q36 -61.5 114 -61.5q51 0 88 28.5q37 28.5 51 79.5zM223 964l86 -106l85 106h69l-96 -180h-116l-96 180z"/>
            <glyph unicode="&#269;" horiz-adv-x="486"
                   d="M460 123q-55 -133 -206 -133q-112 0 -169 68.5q-57 68.5 -57 203.5q0 64 16 114q16 50 45 85q29 35 71 53.5q42 18.5 94 18.5q74 0 126 -35q52 -35 75 -101l-104 -45q-14 40 -35 59.5q-21 19.5 -54 19.5q-57 0 -83.5 -42.5q-26.5 -42.5 -26.5 -133.5q0 -160 102 -160q72 0 110 79zM157 760l86 -106l85 106h69l-96 -180h-116l-96 180z"/>
            <glyph unicode="&#270;" horiz-adv-x="686"
                   d="M82 727h222q170 0 255.5 -90.5q85.5 -90.5 85.5 -270.5q0 -366 -346 -366h-217zM294 120q112 0 162 58q50 58 50 188q0 124 -52 182q-52 58 -162 58h-73v-486zM257 964l86 -106l85 106h69l-96 -180h-116l-96 180z"/>
            <glyph unicode="&#271;" horiz-adv-x="657"
                   d="M377 56q-54 -66 -141 -66q-45 0 -82.5 19.5q-37.5 19.5 -64.5 55.5q-27 36 -42.5 86q-15.5 50 -15.5 111q0 63 15.5 113.5q15.5 50.5 42.5 86q27 35.5 63.5 54q36.5 18.5 78.5 18.5q40 0 70 -14q30 -14 57 -46l0 253h122v-605q0 -38 6 -122l-96 0zM359 388q-24 22 -45.5 33q-21.5 11 -47.5 11q-51 0 -80.5 -43.5q-29.5 -43.5 -29.5 -126.5q0 -82 29.5 -125q29.5 -43 81.5 -43q26 0 47.5 11q21.5 11 44.5 34zM587 586h-57v141h135v-150l-63 -149l-65 0z"/>
            <glyph unicode="&#272;" horiz-adv-x="691"
                   d="M88 340h-83v74h83v313h222q170 0 255 -90.5q85 -90.5 85 -270.5q0 -366 -345 -366h-217zM300 120q112 0 162 58q50 58 50 188q0 124 -52.5 182q-52.5 58 -161.5 58h-74v-192h136v-74h-136l0 -220z"/>
            <glyph unicode="&#273;" horiz-adv-x="546"
                   d="M377 56q-54 -66 -141 -66q-45 0 -82.5 18q-37.5 18 -64.5 52q-27 34 -42.5 82.5q-15.5 48.5 -15.5 109.5q0 63 15.5 112q15.5 49 42.5 82.5q27 33.5 63.5 50.5q36.5 17 78.5 17q40 0 70 -14q30 -14 57 -46l0 119h-166v84h166v70h122v-70h81v-84h-81v-451q0 -38 6 -122l-96 0zM359 368q-24 22 -45.5 33q-21.5 11 -47.5 11q-51 0 -80.5 -38.5q-29.5 -38.5 -29.5 -121.5q0 -82 29.5 -120q29.5 -38 81.5 -38q26 0 47.5 11q21.5 11 44.5 34z"/>
            <glyph unicode="&#274;" horiz-adv-x="602"
                   d="M85 727h472v-118h-336v-172h245v-116h-245v-197h351v-124h-487zM161 895h280v-75l-280 0z"/>
            <glyph unicode="&#275;" horiz-adv-x="495"
                   d="M460 103q-61 -113 -209 -113q-105 0 -163.5 70.5q-58.5 70.5 -58.5 200.5q0 131 58.5 202q58.5 71 161.5 71q103 0 159.5 -69q56.5 -69 56.5 -197v-27h-314q2 -149 111 -149q35 0 60 16q25 16 47 51zM344 330q0 53 -25 82q-25 29 -70 29q-42 0 -67 -28.5q-25 -28.5 -29 -82.5zM107 706h280v-75l-280 0z"/>
            <glyph unicode="&#278;" horiz-adv-x="602"
                   d="M85 727h472v-118h-336v-172h245v-116h-245v-197h351v-124h-487zM244 925h115v-125l-115 0z"/>
            <glyph unicode="&#279;" horiz-adv-x="495"
                   d="M460 103q-61 -113 -209 -113q-105 0 -163.5 70.5q-58.5 70.5 -58.5 200.5q0 131 58.5 202q58.5 71 161.5 71q103 0 159.5 -69q56.5 -69 56.5 -197v-27h-314q2 -149 111 -149q35 0 60 16q25 16 47 51zM344 330q0 53 -25 82q-25 29 -70 29q-42 0 -67 -28.5q-25 -28.5 -29 -82.5zM185 727h124v-117l-124 0z"/>
            <glyph unicode="&#280;" horiz-adv-x="602"
                   d="M85 727h472v-118h-336v-172h245v-116h-245v-197h351v-124h-8q-62 -50 -62 -100q0 -39 40 -39h50v-85h-52q-116 0 -116 90q0 37 23 68.5q23 31.5 70 65.5l-432 0z"/>
            <glyph unicode="&#281;" horiz-adv-x="495"
                   d="M330 0q-62 -50 -62 -100q0 -39 40 -39h50v-85h-52q-116 0 -116 90q0 35 19.5 64.5q19.5 29.5 60.5 60.5q-5 -1 -9.5 -1q-4.5 0 -9.5 0q-105 0 -163.5 70.5q-58.5 70.5 -58.5 200.5q0 131 58.5 202q58.5 71 161.5 71q103 0 159.5 -69q56.5 -69 56.5 -197v-27h-314q2 -149 111 -149q35 0 60 16q25 16 47 51l91 -56q-43 -79 -131 -103zM344 330q0 53 -25 82q-25 29 -70 29q-42 0 -67 -28.5q-25 -28.5 -29 -82.5z"/>
            <glyph unicode="&#282;" horiz-adv-x="602"
                   d="M85 727h472v-118h-336v-172h245v-116h-245v-197h351v-124h-487zM215 964l86 -106l85 106h69l-96 -180h-116l-96 180z"/>
            <glyph unicode="&#283;" horiz-adv-x="495"
                   d="M460 103q-61 -113 -209 -113q-105 0 -163.5 70.5q-58.5 70.5 -58.5 200.5q0 131 58.5 202q58.5 71 161.5 71q103 0 159.5 -69q56.5 -69 56.5 -197v-27h-314q2 -149 111 -149q35 0 60 16q25 16 47 51zM344 330q0 53 -25 82q-25 29 -70 29q-42 0 -67 -28.5q-25 -28.5 -29 -82.5zM161 760l86 -106l85 106h69l-96 -180h-116l-96 180z"/>
            <glyph unicode="&#284;" horiz-adv-x="669"
                   d="M506 76q-67 -88 -192 -88q-64 0 -115.5 25.5q-51.5 25.5 -87.5 74.5q-36 49 -55 120.5q-19 71.5 -19 162.5q0 87 20.5 155q20.5 68 59.5 114.5q39 46.5 94.5 71q55.5 24.5 126.5 24.5q98 0 163.5 -47q65.5 -47 92.5 -137l-124 -31q-43 101 -135 101q-78 0 -118.5 -65q-40.5 -65 -40.5 -194q0 -126 40.5 -190.5q40.5 -64.5 114.5 -64.5q58 0 96.5 38.5q38.5 38.5 47.5 108.5l-136 0v114h271v-369h-97zM276 964h116l96 -180h-69l-85 106l-86 -106l-68 0z"/>
            <glyph unicode="&#285;" horiz-adv-x="498"
                   d="M107 37q-35 17 -52 35q-17 18 -17 45q0 28 20 53.5q20 25.5 58 45.5q-73 44 -73 137q0 40 14.5 73.5q14.5 33.5 40.5 57.5q26 24 62.5 37.5q36.5 13.5 81.5 13.5q38 0 69.5 -10.5q31.5 -10.5 61.5 -33.5q38 50 96 50q5 0 9 0q4 0 9 -1l0 -92q-7 1 -13 1.5q-6 0.5 -11 0.5q-13 0 -24 -2.5q-11 -2.5 -22 -10.5q24 -35 24 -94q0 -76 -52 -121.5q-52 -45.5 -144 -45.5q-33 0 -57 6q-34 -13 -34 -35q0 -26 35 -30q35 -4 103 -9q51 -4 87 -11.5q36 -7.5 59.5 -22.5q23.5 -15 34.5 -40q11 -25 11 -62q0 -78 -62.5 -120q-62.5 -42 -183.5 -42q-111 0 -166.5 33.5q-55.5 33.5 -55.5 97.5q0 37 22 59q22 22 69 37zt0 0zM160 352q0 -39 22.5 -60.5q22.5 -21.5 62.5 -21.5q38 0 61.5 23q23.5 23 23.5 61q0 38 -24 62q-24 24 -64 24q-36 0 -59 -23.5q-23 -23.5 -23 -64.5zt0 0zM187 11q-27 -13 -40 -25.5q-13 -12.5 -13 -29.5q0 -26 27 -42q27 -16 75 -16q66 0 101 18.5q35 18.5 35 46.5q0 22 -17.5 31q-17.5 9 -52.5 11zM191 760h116l96 -180h-69l-85 106l-86 -106l-68 0z"/>
            <glyph unicode="&#286;" horiz-adv-x="669"
                   d="M506 76q-67 -88 -192 -88q-64 0 -115.5 25.5q-51.5 25.5 -87.5 74.5q-36 49 -55 120.5q-19 71.5 -19 162.5q0 87 20.5 155q20.5 68 59.5 114.5q39 46.5 94.5 71q55.5 24.5 126.5 24.5q98 0 163.5 -47q65.5 -47 92.5 -137l-124 -31q-43 101 -135 101q-78 0 -118.5 -65q-40.5 -65 -40.5 -194q0 -126 40.5 -190.5q40.5 -64.5 114.5 -64.5q58 0 96.5 38.5q38.5 38.5 47.5 108.5l-136 0v114h271v-369h-97zM243 954q3 -38 25 -55q22 -17 66 -17q44 0 65.5 17q21.5 17 24.5 55l60 0q-5 -77 -41.5 -112.5q-36.5 -35.5 -108.5 -35.5q-72 0 -109 36q-37 36 -42 112z"/>
            <glyph unicode="&#287;" horiz-adv-x="498"
                   d="M107 37q-35 17 -52 35q-17 18 -17 45q0 28 20 53.5q20 25.5 58 45.5q-73 44 -73 137q0 40 14.5 73.5q14.5 33.5 40.5 57.5q26 24 62.5 37.5q36.5 13.5 81.5 13.5q38 0 69.5 -10.5q31.5 -10.5 61.5 -33.5q38 50 96 50q5 0 9 0q4 0 9 -1l0 -92q-7 1 -13 1.5q-6 0.5 -11 0.5q-13 0 -24 -2.5q-11 -2.5 -22 -10.5q24 -35 24 -94q0 -76 -52 -121.5q-52 -45.5 -144 -45.5q-33 0 -57 6q-34 -13 -34 -35q0 -26 35 -30q35 -4 103 -9q51 -4 87 -11.5q36 -7.5 59.5 -22.5q23.5 -15 34.5 -40q11 -25 11 -62q0 -78 -62.5 -120q-62.5 -42 -183.5 -42q-111 0 -166.5 33.5q-55.5 33.5 -55.5 97.5q0 37 22 59q22 22 69 37zt0 0zM160 352q0 -39 22.5 -60.5q22.5 -21.5 62.5 -21.5q38 0 61.5 23q23.5 23 23.5 61q0 38 -24 62q-24 24 -64 24q-36 0 -59 -23.5q-23 -23.5 -23 -64.5zt0 0zM187 11q-27 -13 -40 -25.5q-13 -12.5 -13 -29.5q0 -26 27 -42q27 -16 75 -16q66 0 101 18.5q35 18.5 35 46.5q0 22 -17.5 31q-17.5 9 -52.5 11zM158 744q3 -38 25 -55q22 -17 66 -17q44 0 65.5 17q21.5 17 24.5 55l60 0q-5 -77 -41.5 -112.5q-36.5 -35.5 -108.5 -35.5q-72 0 -109 36q-37 36 -42 112z"/>
            <glyph unicode="&#288;" horiz-adv-x="669"
                   d="M506 76q-67 -88 -192 -88q-64 0 -115.5 25.5q-51.5 25.5 -87.5 74.5q-36 49 -55 120.5q-19 71.5 -19 162.5q0 87 20.5 155q20.5 68 59.5 114.5q39 46.5 94.5 71q55.5 24.5 126.5 24.5q98 0 163.5 -47q65.5 -47 92.5 -137l-124 -31q-43 101 -135 101q-78 0 -118.5 -65q-40.5 -65 -40.5 -194q0 -126 40.5 -190.5q40.5 -64.5 114.5 -64.5q58 0 96.5 38.5q38.5 38.5 47.5 108.5l-136 0v114h271v-369h-97zM269 925h115v-125l-115 0z"/>
            <glyph unicode="&#289;" horiz-adv-x="498"
                   d="M107 37q-35 17 -52 35q-17 18 -17 45q0 28 20 53.5q20 25.5 58 45.5q-73 44 -73 137q0 40 14.5 73.5q14.5 33.5 40.5 57.5q26 24 62.5 37.5q36.5 13.5 81.5 13.5q38 0 69.5 -10.5q31.5 -10.5 61.5 -33.5q38 50 96 50q5 0 9 0q4 0 9 -1l0 -92q-7 1 -13 1.5q-6 0.5 -11 0.5q-13 0 -24 -2.5q-11 -2.5 -22 -10.5q24 -35 24 -94q0 -76 -52 -121.5q-52 -45.5 -144 -45.5q-33 0 -57 6q-34 -13 -34 -35q0 -26 35 -30q35 -4 103 -9q51 -4 87 -11.5q36 -7.5 59.5 -22.5q23.5 -15 34.5 -40q11 -25 11 -62q0 -78 -62.5 -120q-62.5 -42 -183.5 -42q-111 0 -166.5 33.5q-55.5 33.5 -55.5 97.5q0 37 22 59q22 22 69 37zt0 0zM160 352q0 -39 22.5 -60.5q22.5 -21.5 62.5 -21.5q38 0 61.5 23q23.5 23 23.5 61q0 38 -24 62q-24 24 -64 24q-36 0 -59 -23.5q-23 -23.5 -23 -64.5zt0 0zM187 11q-27 -13 -40 -25.5q-13 -12.5 -13 -29.5q0 -26 27 -42q27 -16 75 -16q66 0 101 18.5q35 18.5 35 46.5q0 22 -17.5 31q-17.5 9 -52.5 11zM188 727h124v-117l-124 0z"/>
            <glyph unicode="&#290;" horiz-adv-x="669"
                   d="M506 76q-67 -88 -192 -88q-64 0 -115.5 25.5q-51.5 25.5 -87.5 74.5q-36 49 -55 120.5q-19 71.5 -19 162.5q0 87 20.5 155q20.5 68 59.5 114.5q39 46.5 94.5 71q55.5 24.5 126.5 24.5q98 0 163.5 -47q65.5 -47 92.5 -137l-124 -31q-43 101 -135 101q-78 0 -118.5 -65q-40.5 -65 -40.5 -194q0 -126 40.5 -190.5q40.5 -64.5 114.5 -64.5q58 0 96.5 38.5q38.5 38.5 47.5 108.5l-136 0v114h271v-369h-97zM275 -75h137v-151l-67 -143h-63l48 152l-55 0z"/>
            <glyph unicode="&#291;" horiz-adv-x="498"
                   d="M107 37q-35 17 -52 35q-17 18 -17 45q0 28 20 53.5q20 25.5 58 45.5q-73 44 -73 137q0 40 14.5 73.5q14.5 33.5 40.5 57.5q26 24 62.5 37.5q36.5 13.5 81.5 13.5q38 0 69.5 -10.5q31.5 -10.5 61.5 -33.5q38 50 96 50q5 0 9 0q4 0 9 -1l0 -92q-7 1 -13 1.5q-6 0.5 -11 0.5q-13 0 -24 -2.5q-11 -2.5 -22 -10.5q24 -35 24 -94q0 -76 -52 -121.5q-52 -45.5 -144 -45.5q-33 0 -57 6q-34 -13 -34 -35q0 -26 35 -30q35 -4 103 -9q51 -4 87 -11.5q36 -7.5 59.5 -22.5q23.5 -15 34.5 -40q11 -25 11 -62q0 -78 -62.5 -120q-62.5 -42 -183.5 -42q-111 0 -166.5 33.5q-55.5 33.5 -55.5 97.5q0 37 22 59q22 22 69 37zt0 0zM160 352q0 -39 22.5 -60.5q22.5 -21.5 62.5 -21.5q38 0 61.5 23q23.5 23 23.5 61q0 38 -24 62q-24 24 -64 24q-36 0 -59 -23.5q-23 -23.5 -23 -64.5zt0 0zM187 11q-27 -13 -40 -25.5q-13 -12.5 -13 -29.5q0 -26 27 -42q27 -16 75 -16q66 0 101 18.5q35 18.5 35 46.5q0 22 -17.5 31q-17.5 9 -52.5 11zM317 608h-137v151l67 143h63l-48 -152l55 0z"/>
            <glyph unicode="&#292;" horiz-adv-x="713"
                   d="M81 727h137v-288h277v288h137v-727h-137v316h-277v-316h-137zM298 964h116l96 -180h-69l-85 106l-86 -106l-68 0z"/>
            <glyph unicode="&#293;" horiz-adv-x="552"
                   d="M66 727h123v-261q38 34 75 51q37 17 79 17q146 0 146 -170v-364h-123v340q0 48 -13.5 70.5q-13.5 22.5 -47.5 22.5q-54 0 -116 -58l0 -375h-123zM78 962h116l96 -180h-69l-85 106l-86 -106l-68 0z"/>
            <glyph unicode="&#294;" horiz-adv-x="713"
                   d="M6 640h75v87h137v-87h277v87h137v-87h75v-105h-75v-535h-137v316h-277v-316h-137v535h-75zM495 439v96h-277l0 -96z"/>
            <glyph unicode="&#295;" horiz-adv-x="570"
                   d="M3 658h81v69h123v-69h166v-84h-166v-108q38 34 75 51q37 17 79 17q146 0 146 -170v-364h-123v340q0 48 -13.5 70.5q-13.5 22.5 -47.5 22.5q-54 0 -116 -58l0 -375h-123v574l-81 0z"/>
            <glyph unicode="&#298;" horiz-adv-x="328" d="M95 727h138v-727h-138zM24 895h280v-75l-280 0z"/>
            <glyph unicode="&#299;" horiz-adv-x="256" d="M66 524h124v-524h-124zM-12 706h280v-75l-280 0z"/>
            <glyph unicode="&#302;" horiz-adv-x="328"
                   d="M95 727h138v-727h1q-62 -50 -62 -100q0 -39 40 -39h50v-85h-52q-116 0 -116 90q0 37 23 68.5q23 31.5 70 65.5l-92 0z"/>
            <glyph unicode="&#303;" horiz-adv-x="256"
                   d="M66 524h124v-524q-62 -50 -62 -100q0 -39 40 -39h50v-85h-52q-116 0 -116 90q0 37 23 68.5q23 31.5 70 65.5l-77 0zM66 727h124v-117l-124 0z"/>
            <glyph unicode="&#304;" horiz-adv-x="328" d="M95 727h138v-727h-138zM107 925h115v-125l-115 0z"/>
            <glyph unicode="&#305;" horiz-adv-x="256" d="M66 524h124v-524l-124 0z"/>
            <glyph unicode="&#306;" horiz-adv-x="768"
                   d="M95 727h138v-727h-138zM408 165q25 -54 66 -54q35 0 48.5 23.5q13.5 23.5 13.5 71.5v521h138v-517q0 -113 -47 -167.5q-47 -54.5 -150 -54.5q-110 0 -170 101z"/>
            <glyph unicode="&#307;" horiz-adv-x="509"
                   d="M66 524h124v-524h-124zM66 727h124v-117h-124zM230 -77q19 -3 28 -3q37 0 48.5 15.5q11.5 15.5 11.5 53.5v535h124v-553q0 -82 -33.5 -121.5q-33.5 -39.5 -105.5 -39.5q-39 0 -73 9zM318 727h124v-117l-124 0z"/>
            <glyph unicode="&#308;" horiz-adv-x="440"
                   d="M94 165q25 -54 66 -54q35 0 48.5 23.5q13.5 23.5 13.5 71.5v521h138v-517q0 -113 -47 -167.5q-47 -54.5 -150 -54.5q-110 0 -170 101zM232 964h116l96 -180h-69l-85 106l-86 -106l-68 0z"/>
            <glyph unicode="&#309;" horiz-adv-x="269"
                   d="M-10 -77q19 -3 28 -3q37 0 48.5 15.5q11.5 15.5 11.5 53.5v535h124v-553q0 -82 -33.5 -121.5q-33.5 -39.5 -105.5 -39.5q-39 0 -73 9zM76 760h116l96 -180h-69l-85 106l-86 -106l-68 0z"/>
            <glyph unicode="&#310;" horiz-adv-x="660"
                   d="M77 727h136v-336l243 336h156l-205 -265l239 -462h-156l-174 344l-103 -131v-213h-136zM261 -75h137v-151l-67 -143h-63l48 152l-55 0z"/>
            <glyph unicode="&#311;" horiz-adv-x="501"
                   d="M66 727h122v-415l161 212h137l-155 -186l168 -338h-135l-116 240l-60 -71v-169h-122zM181 -75h137v-151l-67 -143h-63l48 152l-55 0z"/>
            <glyph unicode="&#313;" horiz-adv-x="547" d="M80 727h139v-603h307v-124h-446zM213 784h-69l96 180l126 0z"/>
            <glyph unicode="&#314;" horiz-adv-x="256" d="M66 727h124v-727h-124zM118 782h-69l96 180l126 0z"/>
            <glyph unicode="&#315;" horiz-adv-x="547"
                   d="M80 727h139v-603h307v-124h-446zM204 -75h137v-151l-67 -143h-63l48 152l-55 0z"/>
            <glyph unicode="&#316;" horiz-adv-x="256"
                   d="M66 727h124v-727h-124zM59 -75h137v-151l-67 -143h-63l48 152l-55 0z"/>
            <glyph unicode="&#317;" horiz-adv-x="547"
                   d="M80 727h139v-603h307v-124h-446zM425 586h-57v141h135v-150l-63 -149l-65 0z"/>
            <glyph unicode="&#318;" horiz-adv-x="370"
                   d="M66 727h124v-727h-124zM300 586h-57v141h135v-150l-63 -149l-65 0z"/>
            <glyph unicode="&#319;" horiz-adv-x="547" d="M80 727h139v-603h307v-124h-446zM345 451h115v-125l-115 0z"/>
            <glyph unicode="&#320;" horiz-adv-x="368" d="M66 727h124v-727h-124zM250 416h124v-117l-124 0z"/>
            <glyph unicode="&#321;" horiz-adv-x="552"
                   d="M85 292l-80 -55v84l80 57v349h136v-274l164 113v-84l-164 -114v-244h310v-124l-446 0z"/>
            <glyph unicode="&#322;" horiz-adv-x="265"
                   d="M71 296l-66 -46v74l66 47v356h122v-284l67 48v-75l-67 -48v-368l-122 0z"/>
            <glyph unicode="&#323;" horiz-adv-x="713"
                   d="M79 727h146l209 -365q23 -40 43.5 -83q20.5 -43 38.5 -91q-5 34 -7.5 70.5q-2.5 36.5 -2.5 77.5v391h127v-727h-127l-227 375q-17 29 -38 72.5q-21 43.5 -44 102.5q5 -34 7 -70.5q2 -36.5 2 -77.5v-402h-127zM346 784h-69l96 180l126 0z"/>
            <glyph unicode="&#324;" horiz-adv-x="551"
                   d="M65 524h114v-62q44 35 81 53.5q37 18.5 81 18.5q147 0 147 -170v-364h-124v340q0 48 -13 70.5q-13 22.5 -47 22.5q-54 0 -116 -58l0 -375h-123zM265 580h-69l96 180l126 0z"/>
            <glyph unicode="&#325;" horiz-adv-x="713"
                   d="M79 727h146l209 -365q23 -40 43.5 -83q20.5 -43 38.5 -91q-5 34 -7.5 70.5q-2.5 36.5 -2.5 77.5v391h127v-727h-127l-227 375q-17 29 -38 72.5q-21 43.5 -44 102.5q5 -34 7 -70.5q2 -36.5 2 -77.5v-402h-127zM287 -75h137v-151l-67 -143h-63l48 152l-55 0z"/>
            <glyph unicode="&#326;" horiz-adv-x="551"
                   d="M65 524h114v-62q44 35 81 53.5q37 18.5 81 18.5q147 0 147 -170v-364h-124v340q0 48 -13 70.5q-13 22.5 -47 22.5q-54 0 -116 -58l0 -375h-123zM206 -75h137v-151l-67 -143h-63l48 152l-55 0z"/>
            <glyph unicode="&#327;" horiz-adv-x="713"
                   d="M79 727h146l209 -365q23 -40 43.5 -83q20.5 -43 38.5 -91q-5 34 -7.5 70.5q-2.5 36.5 -2.5 77.5v391h127v-727h-127l-227 375q-17 29 -38 72.5q-21 43.5 -44 102.5q5 -34 7 -70.5q2 -36.5 2 -77.5v-402h-127zM270 964l86 -106l85 106h69l-96 -180h-116l-96 180z"/>
            <glyph unicode="&#328;" horiz-adv-x="551"
                   d="M65 524h114v-62q44 35 81 53.5q37 18.5 81 18.5q147 0 147 -170v-364h-124v340q0 48 -13 70.5q-13 22.5 -47 22.5q-54 0 -116 -58l0 -375h-123zM189 760l86 -106l85 106h69l-96 -180h-116l-96 180z"/>
            <glyph unicode="&#332;" horiz-adv-x="678"
                   d="M37 362q0 89 21 158.5q21 69.5 60 117.5q39 48 95 73q56 25 126 25q70 0 126 -25q56 -25 95 -73q39 -48 60 -117.5q21 -69.5 21 -158.5q0 -89 -21 -158.5q-21 -69.5 -60 -117.5q-39 -48 -95 -73q-56 -25 -126 -25q-70 0 -126 25q-56 25 -95 73q-39 48 -60 117.5q-21 69.5 -21 158.5zt0 0zM176 362q0 -125 41.5 -188q41.5 -63 121.5 -63q80 0 121.5 63q41.5 63 41.5 188q0 126 -41.5 189.5q-41.5 63.5 -121.5 63.5q-80 0 -121.5 -63.5q-41.5 -63.5 -41.5 -189.5zt0 0zM199 895h280v-75l-280 0z"/>
            <glyph unicode="&#333;" horiz-adv-x="505"
                   d="M28 262q0 130 59 201q59 71 165 71q106 0 165 -71q59 -71 59 -201q0 -130 -59.5 -201q-59.5 -71 -164.5 -71q-105 0 -164.5 71.5q-59.5 71.5 -59.5 200.5zt0 0zM153 262q0 -166 99 -166q99 0 99 166q0 165 -99 165q-99 0 -99 -165zt0 0zM112 706h280v-75l-280 0z"/>
            <glyph unicode="&#334;" horiz-adv-x="678"
                   d="M37 362q0 89 21 158.5q21 69.5 60 117.5q39 48 95 73q56 25 126 25q70 0 126 -25q56 -25 95 -73q39 -48 60 -117.5q21 -69.5 21 -158.5q0 -89 -21 -158.5q-21 -69.5 -60 -117.5q-39 -48 -95 -73q-56 -25 -126 -25q-70 0 -126 25q-56 25 -95 73q-39 48 -60 117.5q-21 69.5 -21 158.5zt0 0zM176 362q0 -125 41.5 -188q41.5 -63 121.5 -63q80 0 121.5 63q41.5 63 41.5 188q0 126 -41.5 189.5q-41.5 63.5 -121.5 63.5q-80 0 -121.5 -63.5q-41.5 -63.5 -41.5 -189.5zt0 0zM248 954q3 -38 25 -55q22 -17 66 -17q44 0 65.5 17q21.5 17 24.5 55l60 0q-5 -77 -41.5 -112.5q-36.5 -35.5 -108.5 -35.5q-72 0 -109 36q-37 36 -42 112z"/>
            <glyph unicode="&#335;" horiz-adv-x="505"
                   d="M28 262q0 130 59 201q59 71 165 71q106 0 165 -71q59 -71 59 -201q0 -130 -59.5 -201q-59.5 -71 -164.5 -71q-105 0 -164.5 71.5q-59.5 71.5 -59.5 200.5zt0 0zM153 262q0 -166 99 -166q99 0 99 166q0 165 -99 165q-99 0 -99 -165zt0 0zM161 744q3 -38 25 -55q22 -17 66 -17q44 0 65.5 17q21.5 17 24.5 55l60 0q-5 -77 -41.5 -112.5q-36.5 -35.5 -108.5 -35.5q-72 0 -109 36q-37 36 -42 112z"/>
            <glyph unicode="&#336;" horiz-adv-x="678"
                   d="M37 362q0 89 21 158.5q21 69.5 60 117.5q39 48 95 73q56 25 126 25q70 0 126 -25q56 -25 95 -73q39 -48 60 -117.5q21 -69.5 21 -158.5q0 -89 -21 -158.5q-21 -69.5 -60 -117.5q-39 -48 -95 -73q-56 -25 -126 -25q-70 0 -126 25q-56 25 -95 73q-39 48 -60 117.5q-21 69.5 -21 158.5zt0 0zM176 362q0 -125 41.5 -188q41.5 -63 121.5 -63q80 0 121.5 63q41.5 63 41.5 188q0 126 -41.5 189.5q-41.5 63.5 -121.5 63.5q-80 0 -121.5 -63.5q-41.5 -63.5 -41.5 -189.5zt0 0zM289 964h108l-113 -180h-51zM439 964h112l-132 -180l-55 0z"/>
            <glyph unicode="&#337;" horiz-adv-x="505"
                   d="M28 262q0 130 59 201q59 71 165 71q106 0 165 -71q59 -71 59 -201q0 -130 -59.5 -201q-59.5 -71 -164.5 -71q-105 0 -164.5 71.5q-59.5 71.5 -59.5 200.5zt0 0zM153 262q0 -166 99 -166q99 0 99 166q0 165 -99 165q-99 0 -99 -165zt0 0zM202 760h108l-113 -180h-51zM352 760h112l-132 -180l-55 0z"/>
            <glyph unicode="&#338;" horiz-adv-x="963"
                   d="M474 58q-50 -70 -151 -70q-68 0 -122.5 25.5q-54.5 25.5 -92.5 73.5q-38 48 -59 117.5q-21 69.5 -21 157.5q0 88 21 157.5q21 69.5 59 117.5q38 48 92.5 73.5q54.5 25.5 122.5 25.5q57 0 93 -18.5q36 -18.5 58 -50.5l0 60h444v-118h-313v-172h226v-116h-226v-197h327v-124h-458zM469 502q0 18 -10 37.5q-10 19.5 -28.5 36.5q-18.5 17 -44 28q-25.5 11 -56.5 11q-80 0 -121.5 -63.5q-41.5 -63.5 -41.5 -189.5q0 -125 41.5 -188q41.5 -63 121.5 -63q31 0 56.5 10.5q25.5 10.5 44 27.5q18.5 17 28.5 37.5q10 20.5 10 40.5z"/>
            <glyph unicode="&#339;" horiz-adv-x="812"
                   d="M412 55q-32 -36 -70 -50.5q-38 -14.5 -89 -14.5q-105 0 -165 71q-60 71 -60 200q0 129 59.5 201q59.5 72 165.5 72q52 0 90 -16.5q38 -16.5 67 -50.5q58 67 154 67q106 0 162.5 -70q56.5 -70 56.5 -204v-20h-314v-10q0 -69 28.5 -104.5q28.5 -35.5 81.5 -35.5q68 0 106 68l91 -57q-68 -112 -201 -112q-54 0 -92.5 15.5q-38.5 15.5 -70.5 50.5zt0 0zM154 262q0 -166 99 -166q99 0 99 166q0 165 -99 165q-99 0 -99 -165zt0 0zM661 330q-2 54 -26.5 82q-24.5 28 -69.5 28q-42 0 -67 -28.5q-25 -28.5 -27 -81.5z"/>
            <glyph unicode="&#340;" horiz-adv-x="667"
                   d="M81 727h246q138 0 205.5 -52.5q67.5 -52.5 67.5 -164.5q0 -72 -34.5 -119q-34.5 -47 -99.5 -65l161 -326h-147l-140 295h-125v-295h-134zM334 410q66 0 97 24q31 24 31 77q0 54 -31.5 77.5q-31.5 23.5 -96.5 23.5h-119v-202zM323 784h-69l96 180l126 0z"/>
            <glyph unicode="&#341;" horiz-adv-x="344"
                   d="M66 524h118v-87q51 96 130 96q4 0 8 0q4 0 8 -1l0 -129h-6q-41 0 -75.5 -21q-34.5 -21 -56.5 -61l0 -321h-126zM192 580h-69l96 180l126 0z"/>
            <glyph unicode="&#342;" horiz-adv-x="667"
                   d="M81 727h246q138 0 205.5 -52.5q67.5 -52.5 67.5 -164.5q0 -72 -34.5 -119q-34.5 -47 -99.5 -65l161 -326h-147l-140 295h-125v-295h-134zM334 410q66 0 97 24q31 24 31 77q0 54 -31.5 77.5q-31.5 23.5 -96.5 23.5h-119v-202zM264 -75h137v-151l-67 -143h-63l48 152l-55 0z"/>
            <glyph unicode="&#343;" horiz-adv-x="344"
                   d="M66 524h118v-87q51 96 130 96q4 0 8 0q4 0 8 -1l0 -129h-6q-41 0 -75.5 -21q-34.5 -21 -56.5 -61l0 -321h-126zM103 -75h137v-151l-67 -143h-63l48 152l-55 0z"/>
            <glyph unicode="&#344;" horiz-adv-x="667"
                   d="M81 727h246q138 0 205.5 -52.5q67.5 -52.5 67.5 -164.5q0 -72 -34.5 -119q-34.5 -47 -99.5 -65l161 -326h-147l-140 295h-125v-295h-134zM334 410q66 0 97 24q31 24 31 77q0 54 -31.5 77.5q-31.5 23.5 -96.5 23.5h-119v-202zM247 964l86 -106l85 106h69l-96 -180h-116l-96 180z"/>
            <glyph unicode="&#345;" horiz-adv-x="344"
                   d="M66 524h118v-87q51 96 130 96q4 0 8 0q4 0 8 -1l0 -129h-6q-41 0 -75.5 -21q-34.5 -21 -56.5 -61l0 -321h-126zM86 760l86 -106l85 106h69l-96 -180h-116l-96 180z"/>
            <glyph unicode="&#346;" horiz-adv-x="586"
                   d="M151 219q29 -58 64 -84.5q35 -26.5 84 -26.5q56 0 87 25q31 25 31 67q0 37 -25.5 59q-25.5 22 -82.5 43q-49 18 -93 35q-44 17 -80 40q-42 26 -63.5 67q-21.5 41 -21.5 93q0 43 17 79.5q17 36.5 47.5 62.5q30.5 26 74.5 41q44 15 98 15q187 0 245 -159l-124 -45q-23 48 -53.5 70.5q-30.5 22.5 -77.5 22.5q-45 0 -70.5 -21q-25.5 -21 -25.5 -56q0 -26 13 -42q13 -16 37 -29.5q24 -13.5 58.5 -26.5q34.5 -13 77.5 -31q45 -19 79 -38.5q34 -19.5 56.5 -44q22.5 -24.5 34 -55.5q11.5 -31 11.5 -74q0 -100 -64.5 -158q-64.5 -58 -182.5 -58q-101 0 -170.5 44q-69.5 44 -104.5 130zM283 784h-69l96 180l126 0z"/>
            <glyph unicode="&#347;" horiz-adv-x="440"
                   d="M106 161q58 -75 120 -75q35 0 54 16q19 16 19 42q0 16 -6.5 26.5q-6.5 10.5 -19 18.5q-12.5 8 -30.5 15q-18 7 -40 15q-41 15 -71.5 30q-30.5 15 -51 33.5q-20.5 18.5 -31 42q-10.5 23.5 -10.5 56.5q0 33 13 61q13 28 36.5 48.5q23.5 20.5 56.5 32q33 11.5 74 11.5q55 0 98 -19.5q43 -19.5 79 -60.5l-78 -68q-50 53 -102 53q-32 0 -49.5 -14.5q-17.5 -14.5 -17.5 -37.5q0 -13 8 -22q8 -9 23 -16.5q15 -7.5 36.5 -15.5q21.5 -8 49.5 -19q36 -14 63 -28.5q27 -14.5 45 -33.5q18 -19 27 -43.5q9 -24.5 9 -58.5q0 -36 -13 -66q-13 -30 -37 -51q-24 -21 -57.5 -32.5q-33.5 -11.5 -75.5 -11.5q-66 0 -114.5 25.5q-48.5 25.5 -90.5 80.5zM210 580h-69l96 180l126 0z"/>
            <glyph unicode="&#348;" horiz-adv-x="586"
                   d="M151 219q29 -58 64 -84.5q35 -26.5 84 -26.5q56 0 87 25q31 25 31 67q0 37 -25.5 59q-25.5 22 -82.5 43q-49 18 -93 35q-44 17 -80 40q-42 26 -63.5 67q-21.5 41 -21.5 93q0 43 17 79.5q17 36.5 47.5 62.5q30.5 26 74.5 41q44 15 98 15q187 0 245 -159l-124 -45q-23 48 -53.5 70.5q-30.5 22.5 -77.5 22.5q-45 0 -70.5 -21q-25.5 -21 -25.5 -56q0 -26 13 -42q13 -16 37 -29.5q24 -13.5 58.5 -26.5q34.5 -13 77.5 -31q45 -19 79 -38.5q34 -19.5 56.5 -44q22.5 -24.5 34 -55.5q11.5 -31 11.5 -74q0 -100 -64.5 -158q-64.5 -58 -182.5 -58q-101 0 -170.5 44q-69.5 44 -104.5 130zM235 964h116l96 -180h-69l-85 106l-86 -106l-68 0z"/>
            <glyph unicode="&#349;" horiz-adv-x="440"
                   d="M106 161q58 -75 120 -75q35 0 54 16q19 16 19 42q0 16 -6.5 26.5q-6.5 10.5 -19 18.5q-12.5 8 -30.5 15q-18 7 -40 15q-41 15 -71.5 30q-30.5 15 -51 33.5q-20.5 18.5 -31 42q-10.5 23.5 -10.5 56.5q0 33 13 61q13 28 36.5 48.5q23.5 20.5 56.5 32q33 11.5 74 11.5q55 0 98 -19.5q43 -19.5 79 -60.5l-78 -68q-50 53 -102 53q-32 0 -49.5 -14.5q-17.5 -14.5 -17.5 -37.5q0 -13 8 -22q8 -9 23 -16.5q15 -7.5 36.5 -15.5q21.5 -8 49.5 -19q36 -14 63 -28.5q27 -14.5 45 -33.5q18 -19 27 -43.5q9 -24.5 9 -58.5q0 -36 -13 -66q-13 -30 -37 -51q-24 -21 -57.5 -32.5q-33.5 -11.5 -75.5 -11.5q-66 0 -114.5 25.5q-48.5 25.5 -90.5 80.5zM162 760h116l96 -180h-69l-85 106l-86 -106l-68 0z"/>
            <glyph unicode="&#350;" horiz-adv-x="586"
                   d="M181 -151q43 -11 74 -16q31 -5 51 -5q49 0 49 36q0 19 -14 26.5q-14 7.5 -45 7.5q-7 0 -13.5 0q-6.5 0 -14.5 -1l0 95q-176 14 -241 172l124 55q29 -58 64 -84.5q35 -26.5 84 -26.5q56 0 87 25q31 25 31 67q0 37 -25.5 59q-25.5 22 -82.5 43q-49 18 -93 35q-44 17 -80 40q-42 26 -63.5 67q-21.5 41 -21.5 93q0 43 17 79.5q17 36.5 47.5 62.5q30.5 26 74.5 41q44 15 98 15q187 0 245 -159l-124 -45q-23 48 -53.5 70.5q-30.5 22.5 -77.5 22.5q-45 0 -70.5 -21q-25.5 -21 -25.5 -56q0 -26 13 -42q13 -16 37 -29.5q24 -13.5 58.5 -26.5q34.5 -13 77.5 -31q45 -19 79 -38.5q34 -19.5 56.5 -44q22.5 -24.5 34 -55.5q11.5 -31 11.5 -74q0 -97 -60.5 -154q-60.5 -57 -170.5 -62l0 -34h7q115 0 115 -93q0 -98 -129 -98q-23 0 -55.5 5q-32.5 5 -74.5 16z"/>
            <glyph unicode="&#351;" horiz-adv-x="440"
                   d="M108 -151q43 -11 74 -16q31 -5 51 -5q49 0 49 36q0 19 -14 26.5q-14 7.5 -45 7.5q-7 0 -13.5 0q-6.5 0 -14.5 -1l0 94q-54 5 -95.5 30.5q-41.5 25.5 -77.5 73.5l84 66q58 -75 120 -75q35 0 54 16q19 16 19 42q0 16 -6.5 26.5q-6.5 10.5 -19 18.5q-12.5 8 -30.5 15q-18 7 -40 15q-41 15 -71.5 30q-30.5 15 -51 33.5q-20.5 18.5 -31 42q-10.5 23.5 -10.5 56.5q0 33 13 61q13 28 36.5 48.5q23.5 20.5 56.5 32q33 11.5 74 11.5q55 0 98 -19.5q43 -19.5 79 -60.5l-78 -68q-50 53 -102 53q-32 0 -49.5 -14.5q-17.5 -14.5 -17.5 -37.5q0 -13 8 -22q8 -9 23 -16.5q15 -7.5 36.5 -15.5q21.5 -8 49.5 -19q36 -14 63 -28.5q27 -14.5 45 -33.5q18 -19 27 -43.5q9 -24.5 9 -58.5q0 -69 -44.5 -112q-44.5 -43 -120.5 -48l0 -34h7q115 0 115 -93q0 -98 -129 -98q-23 0 -55.5 5q-32.5 5 -74.5 16z"/>
            <glyph unicode="&#352;" horiz-adv-x="586"
                   d="M151 219q29 -58 64 -84.5q35 -26.5 84 -26.5q56 0 87 25q31 25 31 67q0 37 -25.5 59q-25.5 22 -82.5 43q-49 18 -93 35q-44 17 -80 40q-42 26 -63.5 67q-21.5 41 -21.5 93q0 43 17 79.5q17 36.5 47.5 62.5q30.5 26 74.5 41q44 15 98 15q187 0 245 -159l-124 -45q-23 48 -53.5 70.5q-30.5 22.5 -77.5 22.5q-45 0 -70.5 -21q-25.5 -21 -25.5 -56q0 -26 13 -42q13 -16 37 -29.5q24 -13.5 58.5 -26.5q34.5 -13 77.5 -31q45 -19 79 -38.5q34 -19.5 56.5 -44q22.5 -24.5 34 -55.5q11.5 -31 11.5 -74q0 -100 -64.5 -158q-64.5 -58 -182.5 -58q-101 0 -170.5 44q-69.5 44 -104.5 130zM207 964l86 -106l85 106h69l-96 -180h-116l-96 180z"/>
            <glyph unicode="&#353;" horiz-adv-x="440"
                   d="M106 161q58 -75 120 -75q35 0 54 16q19 16 19 42q0 16 -6.5 26.5q-6.5 10.5 -19 18.5q-12.5 8 -30.5 15q-18 7 -40 15q-41 15 -71.5 30q-30.5 15 -51 33.5q-20.5 18.5 -31 42q-10.5 23.5 -10.5 56.5q0 33 13 61q13 28 36.5 48.5q23.5 20.5 56.5 32q33 11.5 74 11.5q55 0 98 -19.5q43 -19.5 79 -60.5l-78 -68q-50 53 -102 53q-32 0 -49.5 -14.5q-17.5 -14.5 -17.5 -37.5q0 -13 8 -22q8 -9 23 -16.5q15 -7.5 36.5 -15.5q21.5 -8 49.5 -19q36 -14 63 -28.5q27 -14.5 45 -33.5q18 -19 27 -43.5q9 -24.5 9 -58.5q0 -36 -13 -66q-13 -30 -37 -51q-24 -21 -57.5 -32.5q-33.5 -11.5 -75.5 -11.5q-66 0 -114.5 25.5q-48.5 25.5 -90.5 80.5zM134 760l86 -106l85 106h69l-96 -180h-116l-96 180z"/>
            <glyph unicode="&#354;" horiz-adv-x="560"
                   d="M211 607h-191v120h520v-120h-191v-607h-54v-44h7q115 0 115 -93q0 -98 -129 -98q-23 0 -55.5 5q-32.5 5 -74.5 16l0 63q43 -11 74 -16q31 -5 51 -5q49 0 49 36q0 19 -14 26.5q-14 7.5 -45 7.5q-7 0 -13.5 0q-6.5 0 -14.5 -1l0 103l-34 0z"/>
            <glyph unicode="&#355;" horiz-adv-x="324"
                   d="M50 -151q43 -11 74 -16q31 -5 51 -5q49 0 49 36q0 19 -14 26.5q-14 7.5 -45 7.5q-7 0 -13.5 0q-6.5 0 -14.5 -1l0 103q-29 13 -42.5 40q-13.5 27 -13.5 72v310h-68v102h68v168h124v-168h102v-102h-102v-265q0 -33 8.5 -47q8.5 -14 42.5 -14q10 0 23 1q13 1 28 3l0 -102q-14 -3 -40 -6q-26 -3 -63 -3q-5 0 -9 0q-4 0 -8 1l0 -34h7q115 0 115 -93q0 -98 -129 -98q-23 0 -55.5 5q-32.5 5 -74.5 16z"/>
            <glyph unicode="&#356;" horiz-adv-x="560"
                   d="M211 607h-191v120h520v-120h-191v-607h-138zM194 964l86 -106l85 106h69l-96 -180h-116l-96 180z"/>
            <glyph unicode="&#357;" horiz-adv-x="373"
                   d="M205 157q0 -33 8.5 -47q8.5 -14 42.5 -14q10 0 23 1q13 1 28 3l0 -102q-14 -3 -40 -6q-26 -3 -63 -3q-65 0 -94 29.5q-29 29.5 -29 93.5v310h-68v102h68v168h124v-168h102v-102h-102v-265zM313 706h-57v141h135v-150l-63 -149l-65 0z"/>
            <glyph unicode="&#360;" horiz-adv-x="713"
                   d="M81 727h137v-466q0 -78 31 -115.5q31 -37.5 107 -37.5q80 0 111.5 36.5q31.5 36.5 31.5 116.5v466h133v-482q0 -125 -71 -191q-71 -66 -205 -66q-140 0 -207.5 69q-67.5 69 -67.5 210zM511 937q-25 -119 -102 -119q-8 0 -17 1q-9 1 -19 4l-43 13q-18 5 -32 5q-32 0 -43 -38l-54 0q12 59 36 87q24 28 64 28q20 0 42 -7l45 -12q12 -4 27 -4q31 0 42 42l54 0z"/>
            <glyph unicode="&#361;" horiz-adv-x="551"
                   d="M372 61q-44 -35 -81.5 -53q-37.5 -18 -81.5 -18q-146 0 -146 169v365h124v-340q0 -48 13 -71q13 -23 47 -23q28 0 56 15q28 15 60 44l0 375h123v-524h-114v61zM430 737q-25 -119 -102 -119q-8 0 -17 1q-9 1 -19 4l-43 13q-18 5 -32 5q-32 0 -43 -38l-54 0q12 59 36 87q24 28 64 28q20 0 42 -7l45 -12q12 -4 27 -4q31 0 42 42l54 0z"/>
            <glyph unicode="&#362;" horiz-adv-x="713"
                   d="M81 727h137v-466q0 -78 31 -115.5q31 -37.5 107 -37.5q80 0 111.5 36.5q31.5 36.5 31.5 116.5v466h133v-482q0 -125 -71 -191q-71 -66 -205 -66q-140 0 -207.5 69q-67.5 69 -67.5 210zM216 895h280v-75l-280 0z"/>
            <glyph unicode="&#363;" horiz-adv-x="551"
                   d="M372 61q-44 -35 -81.5 -53q-37.5 -18 -81.5 -18q-146 0 -146 169v365h124v-340q0 -48 13 -71q13 -23 47 -23q28 0 56 15q28 15 60 44l0 375h123v-524h-114v61zM135 706h280v-75l-280 0z"/>
            <glyph unicode="&#364;" horiz-adv-x="713"
                   d="M81 727h137v-466q0 -78 31 -115.5q31 -37.5 107 -37.5q80 0 111.5 36.5q31.5 36.5 31.5 116.5v466h133v-482q0 -125 -71 -191q-71 -66 -205 -66q-140 0 -207.5 69q-67.5 69 -67.5 210zM265 954q3 -38 25 -55q22 -17 66 -17q44 0 65.5 17q21.5 17 24.5 55l60 0q-5 -77 -41.5 -112.5q-36.5 -35.5 -108.5 -35.5q-72 0 -109 36q-37 36 -42 112z"/>
            <glyph unicode="&#365;" horiz-adv-x="551"
                   d="M372 61q-44 -35 -81.5 -53q-37.5 -18 -81.5 -18q-146 0 -146 169v365h124v-340q0 -48 13 -71q13 -23 47 -23q28 0 56 15q28 15 60 44l0 375h123v-524h-114v61zM184 744q3 -38 25 -55q22 -17 66 -17q44 0 65.5 17q21.5 17 24.5 55l60 0q-5 -77 -41.5 -112.5q-36.5 -35.5 -108.5 -35.5q-72 0 -109 36q-37 36 -42 112z"/>
            <glyph unicode="&#366;" horiz-adv-x="713"
                   d="M81 727h137v-466q0 -78 31 -115.5q31 -37.5 107 -37.5q80 0 111.5 36.5q31.5 36.5 31.5 116.5v466h133v-482q0 -125 -71 -191q-71 -66 -205 -66q-140 0 -207.5 69q-67.5 69 -67.5 210zM227 833q0 27 10 50.5q10 23.5 27 41.5q17 18 41 28q24 10 51 10q27 0 51 -10q24 -10 41.5 -28q17.5 -18 27.5 -41.5q10 -23.5 10 -50.5q0 -27 -10 -51q-10 -24 -27.5 -41.5q-17.5 -17.5 -41.5 -27.5q-24 -10 -51 -10q-27 0 -51 10q-24 10 -41 27.5q-17 17.5 -27 41.5q-10 24 -10 51zt0 0zM297 833q0 -26 16.5 -42.5q16.5 -16.5 42.5 -16.5q26 0 43 17q17 17 17 42q0 25 -17.5 42.5q-17.5 17.5 -42.5 17.5q-26 0 -42.5 -17t-16.5 -43z"/>
            <glyph unicode="&#367;" horiz-adv-x="551"
                   d="M372 61q-44 -35 -81.5 -53q-37.5 -18 -81.5 -18q-146 0 -146 169v365h124v-340q0 -48 13 -71q13 -23 47 -23q28 0 56 15q28 15 60 44l0 375h123v-524h-114v61zM146 700q0 27 10 50.5q10 23.5 27 41.5q17 18 41 28q24 10 51 10q27 0 51 -10q24 -10 41.5 -28q17.5 -18 27.5 -41.5q10 -23.5 10 -50.5q0 -27 -10 -51q-10 -24 -27.5 -41.5q-17.5 -17.5 -41.5 -27.5q-24 -10 -51 -10q-27 0 -51 10q-24 10 -41 27.5q-17 17.5 -27 41.5q-10 24 -10 51zt0 0zM216 700q0 -26 16.5 -42.5q16.5 -16.5 42.5 -16.5q26 0 43 17q17 17 17 42q0 25 -17.5 42.5q-17.5 17.5 -42.5 17.5q-26 0 -42.5 -17t-16.5 -43z"/>
            <glyph unicode="&#368;" horiz-adv-x="713"
                   d="M81 727h137v-466q0 -78 31 -115.5q31 -37.5 107 -37.5q80 0 111.5 36.5q31.5 36.5 31.5 116.5v466h133v-482q0 -125 -71 -191q-71 -66 -205 -66q-140 0 -207.5 69q-67.5 69 -67.5 210zM306 964h108l-113 -180h-51zM456 964h112l-132 -180l-55 0z"/>
            <glyph unicode="&#369;" horiz-adv-x="551"
                   d="M372 61q-44 -35 -81.5 -53q-37.5 -18 -81.5 -18q-146 0 -146 169v365h124v-340q0 -48 13 -71q13 -23 47 -23q28 0 56 15q28 15 60 44l0 375h123v-524h-114v61zM225 760h108l-113 -180h-51zM375 760h112l-132 -180l-55 0z"/>
            <glyph unicode="&#370;" horiz-adv-x="713"
                   d="M457 0q-62 -50 -62 -100q0 -39 40 -39h50v-85h-52q-116 0 -116 90q0 34 19.5 63.5q19.5 29.5 59.5 60.5q-10 -1 -19.5 -1.5q-9.5 -0.5 -20.5 -0.5q-140 0 -207.5 69q-67.5 69 -67.5 210v460h137v-466q0 -78 31 -115.5q31 -37.5 107 -37.5q80 0 111.5 36.5q31.5 36.5 31.5 116.5v466h133v-482q0 -99 -45 -161q-45 -62 -131 -84l1 0z"/>
            <glyph unicode="&#371;" horiz-adv-x="551"
                   d="M372 61q-44 -35 -81.5 -53q-37.5 -18 -81.5 -18q-146 0 -146 169v365h124v-340q0 -48 13 -71q13 -23 47 -23q28 0 56 15q28 15 60 44l0 375h123v-524q-62 -50 -62 -100q0 -39 40 -39h50v-85h-52q-116 0 -116 90q0 37 23 68.5q23 31.5 70 65.5l-67 0l0 61z"/>
            <glyph unicode="&#376;" horiz-adv-x="560"
                   d="M213 287l-211 440h144l140 -302l138 302h134l-208 -439v-288h-137zM231 800h-116v115h116zM452 800h-117v115l117 0z"/>
            <glyph unicode="&#377;" horiz-adv-x="547"
                   d="M15 120l352 489h-328v118h480v-114l-357 -493h362v-120h-509zM263 784h-69l96 180l126 0z"/>
            <glyph unicode="&#378;" horiz-adv-x="449"
                   d="M20 89l249 336h-228v99h381v-88l-247 -332h248v-104h-403zM214 580h-69l96 180l126 0z"/>
            <glyph unicode="&#379;" horiz-adv-x="547"
                   d="M15 120l352 489h-328v118h480v-114l-357 -493h362v-120h-509zM216 925h115v-125l-115 0z"/>
            <glyph unicode="&#380;" horiz-adv-x="449"
                   d="M20 89l249 336h-228v99h381v-88l-247 -332h248v-104h-403zM162 727h124v-117l-124 0z"/>
            <glyph unicode="&#381;" horiz-adv-x="547"
                   d="M15 120l352 489h-328v118h480v-114l-357 -493h362v-120h-509zM188 964l86 -106l85 106h69l-96 -180h-116l-96 180z"/>
            <glyph unicode="&#382;" horiz-adv-x="449"
                   d="M20 89l249 336h-228v99h381v-88l-247 -332h248v-104h-403zM139 760l86 -106l85 106h69l-96 -180h-116l-96 180z"/>
            </font>
</defs>
</svg>
