<?xml version="1.0" encoding="UTF-8" standalone="no"?>
<svg xmlns:i="&amp;ns_ai;" xmlns:dc="http://purl.org/dc/elements/1.1/" xmlns:cc="http://creativecommons.org/ns#" 
xmlns:rdf="http://www.w3.org/1999/02/22-rdf-syntax-ns#" 
xmlns:svg="http://www.w3.org/2000/svg" 
xmlns="http://www.w3.org/2000/svg" 
xmlns:xlink="http://www.w3.org/1999/xlink" 
xml:space="preserve" enable-background="new 0 0 1190.551 841.89" 
viewBox="0 0 301.24999 69.999999" 
height="70"
 width="301.25" y="0px" x="0px" id="Layer_1" version="1.1">
  <metadata id="metadata3958">
    <rdf:RDF>
      <cc:Work rdf:about="">
        <dc:format>image/svg+xml</dc:format>
        <dc:type rdf:resource="http://purl.org/dc/dcmitype/StillImage" />
        <dc:title></dc:title>
      </cc:Work>
    </rdf:RDF>
  </metadata>
  <defs id="defs3956" />
  <switch transform="translate(0,0.8263591)" id="switch3951">
    <g id="g3949" i:extraneous="self">
      <g id="g3947">
        <path style="fill:#003772" id="path3913" d="m 0,1.361 h 38.342 c 3.055,0 5.531,2.271 5.531,5.071 0,2.8 -2.477,5.07 -5.531,5.07 H 11.034 V 57.85 h 27.308 c 3.055,0 5.531,2.27 5.531,5.07 0,2.799 -2.477,5.07 -5.531,5.07 H 0 Z" />
        <path style="fill:#86b918" id="path3915" d="M 96.5,56.594 C 80.059,64.959 60.6,52.799 60.379,34.576 60.16,16.486 79.992,4.457 96.08,12.334 c 2.426,1.188 5.34,0.678 6.779,-1.777 1.289,-2.2 0.646,-5.594 -1.777,-6.781 C 89.855,-1.721 76.637,-1.302 66.098,5.6 c -9.752,6.387 -15.49,17.391 -15.63,28.977 -0.139,11.492 5.903,21.963 15.067,28.584 10.462,7.559 24.701,7.723 35.967,1.992 5.699,-2.899 0.682,-11.45 -5.002,-8.559 z" />
        <g id="g3943">
          <path style="fill:#003772" id="path3917" d="m 81.221,34.938 c 0.021,1.379 0.703,3.059 2.551,3.059 1.055,0 1.891,-0.641 2.572,-1.3 l 1.539,1.279 c -1.166,1.179 -2.705,1.978 -4.508,1.978 -2.814,0 -4.837,-2.117 -4.837,-5.275 0,-2.678 1.825,-5.356 5.058,-5.356 3.121,0 4.572,2.099 4.572,5.616 h -6.947 z m 4.396,-1.719 c -0.065,-1.08 -0.615,-2.179 -2.021,-2.179 -1.21,0 -2.133,1.179 -2.243,2.179 z" />
          <path style="fill:#003772" id="path3919" d="m 106.68,39.676 h -2.682 v -1.221 h -0.045 c -0.836,0.879 -2.088,1.498 -3.43,1.498 -2.439,0 -3.078,-1.457 -3.078,-3.416 0,-0.62 0.021,-1.24 0.021,-1.879 l 0.066,-5.057 h 2.684 l -0.023,2.518 c -0.021,1.459 -0.043,2.879 -0.043,3.978 0,1.179 0.328,1.659 1.449,1.659 0.836,0 1.76,-0.72 2.441,-1.318 l 0.045,-6.836 h 2.682 z" />
          <path style="fill:#003772" id="path3921" d="m 117.012,29.602 h 2.684 v 1.838 l 0.021,0.04 c 0.527,-1.159 1.209,-2.118 2.572,-2.158 0.264,0 0.527,0.04 0.791,0.1 l -0.439,2.339 c -0.221,-0.04 -0.439,-0.08 -0.637,-0.08 -1.033,0 -1.781,0.699 -2.332,1.759 l -0.064,6.237 h -2.705 z" />
          <path style="fill:#003772" id="path3923" d="m 133.523,34.938 c 0.021,1.379 0.703,3.059 2.551,3.059 1.055,0 1.891,-0.641 2.572,-1.3 l 1.539,1.279 c -1.166,1.179 -2.705,1.978 -4.508,1.978 -2.814,0 -4.836,-2.117 -4.836,-5.275 0,-2.678 1.824,-5.356 5.055,-5.356 3.123,0 4.574,2.099 4.574,5.616 h -6.947 z m 4.397,-1.719 c -0.066,-1.08 -0.615,-2.179 -2.023,-2.179 -1.207,0 -2.131,1.179 -2.242,2.179 z" />
          <path style="fill:#003772" id="path3925" d="m 152.254,34.638 -3.408,-4.218 2.354,-1.338 2.66,3.837 2.748,-3.837 2.221,1.338 -3.43,4.218 3.518,4.197 -2.396,1.259 -2.66,-3.797 -2.969,3.797 -2.264,-1.259 z" />
          <path style="fill:#86b918" id="path3927" d="m 184.596,38.035 c -1.078,1.199 -2.375,1.918 -4.133,1.918 -3.168,0 -4.816,-2.717 -4.816,-5.155 0,-2.778 1.914,-5.477 5.211,-5.477 1.627,0 2.881,0.7 3.871,1.698 l -1.518,1.34 c -0.682,-0.5 -1.297,-0.959 -2.244,-0.959 -1.67,0 -2.506,1.639 -2.506,3.178 0,2.118 1.033,3.297 2.375,3.297 0.99,0 1.648,-0.539 2.264,-1.119 z" />
          <path style="fill:#86b918" id="path3929" d="m 193.631,24.684 h 2.682 l -0.131,14.992 h -2.684 z" />
          <path style="fill:#86b918" id="path3931" d="m 208.713,34.938 c 0.021,1.379 0.703,3.059 2.551,3.059 1.055,0 1.891,-0.641 2.572,-1.3 l 1.539,1.279 c -1.166,1.179 -2.705,1.978 -4.508,1.978 -2.814,0 -4.838,-2.117 -4.838,-5.275 0,-2.678 1.826,-5.356 5.059,-5.356 3.121,0 4.572,2.099 4.572,5.616 h -6.947 z m 4.398,-1.719 c -0.066,-1.08 -0.617,-2.179 -2.023,-2.179 -1.211,0 -2.133,1.179 -2.242,2.179 z" />
          <path style="fill:#86b918" id="path3933" d="m 224.652,31.359 c 2.418,-1.799 3.65,-2.038 4.836,-2.038 1.65,0 3.166,0.938 3.166,2.897 0,0.36 0,0.58 -0.021,0.84 l -0.088,2.898 c -0.021,0.459 -0.043,0.84 -0.043,1.259 0,0.56 0.307,0.96 0.594,0.96 0.131,0 0.328,-0.061 0.791,-0.26 l 0.637,1.219 c -1.164,0.699 -1.803,0.818 -2.309,0.818 -0.945,0 -1.715,-0.498 -1.912,-1.338 -0.791,0.84 -1.781,1.338 -2.836,1.338 -1.98,0 -3.32,-1.139 -3.32,-2.938 0,-1.618 1.143,-3.018 5.936,-3.736 v -0.66 c 0,-1.119 -0.527,-1.34 -1.275,-1.34 -0.549,0 -1.209,0.2 -2.879,1.38 z m 5.409,3.479 c -2.551,0.52 -3.363,1.079 -3.363,2.099 0,0.739 0.57,1.179 1.406,1.179 0.551,0 1.275,-0.319 1.914,-0.939 z" />
          <path style="fill:#86b918" id="path3935" d="m 243.273,29.602 h 2.682 v 1.838 l 0.023,0.04 c 0.527,-1.159 1.209,-2.118 2.572,-2.158 0.264,0 0.527,0.04 0.791,0.1 l -0.439,2.339 c -0.221,-0.04 -0.439,-0.08 -0.639,-0.08 -1.031,0 -1.781,0.699 -2.33,1.759 l -0.066,6.237 h -2.703 z" />
          <path style="fill:#86b918" id="path3937" d="m 258.049,29.602 h 2.682 l -0.111,10.074 h -2.682 z m 0.019,-3.758 h 2.684 l -0.021,2.357 h -2.682 z" />
          <path style="fill:#86b918" id="path3939" d="m 271.217,29.602 h 2.639 v 1.219 h 0.043 c 0.857,-0.879 2.111,-1.499 3.584,-1.499 2.332,0 2.947,1.479 2.947,3.038 0,0.999 -0.021,1.619 -0.021,2.258 l -0.066,5.059 h -2.684 l 0.023,-2.52 c 0.021,-1.559 0.043,-2.758 0.043,-3.957 0,-1.24 -0.33,-1.68 -1.451,-1.68 -0.834,0 -1.758,0.72 -2.439,1.319 l -0.045,6.837 h -2.682 z" />
          <path style="fill:#86b918" id="path3941" d="m 299.029,31.199 c 0.418,0.42 0.637,0.961 0.637,1.54 0,2.078 -1.979,3.258 -4.09,3.258 -0.9,0 -1.605,-0.14 -2.021,-0.26 -0.418,0.279 -0.967,0.56 -0.967,0.919 0,0.439 0.68,0.52 3.164,0.72 2.484,0.2 5.102,0.499 5.102,2.999 0,2.758 -3.254,4.137 -6.047,4.137 -3.539,0 -5.012,-1.5 -5.012,-2.957 0,-1.461 1.209,-2.1 2.375,-2.64 v -0.04 c -1.012,-0.199 -2.375,-0.42 -2.375,-1.398 0,-0.88 0.746,-1.32 2.594,-2.379 -1.055,-0.52 -1.518,-1.379 -1.518,-2.358 0,-2.159 2.002,-3.418 4.287,-3.418 1.254,0 1.805,0.2 2.465,0.439 l 3.582,-0.06 v 1.559 z m -4.002,11.754 c 1.912,0 3.275,-1.08 3.275,-2.119 0,-1.061 -0.439,-1.18 -4.287,-1.6 -0.857,0.48 -1.936,1.02 -1.936,1.979 10e-4,1.299 1.782,1.74 2.948,1.74 z m -1.605,-10.214 c 0,0.879 0.615,1.698 1.891,1.698 1.209,0 1.803,-0.739 1.803,-1.799 0,-0.959 -0.658,-1.758 -1.736,-1.758 -1.232,0.001 -1.958,0.76 -1.958,1.859 z" />
        </g>
        <path style="fill:#003772" id="path3945" d="m 47.272,29.496 c 0,0 -1.471,4.713 -0.183,9.988 L 21.622,39.566 V 29.498 Z" />
      </g>
    </g>
  </switch>
</svg>